<svg width="460" height="400" viewBox="0 0 460 400" fill="none" xmlns="http://www.w3.org/2000/svg">
<rect x="0.5" y="1.38867" width="459" height="398" rx="15.5" fill="url(#paint0_linear_632_1103)" fill-opacity="0.18"/>
<rect x="0.5" y="1.38867" width="459" height="398" rx="15.5" stroke="url(#paint1_linear_632_1103)"/>
<line x1="65.0127" y1="304.529" x2="434.988" y2="304.529" stroke="url(#paint2_linear_632_1103)"/>
<path d="M95.3784 304.333C95.3784 300.725 98.3039 297.799 101.913 297.799H166.255C169.864 297.799 172.79 300.725 172.79 304.333H95.3784Z" fill="#8040FF"/>
<g clip-path="url(#clip0_632_1103)">
<rect x="217.194" y="260.581" width="66.1751" height="6.77592" fill="white"/>
<rect x="217.194" y="267.357" width="66.1751" height="9.02171" fill="#FFD1B0"/>
<rect x="217.194" y="276.379" width="66.1751" height="10.5855" fill="#FFA666"/>
<rect x="217.194" y="286.964" width="66.1751" height="17.3693" fill="#FF7B6C"/>
</g>
<path d="M29.1647 50.4328H28.2287V49.1848C27.4527 49.1048 26.8407 48.8368 26.3927 48.3808C25.9447 47.9168 25.6847 47.3928 25.6127 46.8088L26.7527 46.4488C26.7927 46.8648 26.9367 47.2288 27.1847 47.5408C27.4327 47.8528 27.7807 48.0488 28.2287 48.1288V45.6208L27.9287 45.5608C27.3047 45.4328 26.8167 45.1808 26.4647 44.8048C26.1127 44.4288 25.9367 43.9528 25.9367 43.3768C25.9367 42.8008 26.1487 42.2968 26.5727 41.8648C27.0047 41.4328 27.5567 41.1768 28.2287 41.0968V39.8368H29.1647V41.1088C29.8287 41.1968 30.3367 41.4288 30.6887 41.8048C31.0487 42.1728 31.2887 42.5928 31.4087 43.0648L30.3287 43.4608C30.2887 43.1968 30.1687 42.9408 29.9687 42.6928C29.7687 42.4448 29.5007 42.2728 29.1647 42.1768V44.6368L29.3447 44.6728C30.0007 44.8008 30.5207 45.0688 30.9047 45.4768C31.2887 45.8848 31.4807 46.3608 31.4807 46.9048C31.4807 47.4728 31.2767 47.9728 30.8687 48.4048C30.4607 48.8368 29.8927 49.0968 29.1647 49.1848V50.4328ZM30.3047 46.9648C30.3047 46.7008 30.2087 46.4648 30.0167 46.2568C29.8247 46.0488 29.5407 45.9008 29.1647 45.8128V48.1288C29.5407 48.0568 29.8247 47.9168 30.0167 47.7088C30.2087 47.5008 30.3047 47.2528 30.3047 46.9648ZM27.1247 43.3288C27.1247 43.9128 27.4927 44.2768 28.2287 44.4208V42.1408C27.8847 42.2048 27.6127 42.3448 27.4127 42.5608C27.2207 42.7768 27.1247 43.0328 27.1247 43.3288ZM35.2854 49.0288H34.1334V43.5448H32.2494V42.7168C32.7774 42.7088 33.2214 42.5728 33.5814 42.3088C33.9414 42.0368 34.1654 41.6848 34.2534 41.2528H35.2854V49.0288ZM39.3399 44.5648C39.7559 44.5568 40.0999 44.4368 40.3719 44.2048C40.6439 43.9728 40.7799 43.6688 40.7799 43.2928C40.7799 42.9408 40.6479 42.6448 40.3839 42.4048C40.1199 42.1648 39.7719 42.0448 39.3399 42.0448C38.9079 42.0448 38.5599 42.1648 38.2959 42.4048C38.0319 42.6448 37.8999 42.9408 37.8999 43.2928C37.8999 43.6688 38.0359 43.9728 38.3079 44.2048C38.5799 44.4368 38.9239 44.5568 39.3399 44.5648ZM38.1399 47.8168C38.4359 48.0648 38.8359 48.1888 39.3399 48.1888C39.8439 48.1888 40.2399 48.0648 40.5279 47.8168C40.8239 47.5688 40.9719 47.2568 40.9719 46.8808C40.9719 46.4968 40.8239 46.1808 40.5279 45.9328C40.2399 45.6768 39.8439 45.5488 39.3399 45.5488C38.8359 45.5488 38.4359 45.6768 38.1399 45.9328C37.8519 46.1808 37.7079 46.4968 37.7079 46.8808C37.7079 47.2568 37.8519 47.5688 38.1399 47.8168ZM41.4039 48.5848C40.8999 49.0008 40.2119 49.2088 39.3399 49.2088C38.4679 49.2088 37.7799 49.0008 37.2759 48.5848C36.7719 48.1608 36.5199 47.6248 36.5199 46.9768C36.5199 46.5208 36.6559 46.1248 36.9279 45.7888C37.2079 45.4448 37.5639 45.2008 37.9959 45.0568C37.6279 44.9208 37.3239 44.6888 37.0839 44.3608C36.8439 44.0248 36.7239 43.6488 36.7239 43.2328C36.7239 42.6008 36.9719 42.0848 37.4679 41.6848C37.9639 41.2768 38.5879 41.0728 39.3399 41.0728C40.0919 41.0728 40.7159 41.2768 41.2119 41.6848C41.7079 42.0848 41.9559 42.6008 41.9559 43.2328C41.9559 43.6408 41.8359 44.0128 41.5959 44.3488C41.3559 44.6848 41.0519 44.9208 40.6839 45.0568C41.1159 45.1928 41.4679 45.4328 41.7399 45.7768C42.0199 46.1208 42.1599 46.5208 42.1599 46.9768C42.1599 47.6248 41.9079 48.1608 41.4039 48.5848ZM44.8841 42.6208C44.4281 43.1008 44.2001 43.9408 44.2001 45.1408C44.2001 46.3408 44.4281 47.1808 44.8841 47.6608C45.2041 47.9968 45.6161 48.1648 46.1201 48.1648C46.6241 48.1648 47.0361 47.9968 47.3561 47.6608C47.8121 47.1808 48.0401 46.3408 48.0401 45.1408C48.0401 43.9408 47.8121 43.1008 47.3561 42.6208C47.0361 42.2848 46.6241 42.1168 46.1201 42.1168C45.6161 42.1168 45.2041 42.2848 44.8841 42.6208ZM43.7321 47.9608C43.2681 47.2728 43.0361 46.3328 43.0361 45.1408C43.0361 43.9488 43.2681 43.0088 43.7321 42.3208C44.2841 41.4888 45.0801 41.0728 46.1201 41.0728C47.1601 41.0728 47.9561 41.4888 48.5081 42.3208C48.9721 43.0088 49.2041 43.9488 49.2041 45.1408C49.2041 46.3328 48.9721 47.2728 48.5081 47.9608C47.9561 48.7928 47.1601 49.2088 46.1201 49.2088C45.0801 49.2088 44.2841 48.7928 43.7321 47.9608ZM51.9966 42.6208C51.5406 43.1008 51.3126 43.9408 51.3126 45.1408C51.3126 46.3408 51.5406 47.1808 51.9966 47.6608C52.3166 47.9968 52.7286 48.1648 53.2326 48.1648C53.7366 48.1648 54.1486 47.9968 54.4686 47.6608C54.9246 47.1808 55.1526 46.3408 55.1526 45.1408C55.1526 43.9408 54.9246 43.1008 54.4686 42.6208C54.1486 42.2848 53.7366 42.1168 53.2326 42.1168C52.7286 42.1168 52.3166 42.2848 51.9966 42.6208ZM50.8446 47.9608C50.3806 47.2728 50.1486 46.3328 50.1486 45.1408C50.1486 43.9488 50.3806 43.0088 50.8446 42.3208C51.3966 41.4888 52.1926 41.0728 53.2326 41.0728C54.2726 41.0728 55.0686 41.4888 55.6206 42.3208C56.0846 43.0088 56.3166 43.9488 56.3166 45.1408C56.3166 46.3328 56.0846 47.2728 55.6206 47.9608C55.0686 48.7928 54.2726 49.2088 53.2326 49.2088C52.1926 49.2088 51.3966 48.7928 50.8446 47.9608ZM57.7997 40.5208H60.5717C61.3637 40.5208 61.9877 40.7328 62.4437 41.1568C62.9077 41.5808 63.1397 42.1368 63.1397 42.8248C63.1397 43.2648 63.0237 43.6448 62.7917 43.9648C62.5597 44.2848 62.2517 44.5168 61.8677 44.6608C62.3397 44.7808 62.7117 45.0328 62.9837 45.4168C63.2637 45.7928 63.4037 46.2248 63.4037 46.7128C63.4037 47.3848 63.1597 47.9408 62.6717 48.3808C62.1837 48.8128 61.5517 49.0288 60.7757 49.0288H57.7997V40.5208ZM58.9757 44.2408H60.4397C60.9037 44.2408 61.2717 44.1168 61.5437 43.8688C61.8157 43.6128 61.9517 43.2848 61.9517 42.8848C61.9517 42.4768 61.8117 42.1528 61.5317 41.9128C61.2517 41.6728 60.8717 41.5528 60.3917 41.5528H58.9757V44.2408ZM58.9757 47.9968H60.6077C61.0877 47.9968 61.4717 47.8728 61.7597 47.6248C62.0557 47.3768 62.2037 47.0488 62.2037 46.6408C62.2037 46.2168 62.0717 45.8808 61.8077 45.6328C61.5437 45.3768 61.1597 45.2488 60.6557 45.2488H58.9757V47.9968Z" fill="white"/>
<path d="M29.1647 78.4328H28.2287V77.1848C27.4527 77.1048 26.8407 76.8368 26.3927 76.3808C25.9447 75.9168 25.6847 75.3928 25.6127 74.8088L26.7527 74.4488C26.7927 74.8648 26.9367 75.2288 27.1847 75.5408C27.4327 75.8528 27.7807 76.0488 28.2287 76.1288V73.6208L27.9287 73.5608C27.3047 73.4328 26.8167 73.1808 26.4647 72.8048C26.1127 72.4288 25.9367 71.9528 25.9367 71.3768C25.9367 70.8008 26.1487 70.2968 26.5727 69.8648C27.0047 69.4328 27.5567 69.1768 28.2287 69.0968V67.8368H29.1647V69.1088C29.8287 69.1968 30.3367 69.4288 30.6887 69.8048C31.0487 70.1728 31.2887 70.5928 31.4087 71.0648L30.3287 71.4608C30.2887 71.1968 30.1687 70.9408 29.9687 70.6928C29.7687 70.4448 29.5007 70.2728 29.1647 70.1768V72.6368L29.3447 72.6728C30.0007 72.8008 30.5207 73.0688 30.9047 73.4768C31.2887 73.8848 31.4807 74.3608 31.4807 74.9048C31.4807 75.4728 31.2767 75.9728 30.8687 76.4048C30.4607 76.8368 29.8927 77.0968 29.1647 77.1848V78.4328ZM30.3047 74.9648C30.3047 74.7008 30.2087 74.4648 30.0167 74.2568C29.8247 74.0488 29.5407 73.9008 29.1647 73.8128V76.1288C29.5407 76.0568 29.8247 75.9168 30.0167 75.7088C30.2087 75.5008 30.3047 75.2528 30.3047 74.9648ZM27.1247 71.3288C27.1247 71.9128 27.4927 72.2768 28.2287 72.4208V70.1408C27.8847 70.2048 27.6127 70.3448 27.4127 70.5608C27.2207 70.7768 27.1247 71.0328 27.1247 71.3288ZM35.2854 77.0288H34.1334V71.5448H32.2494V70.7168C32.7774 70.7088 33.2214 70.5728 33.5814 70.3088C33.9414 70.0368 34.1654 69.6848 34.2534 69.2528H35.2854V77.0288ZM42.3385 69.5048L41.9785 70.4648C41.5945 70.2408 41.1305 70.1288 40.5865 70.1288C39.7945 70.1288 39.1505 70.3888 38.6545 70.9088C38.1665 71.4288 37.8985 72.0968 37.8505 72.9128C38.0265 72.6248 38.2905 72.3848 38.6425 72.1928C39.0025 72.0008 39.4225 71.9048 39.9025 71.9048C40.6945 71.9048 41.3345 72.1408 41.8225 72.6128C42.3185 73.0848 42.5665 73.7328 42.5665 74.5568C42.5665 75.3648 42.2865 76.0088 41.7265 76.4888C41.1665 76.9688 40.4865 77.2088 39.6865 77.2088C38.8545 77.2088 38.1385 76.9088 37.5385 76.3088C36.9465 75.7008 36.6505 74.8008 36.6505 73.6088C36.6505 72.2008 37.0265 71.0928 37.7785 70.2848C38.5305 69.4768 39.4905 69.0728 40.6585 69.0728C41.3705 69.0728 41.9305 69.2168 42.3385 69.5048ZM38.0185 74.5568C38.0185 75.0448 38.1865 75.4408 38.5225 75.7448C38.8585 76.0408 39.2505 76.1888 39.6985 76.1888C40.1705 76.1888 40.5665 76.0408 40.8865 75.7448C41.2145 75.4488 41.3785 75.0528 41.3785 74.5568C41.3785 74.0528 41.2145 73.6528 40.8865 73.3568C40.5665 73.0608 40.1705 72.9128 39.6985 72.9128C39.2265 72.9128 38.8265 73.0608 38.4985 73.3568C38.1785 73.6528 38.0185 74.0528 38.0185 74.5568ZM45.2474 70.6208C44.7914 71.1008 44.5634 71.9408 44.5634 73.1408C44.5634 74.3408 44.7914 75.1808 45.2474 75.6608C45.5674 75.9968 45.9794 76.1648 46.4834 76.1648C46.9874 76.1648 47.3994 75.9968 47.7194 75.6608C48.1754 75.1808 48.4034 74.3408 48.4034 73.1408C48.4034 71.9408 48.1754 71.1008 47.7194 70.6208C47.3994 70.2848 46.9874 70.1168 46.4834 70.1168C45.9794 70.1168 45.5674 70.2848 45.2474 70.6208ZM44.0954 75.9608C43.6314 75.2728 43.3994 74.3328 43.3994 73.1408C43.3994 71.9488 43.6314 71.0088 44.0954 70.3208C44.6474 69.4888 45.4434 69.0728 46.4834 69.0728C47.5234 69.0728 48.3194 69.4888 48.8714 70.3208C49.3354 71.0088 49.5674 71.9488 49.5674 73.1408C49.5674 74.3328 49.3354 75.2728 48.8714 75.9608C48.3194 76.7928 47.5234 77.2088 46.4834 77.2088C45.4434 77.2088 44.6474 76.7928 44.0954 75.9608ZM52.3599 70.6208C51.9039 71.1008 51.6759 71.9408 51.6759 73.1408C51.6759 74.3408 51.9039 75.1808 52.3599 75.6608C52.6799 75.9968 53.0919 76.1648 53.5959 76.1648C54.0999 76.1648 54.5119 75.9968 54.8319 75.6608C55.2879 75.1808 55.5159 74.3408 55.5159 73.1408C55.5159 71.9408 55.2879 71.1008 54.8319 70.6208C54.5119 70.2848 54.0999 70.1168 53.5959 70.1168C53.0919 70.1168 52.6799 70.2848 52.3599 70.6208ZM51.2079 75.9608C50.7439 75.2728 50.5119 74.3328 50.5119 73.1408C50.5119 71.9488 50.7439 71.0088 51.2079 70.3208C51.7599 69.4888 52.5559 69.0728 53.5959 69.0728C54.6359 69.0728 55.4319 69.4888 55.9839 70.3208C56.4479 71.0088 56.6799 71.9488 56.6799 73.1408C56.6799 74.3328 56.4479 75.2728 55.9839 75.9608C55.4319 76.7928 54.6359 77.2088 53.5959 77.2088C52.5559 77.2088 51.7599 76.7928 51.2079 75.9608ZM58.163 68.5208H60.935C61.727 68.5208 62.351 68.7328 62.807 69.1568C63.271 69.5808 63.503 70.1368 63.503 70.8248C63.503 71.2648 63.387 71.6448 63.155 71.9648C62.923 72.2848 62.615 72.5168 62.231 72.6608C62.703 72.7808 63.075 73.0328 63.347 73.4168C63.627 73.7928 63.767 74.2248 63.767 74.7128C63.767 75.3848 63.523 75.9408 63.035 76.3808C62.547 76.8128 61.915 77.0288 61.139 77.0288H58.163V68.5208ZM59.339 72.2408H60.803C61.267 72.2408 61.635 72.1168 61.907 71.8688C62.179 71.6128 62.315 71.2848 62.315 70.8848C62.315 70.4768 62.175 70.1528 61.895 69.9128C61.615 69.6728 61.235 69.5528 60.755 69.5528H59.339V72.2408ZM59.339 75.9968H60.971C61.451 75.9968 61.835 75.8728 62.123 75.6248C62.419 75.3768 62.567 75.0488 62.567 74.6408C62.567 74.2168 62.435 73.8808 62.171 73.6328C61.907 73.3768 61.523 73.2488 61.019 73.2488H59.339V75.9968Z" fill="white"/>
<path d="M29.1647 106.433H28.2287V105.185C27.4527 105.105 26.8407 104.837 26.3927 104.381C25.9447 103.917 25.6847 103.393 25.6127 102.809L26.7527 102.449C26.7927 102.865 26.9367 103.229 27.1847 103.541C27.4327 103.853 27.7807 104.049 28.2287 104.129V101.621L27.9287 101.561C27.3047 101.433 26.8167 101.181 26.4647 100.805C26.1127 100.429 25.9367 99.9528 25.9367 99.3768C25.9367 98.8008 26.1487 98.2968 26.5727 97.8648C27.0047 97.4328 27.5567 97.1768 28.2287 97.0968V95.8368H29.1647V97.1088C29.8287 97.1968 30.3367 97.4288 30.6887 97.8048C31.0487 98.1728 31.2887 98.5928 31.4087 99.0648L30.3287 99.4608C30.2887 99.1968 30.1687 98.9408 29.9687 98.6928C29.7687 98.4448 29.5007 98.2728 29.1647 98.1768V100.637L29.3447 100.673C30.0007 100.801 30.5207 101.069 30.9047 101.477C31.2887 101.885 31.4807 102.361 31.4807 102.905C31.4807 103.473 31.2767 103.973 30.8687 104.405C30.4607 104.837 29.8927 105.097 29.1647 105.185V106.433ZM30.3047 102.965C30.3047 102.701 30.2087 102.465 30.0167 102.257C29.8247 102.049 29.5407 101.901 29.1647 101.813V104.129C29.5407 104.057 29.8247 103.917 30.0167 103.709C30.2087 103.501 30.3047 103.253 30.3047 102.965ZM27.1247 99.3288C27.1247 99.9128 27.4927 100.277 28.2287 100.421V98.1408C27.8847 98.2048 27.6127 98.3448 27.4127 98.5608C27.2207 98.7768 27.1247 99.0328 27.1247 99.3288ZM35.2854 105.029H34.1334V99.5448H32.2494V98.7168C32.7774 98.7088 33.2214 98.5728 33.5814 98.3088C33.9414 98.0368 34.1654 97.6848 34.2534 97.2528H35.2854V105.029ZM36.3999 103.277V101.921L39.7359 97.2528H41.3559V102.185H42.6879V103.277H41.3559V105.029H40.2159V103.277H36.3999ZM40.2159 102.185V98.3808L37.4799 102.185H40.2159ZM45.1185 98.6208C44.6625 99.1008 44.4345 99.9408 44.4345 101.141C44.4345 102.341 44.6625 103.181 45.1185 103.661C45.4385 103.997 45.8505 104.165 46.3545 104.165C46.8585 104.165 47.2705 103.997 47.5905 103.661C48.0465 103.181 48.2745 102.341 48.2745 101.141C48.2745 99.9408 48.0465 99.1008 47.5905 98.6208C47.2705 98.2848 46.8585 98.1168 46.3545 98.1168C45.8505 98.1168 45.4385 98.2848 45.1185 98.6208ZM43.9665 103.961C43.5025 103.273 43.2705 102.333 43.2705 101.141C43.2705 99.9488 43.5025 99.0088 43.9665 98.3208C44.5185 97.4888 45.3145 97.0728 46.3545 97.0728C47.3945 97.0728 48.1905 97.4888 48.7425 98.3208C49.2065 99.0088 49.4385 99.9488 49.4385 101.141C49.4385 102.333 49.2065 103.273 48.7425 103.961C48.1905 104.793 47.3945 105.209 46.3545 105.209C45.3145 105.209 44.5185 104.793 43.9665 103.961ZM52.231 98.6208C51.775 99.1008 51.547 99.9408 51.547 101.141C51.547 102.341 51.775 103.181 52.231 103.661C52.551 103.997 52.963 104.165 53.467 104.165C53.971 104.165 54.383 103.997 54.703 103.661C55.159 103.181 55.387 102.341 55.387 101.141C55.387 99.9408 55.159 99.1008 54.703 98.6208C54.383 98.2848 53.971 98.1168 53.467 98.1168C52.963 98.1168 52.551 98.2848 52.231 98.6208ZM51.079 103.961C50.615 103.273 50.383 102.333 50.383 101.141C50.383 99.9488 50.615 99.0088 51.079 98.3208C51.631 97.4888 52.427 97.0728 53.467 97.0728C54.507 97.0728 55.303 97.4888 55.855 98.3208C56.319 99.0088 56.551 99.9488 56.551 101.141C56.551 102.333 56.319 103.273 55.855 103.961C55.303 104.793 54.507 105.209 53.467 105.209C52.427 105.209 51.631 104.793 51.079 103.961ZM58.0341 96.5208H60.8061C61.5981 96.5208 62.2221 96.7328 62.6781 97.1568C63.1421 97.5808 63.3741 98.1368 63.3741 98.8248C63.3741 99.2648 63.2581 99.6448 63.0261 99.9648C62.7941 100.285 62.4861 100.517 62.1021 100.661C62.5741 100.781 62.9461 101.033 63.2181 101.417C63.4981 101.793 63.6381 102.225 63.6381 102.713C63.6381 103.385 63.3941 103.941 62.9061 104.381C62.4181 104.813 61.7861 105.029 61.0101 105.029H58.0341V96.5208ZM59.2101 100.241H60.6741C61.1381 100.241 61.5061 100.117 61.7781 99.8688C62.0501 99.6128 62.1861 99.2848 62.1861 98.8848C62.1861 98.4768 62.0461 98.1528 61.7661 97.9128C61.4861 97.6728 61.1061 97.5528 60.6261 97.5528H59.2101V100.241ZM59.2101 103.997H60.8421C61.3221 103.997 61.7061 103.873 61.9941 103.625C62.2901 103.377 62.4381 103.049 62.4381 102.641C62.4381 102.217 62.3061 101.881 62.0421 101.633C61.7781 101.377 61.3941 101.249 60.8901 101.249H59.2101V103.997Z" fill="white"/>
<path d="M29.1647 134.433H28.2287V133.185C27.4527 133.105 26.8407 132.837 26.3927 132.381C25.9447 131.917 25.6847 131.393 25.6127 130.809L26.7527 130.449C26.7927 130.865 26.9367 131.229 27.1847 131.541C27.4327 131.853 27.7807 132.049 28.2287 132.129V129.621L27.9287 129.561C27.3047 129.433 26.8167 129.181 26.4647 128.805C26.1127 128.429 25.9367 127.953 25.9367 127.377C25.9367 126.801 26.1487 126.297 26.5727 125.865C27.0047 125.433 27.5567 125.177 28.2287 125.097V123.837H29.1647V125.109C29.8287 125.197 30.3367 125.429 30.6887 125.805C31.0487 126.173 31.2887 126.593 31.4087 127.065L30.3287 127.461C30.2887 127.197 30.1687 126.941 29.9687 126.693C29.7687 126.445 29.5007 126.273 29.1647 126.177V128.637L29.3447 128.673C30.0007 128.801 30.5207 129.069 30.9047 129.477C31.2887 129.885 31.4807 130.361 31.4807 130.905C31.4807 131.473 31.2767 131.973 30.8687 132.405C30.4607 132.837 29.8927 133.097 29.1647 133.185V134.433ZM30.3047 130.965C30.3047 130.701 30.2087 130.465 30.0167 130.257C29.8247 130.049 29.5407 129.901 29.1647 129.813V132.129C29.5407 132.057 29.8247 131.917 30.0167 131.709C30.2087 131.501 30.3047 131.253 30.3047 130.965ZM27.1247 127.329C27.1247 127.913 27.4927 128.277 28.2287 128.421V126.141C27.8847 126.205 27.6127 126.345 27.4127 126.561C27.2207 126.777 27.1247 127.033 27.1247 127.329ZM35.2854 133.029H34.1334V127.545H32.2494V126.717C32.7774 126.709 33.2214 126.573 33.5814 126.309C33.9414 126.037 34.1654 125.685 34.2534 125.253H35.2854V133.029ZM37.7305 128.049L36.5545 127.905C36.5465 127.833 36.5425 127.729 36.5425 127.593C36.5425 126.897 36.7865 126.305 37.2745 125.817C37.7625 125.321 38.4145 125.073 39.2305 125.073C40.0385 125.073 40.6785 125.305 41.1505 125.769C41.6225 126.225 41.8585 126.789 41.8585 127.461C41.8585 128.445 41.3705 129.245 40.3945 129.861L38.8585 130.845C38.3065 131.197 37.9905 131.561 37.9105 131.937H41.9065V133.029H36.4585C36.4745 132.373 36.6225 131.797 36.9025 131.301C37.1905 130.805 37.6585 130.349 38.3065 129.933L39.6025 129.093C40.3145 128.637 40.6705 128.097 40.6705 127.473C40.6705 127.089 40.5425 126.765 40.2865 126.501C40.0305 126.237 39.6705 126.105 39.2065 126.105C38.7185 126.105 38.3465 126.253 38.0905 126.549C37.8345 126.845 37.7065 127.229 37.7065 127.701C37.7065 127.773 37.7145 127.889 37.7305 128.049ZM44.638 126.621C44.182 127.101 43.954 127.941 43.954 129.141C43.954 130.341 44.182 131.181 44.638 131.661C44.958 131.997 45.37 132.165 45.874 132.165C46.378 132.165 46.79 131.997 47.11 131.661C47.566 131.181 47.794 130.341 47.794 129.141C47.794 127.941 47.566 127.101 47.11 126.621C46.79 126.285 46.378 126.117 45.874 126.117C45.37 126.117 44.958 126.285 44.638 126.621ZM43.486 131.961C43.022 131.273 42.79 130.333 42.79 129.141C42.79 127.949 43.022 127.009 43.486 126.321C44.038 125.489 44.834 125.073 45.874 125.073C46.914 125.073 47.71 125.489 48.262 126.321C48.726 127.009 48.958 127.949 48.958 129.141C48.958 130.333 48.726 131.273 48.262 131.961C47.71 132.793 46.914 133.209 45.874 133.209C44.834 133.209 44.038 132.793 43.486 131.961ZM51.7505 126.621C51.2945 127.101 51.0665 127.941 51.0665 129.141C51.0665 130.341 51.2945 131.181 51.7505 131.661C52.0705 131.997 52.4825 132.165 52.9865 132.165C53.4905 132.165 53.9025 131.997 54.2225 131.661C54.6785 131.181 54.9065 130.341 54.9065 129.141C54.9065 127.941 54.6785 127.101 54.2225 126.621C53.9025 126.285 53.4905 126.117 52.9865 126.117C52.4825 126.117 52.0705 126.285 51.7505 126.621ZM50.5985 131.961C50.1345 131.273 49.9025 130.333 49.9025 129.141C49.9025 127.949 50.1345 127.009 50.5985 126.321C51.1505 125.489 51.9465 125.073 52.9865 125.073C54.0265 125.073 54.8225 125.489 55.3745 126.321C55.8385 127.009 56.0705 127.949 56.0705 129.141C56.0705 130.333 55.8385 131.273 55.3745 131.961C54.8225 132.793 54.0265 133.209 52.9865 133.209C51.9465 133.209 51.1505 132.793 50.5985 131.961ZM57.5536 124.521H60.3256C61.1176 124.521 61.7416 124.733 62.1976 125.157C62.6616 125.581 62.8936 126.137 62.8936 126.825C62.8936 127.265 62.7776 127.645 62.5456 127.965C62.3136 128.285 62.0056 128.517 61.6216 128.661C62.0936 128.781 62.4656 129.033 62.7376 129.417C63.0176 129.793 63.1576 130.225 63.1576 130.713C63.1576 131.385 62.9136 131.941 62.4256 132.381C61.9376 132.813 61.3056 133.029 60.5296 133.029H57.5536V124.521ZM58.7296 128.241H60.1936C60.6576 128.241 61.0256 128.117 61.2976 127.869C61.5696 127.613 61.7056 127.285 61.7056 126.885C61.7056 126.477 61.5656 126.153 61.2856 125.913C61.0056 125.673 60.6256 125.553 60.1456 125.553H58.7296V128.241ZM58.7296 131.997H60.3616C60.8416 131.997 61.2256 131.873 61.5136 131.625C61.8096 131.377 61.9576 131.049 61.9576 130.641C61.9576 130.217 61.8256 129.881 61.5616 129.633C61.2976 129.377 60.9136 129.249 60.4096 129.249H58.7296V131.997Z" fill="white"/>
<path d="M29.1647 162.433H28.2287V161.185C27.4527 161.105 26.8407 160.837 26.3927 160.381C25.9447 159.917 25.6847 159.393 25.6127 158.809L26.7527 158.449C26.7927 158.865 26.9367 159.229 27.1847 159.541C27.4327 159.853 27.7807 160.049 28.2287 160.129V157.621L27.9287 157.561C27.3047 157.433 26.8167 157.181 26.4647 156.805C26.1127 156.429 25.9367 155.953 25.9367 155.377C25.9367 154.801 26.1487 154.297 26.5727 153.865C27.0047 153.433 27.5567 153.177 28.2287 153.097V151.837H29.1647V153.109C29.8287 153.197 30.3367 153.429 30.6887 153.805C31.0487 154.173 31.2887 154.593 31.4087 155.065L30.3287 155.461C30.2887 155.197 30.1687 154.941 29.9687 154.693C29.7687 154.445 29.5007 154.273 29.1647 154.177V156.637L29.3447 156.673C30.0007 156.801 30.5207 157.069 30.9047 157.477C31.2887 157.885 31.4807 158.361 31.4807 158.905C31.4807 159.473 31.2767 159.973 30.8687 160.405C30.4607 160.837 29.8927 161.097 29.1647 161.185V162.433ZM30.3047 158.965C30.3047 158.701 30.2087 158.465 30.0167 158.257C29.8247 158.049 29.5407 157.901 29.1647 157.813V160.129C29.5407 160.057 29.8247 159.917 30.0167 159.709C30.2087 159.501 30.3047 159.253 30.3047 158.965ZM27.1247 155.329C27.1247 155.913 27.4927 156.277 28.2287 156.421V154.141C27.8847 154.205 27.6127 154.345 27.4127 154.561C27.2207 154.777 27.1247 155.033 27.1247 155.329ZM35.2854 161.029H34.1334V155.545H32.2494V154.717C32.7774 154.709 33.2214 154.573 33.5814 154.309C33.9414 154.037 34.1654 153.685 34.2534 153.253H35.2854V161.029ZM38.4865 154.621C38.0305 155.101 37.8025 155.941 37.8025 157.141C37.8025 158.341 38.0305 159.181 38.4865 159.661C38.8065 159.997 39.2185 160.165 39.7225 160.165C40.2265 160.165 40.6385 159.997 40.9585 159.661C41.4145 159.181 41.6425 158.341 41.6425 157.141C41.6425 155.941 41.4145 155.101 40.9585 154.621C40.6385 154.285 40.2265 154.117 39.7225 154.117C39.2185 154.117 38.8065 154.285 38.4865 154.621ZM37.3345 159.961C36.8705 159.273 36.6385 158.333 36.6385 157.141C36.6385 155.949 36.8705 155.009 37.3345 154.321C37.8865 153.489 38.6825 153.073 39.7225 153.073C40.7625 153.073 41.5585 153.489 42.1105 154.321C42.5745 155.009 42.8065 155.949 42.8065 157.141C42.8065 158.333 42.5745 159.273 42.1105 159.961C41.5585 160.793 40.7625 161.209 39.7225 161.209C38.6825 161.209 37.8865 160.793 37.3345 159.961ZM45.599 154.621C45.143 155.101 44.915 155.941 44.915 157.141C44.915 158.341 45.143 159.181 45.599 159.661C45.919 159.997 46.331 160.165 46.835 160.165C47.339 160.165 47.751 159.997 48.071 159.661C48.527 159.181 48.755 158.341 48.755 157.141C48.755 155.941 48.527 155.101 48.071 154.621C47.751 154.285 47.339 154.117 46.835 154.117C46.331 154.117 45.919 154.285 45.599 154.621ZM44.447 159.961C43.983 159.273 43.751 158.333 43.751 157.141C43.751 155.949 43.983 155.009 44.447 154.321C44.999 153.489 45.795 153.073 46.835 153.073C47.875 153.073 48.671 153.489 49.223 154.321C49.687 155.009 49.919 155.949 49.919 157.141C49.919 158.333 49.687 159.273 49.223 159.961C48.671 160.793 47.875 161.209 46.835 161.209C45.795 161.209 44.999 160.793 44.447 159.961ZM52.7115 154.621C52.2555 155.101 52.0275 155.941 52.0275 157.141C52.0275 158.341 52.2555 159.181 52.7115 159.661C53.0315 159.997 53.4435 160.165 53.9475 160.165C54.4515 160.165 54.8635 159.997 55.1835 159.661C55.6395 159.181 55.8675 158.341 55.8675 157.141C55.8675 155.941 55.6395 155.101 55.1835 154.621C54.8635 154.285 54.4515 154.117 53.9475 154.117C53.4435 154.117 53.0315 154.285 52.7115 154.621ZM51.5595 159.961C51.0955 159.273 50.8635 158.333 50.8635 157.141C50.8635 155.949 51.0955 155.009 51.5595 154.321C52.1115 153.489 52.9075 153.073 53.9475 153.073C54.9875 153.073 55.7835 153.489 56.3355 154.321C56.7995 155.009 57.0315 155.949 57.0315 157.141C57.0315 158.333 56.7995 159.273 56.3355 159.961C55.7835 160.793 54.9875 161.209 53.9475 161.209C52.9075 161.209 52.1115 160.793 51.5595 159.961ZM58.5146 152.521H61.2866C62.0786 152.521 62.7026 152.733 63.1586 153.157C63.6226 153.581 63.8546 154.137 63.8546 154.825C63.8546 155.265 63.7386 155.645 63.5066 155.965C63.2746 156.285 62.9666 156.517 62.5826 156.661C63.0546 156.781 63.4266 157.033 63.6986 157.417C63.9786 157.793 64.1186 158.225 64.1186 158.713C64.1186 159.385 63.8746 159.941 63.3866 160.381C62.8986 160.813 62.2666 161.029 61.4906 161.029H58.5146V152.521ZM59.6906 156.241H61.1546C61.6186 156.241 61.9866 156.117 62.2586 155.869C62.5306 155.613 62.6666 155.285 62.6666 154.885C62.6666 154.477 62.5266 154.153 62.2466 153.913C61.9666 153.673 61.5866 153.553 61.1066 153.553H59.6906V156.241ZM59.6906 159.997H61.3226C61.8026 159.997 62.1866 159.873 62.4746 159.625C62.7706 159.377 62.9186 159.049 62.9186 158.641C62.9186 158.217 62.7866 157.881 62.5226 157.633C62.2586 157.377 61.8746 157.249 61.3706 157.249H59.6906V159.997Z" fill="white"/>
<path d="M29.1647 190.433H28.2287V189.185C27.4527 189.105 26.8407 188.837 26.3927 188.381C25.9447 187.917 25.6847 187.393 25.6127 186.809L26.7527 186.449C26.7927 186.865 26.9367 187.229 27.1847 187.541C27.4327 187.853 27.7807 188.049 28.2287 188.129V185.621L27.9287 185.561C27.3047 185.433 26.8167 185.181 26.4647 184.805C26.1127 184.429 25.9367 183.953 25.9367 183.377C25.9367 182.801 26.1487 182.297 26.5727 181.865C27.0047 181.433 27.5567 181.177 28.2287 181.097V179.837H29.1647V181.109C29.8287 181.197 30.3367 181.429 30.6887 181.805C31.0487 182.173 31.2887 182.593 31.4087 183.065L30.3287 183.461C30.2887 183.197 30.1687 182.941 29.9687 182.693C29.7687 182.445 29.5007 182.273 29.1647 182.177V184.637L29.3447 184.673C30.0007 184.801 30.5207 185.069 30.9047 185.477C31.2887 185.885 31.4807 186.361 31.4807 186.905C31.4807 187.473 31.2767 187.973 30.8687 188.405C30.4607 188.837 29.8927 189.097 29.1647 189.185V190.433ZM30.3047 186.965C30.3047 186.701 30.2087 186.465 30.0167 186.257C29.8247 186.049 29.5407 185.901 29.1647 185.813V188.129C29.5407 188.057 29.8247 187.917 30.0167 187.709C30.2087 187.501 30.3047 187.253 30.3047 186.965ZM27.1247 183.329C27.1247 183.913 27.4927 184.277 28.2287 184.421V182.141C27.8847 182.205 27.6127 182.345 27.4127 182.561C27.2207 182.777 27.1247 183.033 27.1247 183.329ZM35.1922 184.565C35.6082 184.557 35.9522 184.437 36.2242 184.205C36.4962 183.973 36.6322 183.669 36.6322 183.293C36.6322 182.941 36.5002 182.645 36.2362 182.405C35.9722 182.165 35.6242 182.045 35.1922 182.045C34.7602 182.045 34.4122 182.165 34.1482 182.405C33.8842 182.645 33.7522 182.941 33.7522 183.293C33.7522 183.669 33.8882 183.973 34.1602 184.205C34.4322 184.437 34.7762 184.557 35.1922 184.565ZM33.9922 187.817C34.2882 188.065 34.6882 188.189 35.1922 188.189C35.6962 188.189 36.0922 188.065 36.3802 187.817C36.6762 187.569 36.8242 187.257 36.8242 186.881C36.8242 186.497 36.6762 186.181 36.3802 185.933C36.0922 185.677 35.6962 185.549 35.1922 185.549C34.6882 185.549 34.2882 185.677 33.9922 185.933C33.7042 186.181 33.5602 186.497 33.5602 186.881C33.5602 187.257 33.7042 187.569 33.9922 187.817ZM37.2562 188.585C36.7522 189.001 36.0642 189.209 35.1922 189.209C34.3202 189.209 33.6322 189.001 33.1282 188.585C32.6242 188.161 32.3722 187.625 32.3722 186.977C32.3722 186.521 32.5082 186.125 32.7802 185.789C33.0602 185.445 33.4162 185.201 33.8482 185.057C33.4802 184.921 33.1762 184.689 32.9362 184.361C32.6962 184.025 32.5762 183.649 32.5762 183.233C32.5762 182.601 32.8242 182.085 33.3202 181.685C33.8162 181.277 34.4402 181.073 35.1922 181.073C35.9442 181.073 36.5682 181.277 37.0642 181.685C37.5602 182.085 37.8082 182.601 37.8082 183.233C37.8082 183.641 37.6882 184.013 37.4482 184.349C37.2082 184.685 36.9042 184.921 36.5362 185.057C36.9682 185.193 37.3202 185.433 37.5922 185.777C37.8722 186.121 38.0122 186.521 38.0122 186.977C38.0122 187.625 37.7602 188.161 37.2562 188.585ZM40.7365 182.621C40.2805 183.101 40.0525 183.941 40.0525 185.141C40.0525 186.341 40.2805 187.181 40.7365 187.661C41.0565 187.997 41.4685 188.165 41.9725 188.165C42.4765 188.165 42.8885 187.997 43.2085 187.661C43.6645 187.181 43.8925 186.341 43.8925 185.141C43.8925 183.941 43.6645 183.101 43.2085 182.621C42.8885 182.285 42.4765 182.117 41.9725 182.117C41.4685 182.117 41.0565 182.285 40.7365 182.621ZM39.5845 187.961C39.1205 187.273 38.8885 186.333 38.8885 185.141C38.8885 183.949 39.1205 183.009 39.5845 182.321C40.1365 181.489 40.9325 181.073 41.9725 181.073C43.0125 181.073 43.8085 181.489 44.3605 182.321C44.8245 183.009 45.0565 183.949 45.0565 185.141C45.0565 186.333 44.8245 187.273 44.3605 187.961C43.8085 188.793 43.0125 189.209 41.9725 189.209C40.9325 189.209 40.1365 188.793 39.5845 187.961ZM47.849 182.621C47.393 183.101 47.165 183.941 47.165 185.141C47.165 186.341 47.393 187.181 47.849 187.661C48.169 187.997 48.581 188.165 49.085 188.165C49.589 188.165 50.001 187.997 50.321 187.661C50.777 187.181 51.005 186.341 51.005 185.141C51.005 183.941 50.777 183.101 50.321 182.621C50.001 182.285 49.589 182.117 49.085 182.117C48.581 182.117 48.169 182.285 47.849 182.621ZM46.697 187.961C46.233 187.273 46.001 186.333 46.001 185.141C46.001 183.949 46.233 183.009 46.697 182.321C47.249 181.489 48.045 181.073 49.085 181.073C50.125 181.073 50.921 181.489 51.473 182.321C51.937 183.009 52.169 183.949 52.169 185.141C52.169 186.333 51.937 187.273 51.473 187.961C50.921 188.793 50.125 189.209 49.085 189.209C48.045 189.209 47.249 188.793 46.697 187.961ZM53.6521 180.521H56.4241C57.2161 180.521 57.8401 180.733 58.2961 181.157C58.7601 181.581 58.9921 182.137 58.9921 182.825C58.9921 183.265 58.8761 183.645 58.6441 183.965C58.4121 184.285 58.1041 184.517 57.7201 184.661C58.1921 184.781 58.5641 185.033 58.8361 185.417C59.1161 185.793 59.2561 186.225 59.2561 186.713C59.2561 187.385 59.0121 187.941 58.5241 188.381C58.0361 188.813 57.4041 189.029 56.6281 189.029H53.6521V180.521ZM54.8281 184.241H56.2921C56.7561 184.241 57.1241 184.117 57.3961 183.869C57.6681 183.613 57.8041 183.285 57.8041 182.885C57.8041 182.477 57.6641 182.153 57.3841 181.913C57.1041 181.673 56.7241 181.553 56.2441 181.553H54.8281V184.241ZM54.8281 187.997H56.4601C56.9401 187.997 57.3241 187.873 57.6121 187.625C57.9081 187.377 58.0561 187.049 58.0561 186.641C58.0561 186.217 57.9241 185.881 57.6601 185.633C57.3961 185.377 57.0121 185.249 56.5081 185.249H54.8281V187.997Z" fill="white"/>
<path d="M29.1647 218.433H28.2287V217.185C27.4527 217.105 26.8407 216.837 26.3927 216.381C25.9447 215.917 25.6847 215.393 25.6127 214.809L26.7527 214.449C26.7927 214.865 26.9367 215.229 27.1847 215.541C27.4327 215.853 27.7807 216.049 28.2287 216.129V213.621L27.9287 213.561C27.3047 213.433 26.8167 213.181 26.4647 212.805C26.1127 212.429 25.9367 211.953 25.9367 211.377C25.9367 210.801 26.1487 210.297 26.5727 209.865C27.0047 209.433 27.5567 209.177 28.2287 209.097V207.837H29.1647V209.109C29.8287 209.197 30.3367 209.429 30.6887 209.805C31.0487 210.173 31.2887 210.593 31.4087 211.065L30.3287 211.461C30.2887 211.197 30.1687 210.941 29.9687 210.693C29.7687 210.445 29.5007 210.273 29.1647 210.177V212.637L29.3447 212.673C30.0007 212.801 30.5207 213.069 30.9047 213.477C31.2887 213.885 31.4807 214.361 31.4807 214.905C31.4807 215.473 31.2767 215.973 30.8687 216.405C30.4607 216.837 29.8927 217.097 29.1647 217.185V218.433ZM30.3047 214.965C30.3047 214.701 30.2087 214.465 30.0167 214.257C29.8247 214.049 29.5407 213.901 29.1647 213.813V216.129C29.5407 216.057 29.8247 215.917 30.0167 215.709C30.2087 215.501 30.3047 215.253 30.3047 214.965ZM27.1247 211.329C27.1247 211.913 27.4927 212.277 28.2287 212.421V210.141C27.8847 210.205 27.6127 210.345 27.4127 210.561C27.2207 210.777 27.1247 211.033 27.1247 211.329ZM38.1322 209.505L37.7722 210.465C37.3882 210.241 36.9242 210.129 36.3802 210.129C35.5882 210.129 34.9442 210.389 34.4482 210.909C33.9602 211.429 33.6922 212.097 33.6442 212.913C33.8202 212.625 34.0842 212.385 34.4362 212.193C34.7962 212.001 35.2162 211.905 35.6962 211.905C36.4882 211.905 37.1282 212.141 37.6162 212.613C38.1122 213.085 38.3602 213.733 38.3602 214.557C38.3602 215.365 38.0802 216.009 37.5202 216.489C36.9602 216.969 36.2802 217.209 35.4802 217.209C34.6482 217.209 33.9322 216.909 33.3322 216.309C32.7402 215.701 32.4442 214.801 32.4442 213.609C32.4442 212.201 32.8202 211.093 33.5722 210.285C34.3242 209.477 35.2842 209.073 36.4522 209.073C37.1642 209.073 37.7242 209.217 38.1322 209.505ZM33.8122 214.557C33.8122 215.045 33.9802 215.441 34.3162 215.745C34.6522 216.041 35.0442 216.189 35.4922 216.189C35.9642 216.189 36.3602 216.041 36.6802 215.745C37.0082 215.449 37.1722 215.053 37.1722 214.557C37.1722 214.053 37.0082 213.653 36.6802 213.357C36.3602 213.061 35.9642 212.913 35.4922 212.913C35.0202 212.913 34.6202 213.061 34.2922 213.357C33.9722 213.653 33.8122 214.053 33.8122 214.557ZM41.0412 210.621C40.5852 211.101 40.3572 211.941 40.3572 213.141C40.3572 214.341 40.5852 215.181 41.0412 215.661C41.3612 215.997 41.7732 216.165 42.2772 216.165C42.7812 216.165 43.1932 215.997 43.5132 215.661C43.9692 215.181 44.1972 214.341 44.1972 213.141C44.1972 211.941 43.9692 211.101 43.5132 210.621C43.1932 210.285 42.7812 210.117 42.2772 210.117C41.7732 210.117 41.3612 210.285 41.0412 210.621ZM39.8892 215.961C39.4252 215.273 39.1932 214.333 39.1932 213.141C39.1932 211.949 39.4252 211.009 39.8892 210.321C40.4412 209.489 41.2372 209.073 42.2772 209.073C43.3172 209.073 44.1132 209.489 44.6652 210.321C45.1292 211.009 45.3612 211.949 45.3612 213.141C45.3612 214.333 45.1292 215.273 44.6652 215.961C44.1132 216.793 43.3172 217.209 42.2772 217.209C41.2372 217.209 40.4412 216.793 39.8892 215.961ZM48.1537 210.621C47.6977 211.101 47.4697 211.941 47.4697 213.141C47.4697 214.341 47.6977 215.181 48.1537 215.661C48.4737 215.997 48.8857 216.165 49.3897 216.165C49.8937 216.165 50.3057 215.997 50.6257 215.661C51.0817 215.181 51.3097 214.341 51.3097 213.141C51.3097 211.941 51.0817 211.101 50.6257 210.621C50.3057 210.285 49.8937 210.117 49.3897 210.117C48.8857 210.117 48.4737 210.285 48.1537 210.621ZM47.0017 215.961C46.5377 215.273 46.3057 214.333 46.3057 213.141C46.3057 211.949 46.5377 211.009 47.0017 210.321C47.5537 209.489 48.3497 209.073 49.3897 209.073C50.4297 209.073 51.2257 209.489 51.7777 210.321C52.2417 211.009 52.4737 211.949 52.4737 213.141C52.4737 214.333 52.2417 215.273 51.7777 215.961C51.2257 216.793 50.4297 217.209 49.3897 217.209C48.3497 217.209 47.5537 216.793 47.0017 215.961ZM53.9568 208.521H56.7288C57.5208 208.521 58.1448 208.733 58.6008 209.157C59.0648 209.581 59.2968 210.137 59.2968 210.825C59.2968 211.265 59.1808 211.645 58.9488 211.965C58.7168 212.285 58.4088 212.517 58.0248 212.661C58.4968 212.781 58.8688 213.033 59.1408 213.417C59.4208 213.793 59.5608 214.225 59.5608 214.713C59.5608 215.385 59.3168 215.941 58.8288 216.381C58.3408 216.813 57.7088 217.029 56.9328 217.029H53.9568V208.521ZM55.1328 212.241H56.5968C57.0608 212.241 57.4288 212.117 57.7008 211.869C57.9728 211.613 58.1088 211.285 58.1088 210.885C58.1088 210.477 57.9688 210.153 57.6888 209.913C57.4088 209.673 57.0288 209.553 56.5488 209.553H55.1328V212.241ZM55.1328 215.997H56.7648C57.2448 215.997 57.6288 215.873 57.9168 215.625C58.2128 215.377 58.3608 215.049 58.3608 214.641C58.3608 214.217 58.2288 213.881 57.9648 213.633C57.7008 213.377 57.3168 213.249 56.8128 213.249H55.1328V215.997Z" fill="white"/>
<path d="M29.1647 246.433H28.2287V245.185C27.4527 245.105 26.8407 244.837 26.3927 244.381C25.9447 243.917 25.6847 243.393 25.6127 242.809L26.7527 242.449C26.7927 242.865 26.9367 243.229 27.1847 243.541C27.4327 243.853 27.7807 244.049 28.2287 244.129V241.621L27.9287 241.561C27.3047 241.433 26.8167 241.181 26.4647 240.805C26.1127 240.429 25.9367 239.953 25.9367 239.377C25.9367 238.801 26.1487 238.297 26.5727 237.865C27.0047 237.433 27.5567 237.177 28.2287 237.097V235.837H29.1647V237.109C29.8287 237.197 30.3367 237.429 30.6887 237.805C31.0487 238.173 31.2887 238.593 31.4087 239.065L30.3287 239.461C30.2887 239.197 30.1687 238.941 29.9687 238.693C29.7687 238.445 29.5007 238.273 29.1647 238.177V240.637L29.3447 240.673C30.0007 240.801 30.5207 241.069 30.9047 241.477C31.2887 241.885 31.4807 242.361 31.4807 242.905C31.4807 243.473 31.2767 243.973 30.8687 244.405C30.4607 244.837 29.8927 245.097 29.1647 245.185V246.433ZM30.3047 242.965C30.3047 242.701 30.2087 242.465 30.0167 242.257C29.8247 242.049 29.5407 241.901 29.1647 241.813V244.129C29.5407 244.057 29.8247 243.917 30.0167 243.709C30.2087 243.501 30.3047 243.253 30.3047 242.965ZM27.1247 239.329C27.1247 239.913 27.4927 240.277 28.2287 240.421V238.141C27.8847 238.205 27.6127 238.345 27.4127 238.561C27.2207 238.777 27.1247 239.033 27.1247 239.329ZM32.2522 243.277V241.921L35.5882 237.253H37.2082V242.185H38.5402V243.277H37.2082V245.029H36.0682V243.277H32.2522ZM36.0682 242.185V238.381L33.3322 242.185H36.0682ZM40.9709 238.621C40.5149 239.101 40.2869 239.941 40.2869 241.141C40.2869 242.341 40.5149 243.181 40.9709 243.661C41.2909 243.997 41.7029 244.165 42.2069 244.165C42.7109 244.165 43.1229 243.997 43.4429 243.661C43.8989 243.181 44.1269 242.341 44.1269 241.141C44.1269 239.941 43.8989 239.101 43.4429 238.621C43.1229 238.285 42.7109 238.117 42.2069 238.117C41.7029 238.117 41.2909 238.285 40.9709 238.621ZM39.8189 243.961C39.3549 243.273 39.1229 242.333 39.1229 241.141C39.1229 239.949 39.3549 239.009 39.8189 238.321C40.3709 237.489 41.1669 237.073 42.2069 237.073C43.2469 237.073 44.0429 237.489 44.5949 238.321C45.0589 239.009 45.2909 239.949 45.2909 241.141C45.2909 242.333 45.0589 243.273 44.5949 243.961C44.0429 244.793 43.2469 245.209 42.2069 245.209C41.1669 245.209 40.3709 244.793 39.8189 243.961ZM48.0834 238.621C47.6274 239.101 47.3994 239.941 47.3994 241.141C47.3994 242.341 47.6274 243.181 48.0834 243.661C48.4034 243.997 48.8154 244.165 49.3194 244.165C49.8234 244.165 50.2354 243.997 50.5554 243.661C51.0114 243.181 51.2394 242.341 51.2394 241.141C51.2394 239.941 51.0114 239.101 50.5554 238.621C50.2354 238.285 49.8234 238.117 49.3194 238.117C48.8154 238.117 48.4034 238.285 48.0834 238.621ZM46.9314 243.961C46.4674 243.273 46.2354 242.333 46.2354 241.141C46.2354 239.949 46.4674 239.009 46.9314 238.321C47.4834 237.489 48.2794 237.073 49.3194 237.073C50.3594 237.073 51.1554 237.489 51.7074 238.321C52.1714 239.009 52.4034 239.949 52.4034 241.141C52.4034 242.333 52.1714 243.273 51.7074 243.961C51.1554 244.793 50.3594 245.209 49.3194 245.209C48.2794 245.209 47.4834 244.793 46.9314 243.961ZM53.8864 236.521H56.6584C57.4504 236.521 58.0744 236.733 58.5304 237.157C58.9944 237.581 59.2264 238.137 59.2264 238.825C59.2264 239.265 59.1104 239.645 58.8784 239.965C58.6464 240.285 58.3384 240.517 57.9544 240.661C58.4264 240.781 58.7984 241.033 59.0704 241.417C59.3504 241.793 59.4904 242.225 59.4904 242.713C59.4904 243.385 59.2464 243.941 58.7584 244.381C58.2704 244.813 57.6384 245.029 56.8624 245.029H53.8864V236.521ZM55.0624 240.241H56.5264C56.9904 240.241 57.3584 240.117 57.6304 239.869C57.9024 239.613 58.0384 239.285 58.0384 238.885C58.0384 238.477 57.8984 238.153 57.6184 237.913C57.3384 237.673 56.9584 237.553 56.4784 237.553H55.0624V240.241ZM55.0624 243.997H56.6944C57.1744 243.997 57.5584 243.873 57.8464 243.625C58.1424 243.377 58.2904 243.049 58.2904 242.641C58.2904 242.217 58.1584 241.881 57.8944 241.633C57.6304 241.377 57.2464 241.249 56.7424 241.249H55.0624V243.997Z" fill="white"/>
<path d="M29.1647 274.433H28.2287V273.185C27.4527 273.105 26.8407 272.837 26.3927 272.381C25.9447 271.917 25.6847 271.393 25.6127 270.809L26.7527 270.449C26.7927 270.865 26.9367 271.229 27.1847 271.541C27.4327 271.853 27.7807 272.049 28.2287 272.129V269.621L27.9287 269.561C27.3047 269.433 26.8167 269.181 26.4647 268.805C26.1127 268.429 25.9367 267.953 25.9367 267.377C25.9367 266.801 26.1487 266.297 26.5727 265.865C27.0047 265.433 27.5567 265.177 28.2287 265.097V263.837H29.1647V265.109C29.8287 265.197 30.3367 265.429 30.6887 265.805C31.0487 266.173 31.2887 266.593 31.4087 267.065L30.3287 267.461C30.2887 267.197 30.1687 266.941 29.9687 266.693C29.7687 266.445 29.5007 266.273 29.1647 266.177V268.637L29.3447 268.673C30.0007 268.801 30.5207 269.069 30.9047 269.477C31.2887 269.885 31.4807 270.361 31.4807 270.905C31.4807 271.473 31.2767 271.973 30.8687 272.405C30.4607 272.837 29.8927 273.097 29.1647 273.185V274.433ZM30.3047 270.965C30.3047 270.701 30.2087 270.465 30.0167 270.257C29.8247 270.049 29.5407 269.901 29.1647 269.813V272.129C29.5407 272.057 29.8247 271.917 30.0167 271.709C30.2087 271.501 30.3047 271.253 30.3047 270.965ZM27.1247 267.329C27.1247 267.913 27.4927 268.277 28.2287 268.421V266.141C27.8847 266.205 27.6127 266.345 27.4127 266.561C27.2207 266.777 27.1247 267.033 27.1247 267.329ZM33.6414 268.049L32.4654 267.905C32.4574 267.833 32.4534 267.729 32.4534 267.593C32.4534 266.897 32.6974 266.305 33.1854 265.817C33.6734 265.321 34.3254 265.073 35.1414 265.073C35.9494 265.073 36.5894 265.305 37.0614 265.769C37.5334 266.225 37.7694 266.789 37.7694 267.461C37.7694 268.445 37.2814 269.245 36.3054 269.861L34.7694 270.845C34.2174 271.197 33.9014 271.561 33.8214 271.937H37.8174V273.029H32.3694C32.3854 272.373 32.5334 271.797 32.8134 271.301C33.1014 270.805 33.5694 270.349 34.2174 269.933L35.5134 269.093C36.2254 268.637 36.5814 268.097 36.5814 267.473C36.5814 267.089 36.4534 266.765 36.1974 266.501C35.9414 266.237 35.5814 266.105 35.1174 266.105C34.6294 266.105 34.2574 266.253 34.0014 266.549C33.7454 266.845 33.6174 267.229 33.6174 267.701C33.6174 267.773 33.6254 267.889 33.6414 268.049ZM40.549 266.621C40.093 267.101 39.865 267.941 39.865 269.141C39.865 270.341 40.093 271.181 40.549 271.661C40.869 271.997 41.281 272.165 41.785 272.165C42.289 272.165 42.701 271.997 43.021 271.661C43.477 271.181 43.705 270.341 43.705 269.141C43.705 267.941 43.477 267.101 43.021 266.621C42.701 266.285 42.289 266.117 41.785 266.117C41.281 266.117 40.869 266.285 40.549 266.621ZM39.397 271.961C38.933 271.273 38.701 270.333 38.701 269.141C38.701 267.949 38.933 267.009 39.397 266.321C39.949 265.489 40.745 265.073 41.785 265.073C42.825 265.073 43.621 265.489 44.173 266.321C44.637 267.009 44.869 267.949 44.869 269.141C44.869 270.333 44.637 271.273 44.173 271.961C43.621 272.793 42.825 273.209 41.785 273.209C40.745 273.209 39.949 272.793 39.397 271.961ZM47.6615 266.621C47.2055 267.101 46.9775 267.941 46.9775 269.141C46.9775 270.341 47.2055 271.181 47.6615 271.661C47.9815 271.997 48.3935 272.165 48.8975 272.165C49.4015 272.165 49.8135 271.997 50.1335 271.661C50.5895 271.181 50.8175 270.341 50.8175 269.141C50.8175 267.941 50.5895 267.101 50.1335 266.621C49.8135 266.285 49.4015 266.117 48.8975 266.117C48.3935 266.117 47.9815 266.285 47.6615 266.621ZM46.5095 271.961C46.0455 271.273 45.8135 270.333 45.8135 269.141C45.8135 267.949 46.0455 267.009 46.5095 266.321C47.0615 265.489 47.8575 265.073 48.8975 265.073C49.9375 265.073 50.7335 265.489 51.2855 266.321C51.7495 267.009 51.9815 267.949 51.9815 269.141C51.9815 270.333 51.7495 271.273 51.2855 271.961C50.7335 272.793 49.9375 273.209 48.8975 273.209C47.8575 273.209 47.0615 272.793 46.5095 271.961ZM53.4646 264.521H56.2366C57.0286 264.521 57.6526 264.733 58.1086 265.157C58.5726 265.581 58.8046 266.137 58.8046 266.825C58.8046 267.265 58.6886 267.645 58.4566 267.965C58.2246 268.285 57.9166 268.517 57.5326 268.661C58.0046 268.781 58.3766 269.033 58.6486 269.417C58.9286 269.793 59.0686 270.225 59.0686 270.713C59.0686 271.385 58.8246 271.941 58.3366 272.381C57.8486 272.813 57.2166 273.029 56.4406 273.029H53.4646V264.521ZM54.6406 268.241H56.1046C56.5686 268.241 56.9366 268.117 57.2086 267.869C57.4806 267.613 57.6166 267.285 57.6166 266.885C57.6166 266.477 57.4766 266.153 57.1966 265.913C56.9166 265.673 56.5366 265.553 56.0566 265.553H54.6406V268.241ZM54.6406 271.997H56.2726C56.7526 271.997 57.1366 271.873 57.4246 271.625C57.7206 271.377 57.8686 271.049 57.8686 270.641C57.8686 270.217 57.7366 269.881 57.4726 269.633C57.2086 269.377 56.8246 269.249 56.3206 269.249H54.6406V271.997Z" fill="white"/>
<path d="M29.1647 302.433H28.2287V301.185C27.4527 301.105 26.8407 300.837 26.3927 300.381C25.9447 299.917 25.6847 299.393 25.6127 298.809L26.7527 298.449C26.7927 298.865 26.9367 299.229 27.1847 299.541C27.4327 299.853 27.7807 300.049 28.2287 300.129V297.621L27.9287 297.561C27.3047 297.433 26.8167 297.181 26.4647 296.805C26.1127 296.429 25.9367 295.953 25.9367 295.377C25.9367 294.801 26.1487 294.297 26.5727 293.865C27.0047 293.433 27.5567 293.177 28.2287 293.097V291.837H29.1647V293.109C29.8287 293.197 30.3367 293.429 30.6887 293.805C31.0487 294.173 31.2887 294.593 31.4087 295.065L30.3287 295.461C30.2887 295.197 30.1687 294.941 29.9687 294.693C29.7687 294.445 29.5007 294.273 29.1647 294.177V296.637L29.3447 296.673C30.0007 296.801 30.5207 297.069 30.9047 297.477C31.2887 297.885 31.4807 298.361 31.4807 298.905C31.4807 299.473 31.2767 299.973 30.8687 300.405C30.4607 300.837 29.8927 301.097 29.1647 301.185V302.433ZM30.3047 298.965C30.3047 298.701 30.2087 298.465 30.0167 298.257C29.8247 298.049 29.5407 297.901 29.1647 297.813V300.129C29.5407 300.057 29.8247 299.917 30.0167 299.709C30.2087 299.501 30.3047 299.253 30.3047 298.965ZM27.1247 295.329C27.1247 295.913 27.4927 296.277 28.2287 296.421V294.141C27.8847 294.205 27.6127 294.345 27.4127 294.561C27.2207 294.777 27.1247 295.033 27.1247 295.329ZM34.2802 294.621C33.8242 295.101 33.5962 295.941 33.5962 297.141C33.5962 298.341 33.8242 299.181 34.2802 299.661C34.6002 299.997 35.0122 300.165 35.5162 300.165C36.0202 300.165 36.4322 299.997 36.7522 299.661C37.2082 299.181 37.4362 298.341 37.4362 297.141C37.4362 295.941 37.2082 295.101 36.7522 294.621C36.4322 294.285 36.0202 294.117 35.5162 294.117C35.0122 294.117 34.6002 294.285 34.2802 294.621ZM33.1282 299.961C32.6642 299.273 32.4322 298.333 32.4322 297.141C32.4322 295.949 32.6642 295.009 33.1282 294.321C33.6802 293.489 34.4762 293.073 35.5162 293.073C36.5562 293.073 37.3522 293.489 37.9042 294.321C38.3682 295.009 38.6002 295.949 38.6002 297.141C38.6002 298.333 38.3682 299.273 37.9042 299.961C37.3522 300.793 36.5562 301.209 35.5162 301.209C34.4762 301.209 33.6802 300.793 33.1282 299.961ZM40.0833 292.521H42.8553C43.6473 292.521 44.2713 292.733 44.7273 293.157C45.1913 293.581 45.4233 294.137 45.4233 294.825C45.4233 295.265 45.3073 295.645 45.0753 295.965C44.8433 296.285 44.5353 296.517 44.1513 296.661C44.6233 296.781 44.9953 297.033 45.2673 297.417C45.5473 297.793 45.6873 298.225 45.6873 298.713C45.6873 299.385 45.4433 299.941 44.9553 300.381C44.4673 300.813 43.8353 301.029 43.0593 301.029H40.0833V292.521ZM41.2593 296.241H42.7233C43.1873 296.241 43.5553 296.117 43.8273 295.869C44.0993 295.613 44.2353 295.285 44.2353 294.885C44.2353 294.477 44.0953 294.153 43.8153 293.913C43.5353 293.673 43.1553 293.553 42.6753 293.553H41.2593V296.241ZM41.2593 299.997H42.8913C43.3713 299.997 43.7553 299.873 44.0433 299.625C44.3393 299.377 44.4873 299.049 44.4873 298.641C44.4873 298.217 44.3553 297.881 44.0913 297.633C43.8273 297.377 43.4433 297.249 42.9393 297.249H41.2593V299.997Z" fill="white"/>
<path d="M108.033 324.909L106.857 324.765C106.849 324.693 106.845 324.589 106.845 324.453C106.845 323.757 107.089 323.165 107.577 322.677C108.065 322.181 108.717 321.933 109.533 321.933C110.341 321.933 110.981 322.165 111.453 322.629C111.925 323.085 112.161 323.649 112.161 324.321C112.161 325.305 111.673 326.105 110.697 326.721L109.161 327.705C108.609 328.057 108.293 328.421 108.213 328.797H112.209V329.889H106.761C106.777 329.233 106.925 328.657 107.205 328.161C107.493 327.665 107.961 327.209 108.609 326.793L109.905 325.953C110.617 325.497 110.973 324.957 110.973 324.333C110.973 323.949 110.845 323.625 110.589 323.361C110.333 323.097 109.973 322.965 109.509 322.965C109.021 322.965 108.649 323.113 108.393 323.409C108.137 323.705 108.009 324.089 108.009 324.561C108.009 324.633 108.017 324.749 108.033 324.909ZM114.94 323.481C114.484 323.961 114.256 324.801 114.256 326.001C114.256 327.201 114.484 328.041 114.94 328.521C115.26 328.857 115.672 329.025 116.176 329.025C116.68 329.025 117.092 328.857 117.412 328.521C117.868 328.041 118.096 327.201 118.096 326.001C118.096 324.801 117.868 323.961 117.412 323.481C117.092 323.145 116.68 322.977 116.176 322.977C115.672 322.977 115.26 323.145 114.94 323.481ZM113.788 328.821C113.324 328.133 113.092 327.193 113.092 326.001C113.092 324.809 113.324 323.869 113.788 323.181C114.34 322.349 115.136 321.933 116.176 321.933C117.216 321.933 118.012 322.349 118.564 323.181C119.028 323.869 119.26 324.809 119.26 326.001C119.26 327.193 119.028 328.133 118.564 328.821C118.012 329.653 117.216 330.069 116.176 330.069C115.136 330.069 114.34 329.653 113.788 328.821ZM121.355 324.909L120.179 324.765C120.171 324.693 120.167 324.589 120.167 324.453C120.167 323.757 120.411 323.165 120.899 322.677C121.387 322.181 122.039 321.933 122.855 321.933C123.663 321.933 124.303 322.165 124.775 322.629C125.247 323.085 125.483 323.649 125.483 324.321C125.483 325.305 124.995 326.105 124.019 326.721L122.483 327.705C121.931 328.057 121.615 328.421 121.535 328.797H125.531V329.889H120.083C120.099 329.233 120.247 328.657 120.527 328.161C120.815 327.665 121.283 327.209 121.931 326.793L123.227 325.953C123.939 325.497 124.295 324.957 124.295 324.333C124.295 323.949 124.167 323.625 123.911 323.361C123.655 323.097 123.295 322.965 122.831 322.965C122.343 322.965 121.971 323.113 121.715 323.409C121.459 323.705 121.331 324.089 121.331 324.561C121.331 324.633 121.339 324.749 121.355 324.909ZM129.268 329.889H128.116V324.405H126.232V323.577C126.76 323.569 127.204 323.433 127.564 323.169C127.924 322.897 128.148 322.545 128.236 322.113H129.268V329.889Z" fill="white"/>
<path d="M241.533 324.909L240.357 324.765C240.349 324.693 240.345 324.589 240.345 324.453C240.345 323.757 240.589 323.165 241.077 322.677C241.565 322.181 242.217 321.933 243.033 321.933C243.841 321.933 244.481 322.165 244.953 322.629C245.425 323.085 245.661 323.649 245.661 324.321C245.661 325.305 245.173 326.105 244.197 326.721L242.661 327.705C242.109 328.057 241.793 328.421 241.713 328.797H245.709V329.889H240.261C240.277 329.233 240.425 328.657 240.705 328.161C240.993 327.665 241.461 327.209 242.109 326.793L243.405 325.953C244.117 325.497 244.473 324.957 244.473 324.333C244.473 323.949 244.345 323.625 244.089 323.361C243.833 323.097 243.473 322.965 243.009 322.965C242.521 322.965 242.149 323.113 241.893 323.409C241.637 323.705 241.509 324.089 241.509 324.561C241.509 324.633 241.517 324.749 241.533 324.909ZM248.44 323.481C247.984 323.961 247.756 324.801 247.756 326.001C247.756 327.201 247.984 328.041 248.44 328.521C248.76 328.857 249.172 329.025 249.676 329.025C250.18 329.025 250.592 328.857 250.912 328.521C251.368 328.041 251.596 327.201 251.596 326.001C251.596 324.801 251.368 323.961 250.912 323.481C250.592 323.145 250.18 322.977 249.676 322.977C249.172 322.977 248.76 323.145 248.44 323.481ZM247.288 328.821C246.824 328.133 246.592 327.193 246.592 326.001C246.592 324.809 246.824 323.869 247.288 323.181C247.84 322.349 248.636 321.933 249.676 321.933C250.716 321.933 251.512 322.349 252.064 323.181C252.528 323.869 252.76 324.809 252.76 326.001C252.76 327.193 252.528 328.133 252.064 328.821C251.512 329.653 250.716 330.069 249.676 330.069C248.636 330.069 247.84 329.653 247.288 328.821ZM254.855 324.909L253.679 324.765C253.671 324.693 253.667 324.589 253.667 324.453C253.667 323.757 253.911 323.165 254.399 322.677C254.887 322.181 255.539 321.933 256.355 321.933C257.163 321.933 257.803 322.165 258.275 322.629C258.747 323.085 258.983 323.649 258.983 324.321C258.983 325.305 258.495 326.105 257.519 326.721L255.983 327.705C255.431 328.057 255.115 328.421 255.035 328.797H259.031V329.889H253.583C253.599 329.233 253.747 328.657 254.027 328.161C254.315 327.665 254.783 327.209 255.431 326.793L256.727 325.953C257.439 325.497 257.795 324.957 257.795 324.333C257.795 323.949 257.667 323.625 257.411 323.361C257.155 323.097 256.795 322.965 256.331 322.965C255.843 322.965 255.471 323.113 255.215 323.409C254.959 323.705 254.831 324.089 254.831 324.561C254.831 324.633 254.839 324.749 254.855 324.909ZM259.735 327.777L260.863 327.441C260.895 327.921 261.071 328.309 261.391 328.605C261.719 328.901 262.127 329.049 262.615 329.049C263.087 329.049 263.483 328.905 263.803 328.617C264.123 328.329 264.283 327.949 264.283 327.477C264.283 326.965 264.123 326.569 263.803 326.289C263.483 326.009 263.083 325.869 262.603 325.869C262.019 325.869 261.547 326.057 261.187 326.433C261.075 326.393 260.891 326.321 260.635 326.217C260.379 326.113 260.179 326.033 260.035 325.977L261.043 322.113H265.147V323.193H261.823L261.247 325.425C261.591 325.041 262.119 324.849 262.831 324.849C263.607 324.849 264.239 325.081 264.727 325.545C265.223 326.009 265.471 326.637 265.471 327.429C265.471 328.181 265.207 328.813 264.679 329.325C264.151 329.829 263.463 330.081 262.615 330.081C261.815 330.081 261.147 329.857 260.611 329.409C260.083 328.961 259.791 328.417 259.735 327.777Z" fill="white"/>
<path d="M378.033 324.909L376.857 324.765C376.849 324.693 376.845 324.589 376.845 324.453C376.845 323.757 377.089 323.165 377.577 322.677C378.065 322.181 378.717 321.933 379.533 321.933C380.341 321.933 380.981 322.165 381.453 322.629C381.925 323.085 382.161 323.649 382.161 324.321C382.161 325.305 381.673 326.105 380.697 326.721L379.161 327.705C378.609 328.057 378.293 328.421 378.213 328.797H382.209V329.889H376.761C376.777 329.233 376.925 328.657 377.205 328.161C377.493 327.665 377.961 327.209 378.609 326.793L379.905 325.953C380.617 325.497 380.973 324.957 380.973 324.333C380.973 323.949 380.845 323.625 380.589 323.361C380.333 323.097 379.973 322.965 379.509 322.965C379.021 322.965 378.649 323.113 378.393 323.409C378.137 323.705 378.009 324.089 378.009 324.561C378.009 324.633 378.017 324.749 378.033 324.909ZM384.94 323.481C384.484 323.961 384.256 324.801 384.256 326.001C384.256 327.201 384.484 328.041 384.94 328.521C385.26 328.857 385.672 329.025 386.176 329.025C386.68 329.025 387.092 328.857 387.412 328.521C387.868 328.041 388.096 327.201 388.096 326.001C388.096 324.801 387.868 323.961 387.412 323.481C387.092 323.145 386.68 322.977 386.176 322.977C385.672 322.977 385.26 323.145 384.94 323.481ZM383.788 328.821C383.324 328.133 383.092 327.193 383.092 326.001C383.092 324.809 383.324 323.869 383.788 323.181C384.34 322.349 385.136 321.933 386.176 321.933C387.216 321.933 388.012 322.349 388.564 323.181C389.028 323.869 389.26 324.809 389.26 326.001C389.26 327.193 389.028 328.133 388.564 328.821C388.012 329.653 387.216 330.069 386.176 330.069C385.136 330.069 384.34 329.653 383.788 328.821ZM392.305 326.277L391.729 325.305L394.021 323.193H390.301V322.113H395.581V323.169L393.361 325.221C393.993 325.221 394.549 325.429 395.029 325.845C395.517 326.261 395.761 326.841 395.761 327.585C395.761 328.273 395.509 328.861 395.005 329.349C394.501 329.837 393.813 330.081 392.941 330.081C392.085 330.081 391.397 329.845 390.877 329.373C390.365 328.893 390.089 328.313 390.049 327.633L391.201 327.369C391.225 327.873 391.397 328.281 391.717 328.593C392.045 328.897 392.449 329.049 392.929 329.049C393.441 329.049 393.841 328.913 394.129 328.641C394.425 328.361 394.573 328.017 394.573 327.609C394.573 327.137 394.417 326.777 394.105 326.529C393.793 326.281 393.421 326.157 392.989 326.157C392.757 326.157 392.529 326.197 392.305 326.277ZM398.486 323.481C398.03 323.961 397.802 324.801 397.802 326.001C397.802 327.201 398.03 328.041 398.486 328.521C398.806 328.857 399.218 329.025 399.722 329.025C400.226 329.025 400.638 328.857 400.958 328.521C401.414 328.041 401.642 327.201 401.642 326.001C401.642 324.801 401.414 323.961 400.958 323.481C400.638 323.145 400.226 322.977 399.722 322.977C399.218 322.977 398.806 323.145 398.486 323.481ZM397.334 328.821C396.87 328.133 396.638 327.193 396.638 326.001C396.638 324.809 396.87 323.869 397.334 323.181C397.886 322.349 398.682 321.933 399.722 321.933C400.762 321.933 401.558 322.349 402.11 323.181C402.574 323.869 402.806 324.809 402.806 326.001C402.806 327.193 402.574 328.133 402.11 328.821C401.558 329.653 400.762 330.069 399.722 330.069C398.682 330.069 397.886 329.653 397.334 328.821Z" fill="white"/>
<g clip-path="url(#clip1_632_1103)">
<rect x="344.013" y="66.5503" width="60.121" height="38.2429" fill="white"/>
<rect x="344.013" y="104.793" width="60.121" height="45.6974" fill="#FFD1B0"/>
<rect x="344.013" y="150.49" width="60.121" height="60.102" fill="#FFA666"/>
<rect x="344.013" y="210.592" width="60.121" height="93.7408" fill="#FF7B6C"/>
</g>
<path d="M234.719 150.569V149.439L237.499 145.549H238.849V149.659H239.959V150.569H238.849V152.029H237.899V150.569H234.719ZM237.899 149.659V146.489L235.619 149.659H237.899ZM242.162 149.019L241.682 148.209L243.592 146.449H240.492V145.549H244.892V146.429L243.042 148.139C243.568 148.139 244.032 148.312 244.432 148.659C244.838 149.005 245.042 149.489 245.042 150.109C245.042 150.682 244.832 151.172 244.412 151.579C243.992 151.985 243.418 152.189 242.692 152.189C241.978 152.189 241.405 151.992 240.972 151.599C240.545 151.199 240.315 150.715 240.282 150.149L241.242 149.929C241.262 150.349 241.405 150.689 241.672 150.949C241.945 151.202 242.282 151.329 242.682 151.329C243.108 151.329 243.442 151.215 243.682 150.989C243.928 150.755 244.052 150.469 244.052 150.129C244.052 149.735 243.922 149.435 243.662 149.229C243.402 149.022 243.092 148.919 242.732 148.919C242.538 148.919 242.348 148.952 242.162 149.019ZM246.741 146.489C246.595 146.635 246.521 146.822 246.521 147.049C246.521 147.275 246.595 147.465 246.741 147.619C246.888 147.765 247.071 147.839 247.291 147.839C247.511 147.839 247.695 147.765 247.841 147.619C247.988 147.465 248.061 147.275 248.061 147.049C248.061 146.822 247.988 146.635 247.841 146.489C247.695 146.342 247.511 146.269 247.291 146.269C247.071 146.269 246.888 146.342 246.741 146.489ZM245.691 147.049C245.691 146.615 245.848 146.245 246.161 145.939C246.481 145.632 246.858 145.479 247.291 145.479C247.725 145.479 248.101 145.632 248.421 145.939C248.741 146.245 248.901 146.615 248.901 147.049C248.901 147.489 248.741 147.862 248.421 148.169C248.101 148.475 247.725 148.629 247.291 148.629C246.858 148.629 246.481 148.475 246.161 148.169C245.848 147.862 245.691 147.489 245.691 147.049ZM250.701 149.969C250.555 150.115 250.481 150.302 250.481 150.529C250.481 150.755 250.555 150.945 250.701 151.099C250.848 151.245 251.031 151.319 251.251 151.319C251.471 151.319 251.655 151.245 251.801 151.099C251.948 150.945 252.021 150.755 252.021 150.529C252.021 150.302 251.948 150.115 251.801 149.969C251.655 149.822 251.471 149.749 251.251 149.749C251.031 149.749 250.848 149.822 250.701 149.969ZM249.651 150.529C249.651 150.095 249.808 149.725 250.121 149.419C250.441 149.112 250.818 148.959 251.251 148.959C251.685 148.959 252.061 149.112 252.381 149.419C252.701 149.725 252.861 150.095 252.861 150.529C252.861 150.969 252.701 151.342 252.381 151.649C252.061 151.955 251.685 152.109 251.251 152.109C250.818 152.109 250.441 151.955 250.121 151.649C249.808 151.342 249.651 150.969 249.651 150.529ZM247.411 152.029H246.491L251.151 145.549H252.051L247.411 152.029ZM259.385 152.179C258.418 152.179 257.588 151.845 256.895 151.179C256.208 150.512 255.865 149.612 255.865 148.479C255.865 147.719 256.038 147.052 256.385 146.479C256.732 145.905 257.168 145.482 257.695 145.209C258.222 144.929 258.785 144.789 259.385 144.789C260.185 144.789 260.858 144.992 261.405 145.399C261.958 145.799 262.325 146.345 262.505 147.039L261.595 147.359C261.462 146.825 261.205 146.415 260.825 146.129C260.445 145.835 259.965 145.689 259.385 145.689C258.692 145.689 258.098 145.935 257.605 146.429C257.112 146.915 256.865 147.599 256.865 148.479C256.865 149.359 257.112 150.045 257.605 150.539C258.098 151.032 258.692 151.279 259.385 151.279C259.965 151.279 260.448 151.125 260.835 150.819C261.222 150.505 261.492 150.092 261.645 149.579L262.515 149.899C262.322 150.585 261.948 151.139 261.395 151.559C260.848 151.972 260.178 152.179 259.385 152.179ZM268.33 152.029L267.56 150.049H264.42L263.67 152.029H262.62L265.44 144.939H266.57L269.39 152.029H268.33ZM265.98 145.959L264.77 149.139H267.21L265.98 145.959ZM276.079 152.029H275.289L275.199 151.029C275.025 151.342 274.742 151.612 274.349 151.839C273.955 152.065 273.482 152.179 272.929 152.179C272.322 152.179 271.762 152.042 271.249 151.769C270.735 151.489 270.312 151.062 269.979 150.489C269.652 149.915 269.489 149.245 269.489 148.479C269.489 147.712 269.662 147.042 270.009 146.469C270.355 145.895 270.789 145.472 271.309 145.199C271.835 144.925 272.399 144.789 272.999 144.789C273.759 144.789 274.419 144.985 274.979 145.379C275.545 145.765 275.932 146.282 276.139 146.929L275.249 147.309C275.089 146.795 274.809 146.399 274.409 146.119C274.015 145.832 273.545 145.689 272.999 145.689C272.312 145.689 271.722 145.932 271.229 146.419C270.735 146.905 270.489 147.592 270.489 148.479C270.489 149.372 270.729 150.065 271.209 150.559C271.695 151.045 272.279 151.289 272.959 151.289C273.332 151.289 273.662 151.229 273.949 151.109C274.242 150.989 274.469 150.832 274.629 150.639C274.795 150.439 274.919 150.239 274.999 150.039C275.085 149.839 275.135 149.639 275.149 149.439H272.689V148.559H276.079V152.029ZM281.055 152.029L279.435 149.129H278.375V152.029H277.385V144.939H280.055C280.708 144.939 281.232 145.142 281.625 145.549C282.025 145.949 282.225 146.449 282.225 147.049C282.225 147.562 282.072 148.002 281.765 148.369C281.458 148.729 281.038 148.959 280.505 149.059L282.195 152.029H281.055ZM278.375 148.249H279.875C280.275 148.249 280.598 148.142 280.845 147.929C281.092 147.709 281.215 147.415 281.215 147.049C281.215 146.675 281.092 146.379 280.845 146.159C280.598 145.932 280.275 145.819 279.875 145.819H278.375V148.249Z" fill="white"/>
<path d="M131.121 259.034H130.161V254.464H128.591V253.774C129.031 253.768 129.401 253.654 129.701 253.434C130.001 253.208 130.187 252.914 130.261 252.554H131.121V259.034ZM133.755 253.694C133.375 254.094 133.185 254.794 133.185 255.794C133.185 256.794 133.375 257.494 133.755 257.894C134.022 258.174 134.365 258.314 134.785 258.314C135.205 258.314 135.548 258.174 135.815 257.894C136.195 257.494 136.385 256.794 136.385 255.794C136.385 254.794 136.195 254.094 135.815 253.694C135.548 253.414 135.205 253.274 134.785 253.274C134.365 253.274 134.022 253.414 133.755 253.694ZM132.795 258.144C132.408 257.571 132.215 256.788 132.215 255.794C132.215 254.801 132.408 254.018 132.795 253.444C133.255 252.751 133.918 252.404 134.785 252.404C135.652 252.404 136.315 252.751 136.775 253.444C137.162 254.018 137.355 254.801 137.355 255.794C137.355 256.788 137.162 257.571 136.775 258.144C136.315 258.838 135.652 259.184 134.785 259.184C133.918 259.184 133.255 258.838 132.795 258.144ZM139.068 254.884L138.088 254.764C138.081 254.704 138.078 254.618 138.078 254.504C138.078 253.924 138.281 253.431 138.688 253.024C139.094 252.611 139.638 252.404 140.318 252.404C140.991 252.404 141.524 252.598 141.918 252.984C142.311 253.364 142.508 253.834 142.508 254.394C142.508 255.214 142.101 255.881 141.288 256.394L140.008 257.214C139.548 257.508 139.284 257.811 139.218 258.124H142.548V259.034H138.008C138.021 258.488 138.144 258.008 138.378 257.594C138.618 257.181 139.008 256.801 139.548 256.454L140.628 255.754C141.221 255.374 141.518 254.924 141.518 254.404C141.518 254.084 141.411 253.814 141.198 253.594C140.984 253.374 140.684 253.264 140.298 253.264C139.891 253.264 139.581 253.388 139.368 253.634C139.154 253.881 139.048 254.201 139.048 254.594C139.048 254.654 139.054 254.751 139.068 254.884ZM144.351 253.494C144.204 253.641 144.131 253.828 144.131 254.054C144.131 254.281 144.204 254.471 144.351 254.624C144.497 254.771 144.681 254.844 144.901 254.844C145.121 254.844 145.304 254.771 145.451 254.624C145.597 254.471 145.671 254.281 145.671 254.054C145.671 253.828 145.597 253.641 145.451 253.494C145.304 253.348 145.121 253.274 144.901 253.274C144.681 253.274 144.497 253.348 144.351 253.494ZM143.301 254.054C143.301 253.621 143.457 253.251 143.771 252.944C144.091 252.638 144.467 252.484 144.901 252.484C145.334 252.484 145.711 252.638 146.031 252.944C146.351 253.251 146.511 253.621 146.511 254.054C146.511 254.494 146.351 254.868 146.031 255.174C145.711 255.481 145.334 255.634 144.901 255.634C144.467 255.634 144.091 255.481 143.771 255.174C143.457 254.868 143.301 254.494 143.301 254.054ZM148.311 256.974C148.164 257.121 148.091 257.308 148.091 257.534C148.091 257.761 148.164 257.951 148.311 258.104C148.457 258.251 148.641 258.324 148.861 258.324C149.081 258.324 149.264 258.251 149.411 258.104C149.557 257.951 149.631 257.761 149.631 257.534C149.631 257.308 149.557 257.121 149.411 256.974C149.264 256.828 149.081 256.754 148.861 256.754C148.641 256.754 148.457 256.828 148.311 256.974ZM147.261 257.534C147.261 257.101 147.417 256.731 147.731 256.424C148.051 256.118 148.427 255.964 148.861 255.964C149.294 255.964 149.671 256.118 149.991 256.424C150.311 256.731 150.471 257.101 150.471 257.534C150.471 257.974 150.311 258.348 149.991 258.654C149.671 258.961 149.294 259.114 148.861 259.114C148.427 259.114 148.051 258.961 147.731 258.654C147.417 258.348 147.261 257.974 147.261 257.534ZM145.021 259.034H144.101L148.761 252.554H149.661L145.021 259.034ZM156.994 259.184C156.028 259.184 155.198 258.851 154.504 258.184C153.818 257.518 153.474 256.618 153.474 255.484C153.474 254.724 153.648 254.058 153.994 253.484C154.341 252.911 154.778 252.488 155.304 252.214C155.831 251.934 156.394 251.794 156.994 251.794C157.794 251.794 158.468 251.998 159.014 252.404C159.568 252.804 159.934 253.351 160.114 254.044L159.204 254.364C159.071 253.831 158.814 253.421 158.434 253.134C158.054 252.841 157.574 252.694 156.994 252.694C156.301 252.694 155.708 252.941 155.214 253.434C154.721 253.921 154.474 254.604 154.474 255.484C154.474 256.364 154.721 257.051 155.214 257.544C155.708 258.038 156.301 258.284 156.994 258.284C157.574 258.284 158.058 258.131 158.444 257.824C158.831 257.511 159.101 257.098 159.254 256.584L160.124 256.904C159.931 257.591 159.558 258.144 159.004 258.564C158.458 258.978 157.788 259.184 156.994 259.184ZM165.939 259.034L165.169 257.054H162.029L161.279 259.034H160.229L163.049 251.944H164.179L166.999 259.034H165.939ZM163.589 252.964L162.379 256.144H164.819L163.589 252.964ZM173.688 259.034H172.898L172.808 258.034C172.635 258.348 172.351 258.618 171.958 258.844C171.565 259.071 171.091 259.184 170.538 259.184C169.931 259.184 169.371 259.048 168.858 258.774C168.345 258.494 167.921 258.068 167.588 257.494C167.261 256.921 167.098 256.251 167.098 255.484C167.098 254.718 167.271 254.048 167.618 253.474C167.965 252.901 168.398 252.478 168.918 252.204C169.445 251.931 170.008 251.794 170.608 251.794C171.368 251.794 172.028 251.991 172.588 252.384C173.155 252.771 173.541 253.288 173.748 253.934L172.858 254.314C172.698 253.801 172.418 253.404 172.018 253.124C171.625 252.838 171.155 252.694 170.608 252.694C169.921 252.694 169.331 252.938 168.838 253.424C168.345 253.911 168.098 254.598 168.098 255.484C168.098 256.378 168.338 257.071 168.818 257.564C169.305 258.051 169.888 258.294 170.568 258.294C170.941 258.294 171.271 258.234 171.558 258.114C171.851 257.994 172.078 257.838 172.238 257.644C172.405 257.444 172.528 257.244 172.608 257.044C172.695 256.844 172.745 256.644 172.758 256.444H170.298V255.564H173.688V259.034ZM178.664 259.034L177.044 256.134H175.984V259.034H174.994V251.944H177.664C178.318 251.944 178.841 252.148 179.234 252.554C179.634 252.954 179.834 253.454 179.834 254.054C179.834 254.568 179.681 255.008 179.374 255.374C179.068 255.734 178.648 255.964 178.114 256.064L179.804 259.034H178.664ZM175.984 255.254H177.484C177.884 255.254 178.208 255.148 178.454 254.934C178.701 254.714 178.824 254.421 178.824 254.054C178.824 253.681 178.701 253.384 178.454 253.164C178.208 252.938 177.884 252.824 177.484 252.824H175.984V255.254Z" fill="white"/>
<rect x="108.341" y="266.889" width="40" height="25" rx="12.5" fill="white" fill-opacity="0.17"/>
<path d="M120.493 285.293H119.557V284.045C118.781 283.965 118.169 283.697 117.721 283.241C117.273 282.777 117.013 282.253 116.941 281.669L118.081 281.309C118.121 281.725 118.265 282.089 118.513 282.401C118.761 282.713 119.109 282.909 119.557 282.989V280.481L119.257 280.421C118.633 280.293 118.145 280.041 117.793 279.665C117.441 279.289 117.265 278.813 117.265 278.237C117.265 277.661 117.477 277.157 117.901 276.725C118.333 276.293 118.885 276.037 119.557 275.957V274.697H120.493V275.969C121.157 276.057 121.665 276.289 122.017 276.665C122.377 277.033 122.617 277.453 122.737 277.925L121.657 278.321C121.617 278.057 121.497 277.801 121.297 277.553C121.097 277.305 120.829 277.133 120.493 277.037V279.497L120.673 279.533C121.329 279.661 121.849 279.929 122.233 280.337C122.617 280.745 122.809 281.221 122.809 281.765C122.809 282.333 122.605 282.833 122.197 283.265C121.789 283.697 121.221 283.957 120.493 284.045V285.293ZM121.633 281.825C121.633 281.561 121.537 281.325 121.345 281.117C121.153 280.909 120.869 280.761 120.493 280.673V282.989C120.869 282.917 121.153 282.777 121.345 282.569C121.537 282.361 121.633 282.113 121.633 281.825ZM118.453 278.189C118.453 278.773 118.821 279.137 119.557 279.281V277.001C119.213 277.065 118.941 277.205 118.741 277.421C118.549 277.637 118.453 277.893 118.453 278.189ZM126.614 283.889H125.462V278.405H123.578V277.577C124.106 277.569 124.55 277.433 124.91 277.169C125.27 276.897 125.494 276.545 125.582 276.113H126.614V283.889ZM133.103 276.113V277.241C132.903 277.401 132.707 277.573 132.515 277.757C132.323 277.941 132.067 278.237 131.747 278.645C131.435 279.053 131.159 279.485 130.919 279.941C130.679 280.397 130.451 280.977 130.235 281.681C130.027 282.377 129.887 283.113 129.815 283.889H128.603C128.651 283.273 128.747 282.677 128.891 282.101C129.035 281.517 129.203 281.009 129.395 280.577C129.587 280.145 129.791 279.741 130.007 279.365C130.231 278.981 130.447 278.661 130.655 278.405C130.871 278.141 131.063 277.917 131.231 277.733C131.407 277.549 131.547 277.413 131.651 277.325L131.807 277.193H127.427V276.113H133.103ZM134.047 275.381H136.819C137.611 275.381 138.235 275.593 138.691 276.017C139.155 276.441 139.387 276.997 139.387 277.685C139.387 278.125 139.271 278.505 139.039 278.825C138.807 279.145 138.499 279.377 138.115 279.521C138.587 279.641 138.959 279.893 139.231 280.277C139.511 280.653 139.651 281.085 139.651 281.573C139.651 282.245 139.407 282.801 138.919 283.241C138.431 283.673 137.799 283.889 137.023 283.889H134.047V275.381ZM135.223 279.101H136.687C137.151 279.101 137.519 278.977 137.791 278.729C138.063 278.473 138.199 278.145 138.199 277.745C138.199 277.337 138.059 277.013 137.779 276.773C137.499 276.533 137.119 276.413 136.639 276.413H135.223V279.101ZM135.223 282.857H136.855C137.335 282.857 137.719 282.733 138.007 282.485C138.303 282.237 138.451 281.909 138.451 281.501C138.451 281.077 138.319 280.741 138.055 280.493C137.791 280.237 137.407 280.109 136.903 280.109H135.223V282.857Z" fill="white"/>
<rect x="222.079" y="225.169" width="40" height="25" rx="12.5" fill="white" fill-opacity="0.17"/>
<path d="M234.231 243.573H233.295V242.325C232.519 242.245 231.907 241.977 231.459 241.521C231.011 241.057 230.751 240.533 230.679 239.949L231.819 239.589C231.859 240.005 232.003 240.369 232.251 240.681C232.499 240.993 232.847 241.189 233.295 241.269V238.761L232.995 238.701C232.371 238.573 231.883 238.321 231.531 237.945C231.179 237.569 231.003 237.093 231.003 236.517C231.003 235.941 231.215 235.437 231.639 235.005C232.071 234.573 232.623 234.317 233.295 234.237V232.977H234.231V234.249C234.895 234.337 235.403 234.569 235.755 234.945C236.115 235.313 236.355 235.733 236.475 236.205L235.395 236.601C235.355 236.337 235.235 236.081 235.035 235.833C234.835 235.585 234.567 235.413 234.231 235.317V237.777L234.411 237.813C235.067 237.941 235.587 238.209 235.971 238.617C236.355 239.025 236.547 239.501 236.547 240.045C236.547 240.613 236.343 241.113 235.935 241.545C235.527 241.977 234.959 242.237 234.231 242.325V243.573ZM235.371 240.105C235.371 239.841 235.275 239.605 235.083 239.397C234.891 239.189 234.607 239.041 234.231 238.953V241.269C234.607 241.197 234.891 241.057 235.083 240.849C235.275 240.641 235.371 240.393 235.371 240.105ZM232.191 236.469C232.191 237.053 232.559 237.417 233.295 237.561V235.281C232.951 235.345 232.679 235.485 232.479 235.701C232.287 235.917 232.191 236.173 232.191 236.469ZM240.352 242.169H239.2V236.685H237.316V235.857C237.844 235.849 238.288 235.713 238.648 235.449C239.008 235.177 239.232 234.825 239.32 234.393H240.352V242.169ZM246.841 234.393V235.521C246.641 235.681 246.445 235.853 246.253 236.037C246.061 236.221 245.805 236.517 245.485 236.925C245.173 237.333 244.897 237.765 244.657 238.221C244.417 238.677 244.189 239.257 243.973 239.961C243.765 240.657 243.625 241.393 243.553 242.169H242.341C242.389 241.553 242.485 240.957 242.629 240.381C242.773 239.797 242.941 239.289 243.133 238.857C243.325 238.425 243.529 238.021 243.745 237.645C243.969 237.261 244.185 236.941 244.393 236.685C244.609 236.421 244.801 236.197 244.969 236.013C245.145 235.829 245.285 235.693 245.389 235.605L245.545 235.473H241.165V234.393H246.841ZM247.786 233.661H250.558C251.35 233.661 251.974 233.873 252.43 234.297C252.894 234.721 253.126 235.277 253.126 235.965C253.126 236.405 253.01 236.785 252.778 237.105C252.546 237.425 252.238 237.657 251.854 237.801C252.326 237.921 252.698 238.173 252.97 238.557C253.25 238.933 253.39 239.365 253.39 239.853C253.39 240.525 253.146 241.081 252.658 241.521C252.17 241.953 251.538 242.169 250.762 242.169H247.786V233.661ZM248.962 237.381H250.426C250.89 237.381 251.258 237.257 251.53 237.009C251.802 236.753 251.938 236.425 251.938 236.025C251.938 235.617 251.798 235.293 251.518 235.053C251.238 234.813 250.858 234.693 250.378 234.693H248.962V237.381ZM248.962 241.137H250.594C251.074 241.137 251.458 241.013 251.746 240.765C252.042 240.517 252.19 240.189 252.19 239.781C252.19 239.357 252.058 239.021 251.794 238.773C251.53 238.517 251.146 238.389 250.642 238.389H248.962V241.137Z" fill="white"/>
<rect x="354.073" y="29.8887" width="40" height="25" rx="12.5" fill="white" fill-opacity="0.17"/>
<path d="M366.225 48.2927H365.289V47.0447C364.513 46.9647 363.901 46.6967 363.453 46.2407C363.005 45.7767 362.745 45.2527 362.673 44.6687L363.813 44.3087C363.853 44.7247 363.997 45.0887 364.245 45.4007C364.493 45.7127 364.841 45.9087 365.289 45.9887V43.4807L364.989 43.4207C364.365 43.2927 363.877 43.0407 363.525 42.6647C363.173 42.2887 362.997 41.8127 362.997 41.2367C362.997 40.6607 363.209 40.1567 363.633 39.7247C364.065 39.2927 364.617 39.0367 365.289 38.9567V37.6967H366.225V38.9687C366.889 39.0567 367.397 39.2887 367.749 39.6647C368.109 40.0327 368.349 40.4527 368.469 40.9247L367.389 41.3207C367.349 41.0567 367.229 40.8007 367.029 40.5527C366.829 40.3047 366.561 40.1327 366.225 40.0367V42.4967L366.405 42.5327C367.061 42.6607 367.581 42.9287 367.965 43.3367C368.349 43.7447 368.541 44.2207 368.541 44.7647C368.541 45.3327 368.337 45.8327 367.929 46.2647C367.521 46.6967 366.953 46.9567 366.225 47.0447V48.2927ZM367.365 44.8247C367.365 44.5607 367.269 44.3247 367.077 44.1167C366.885 43.9087 366.601 43.7607 366.225 43.6727V45.9887C366.601 45.9167 366.885 45.7767 367.077 45.5687C367.269 45.3607 367.365 45.1127 367.365 44.8247ZM364.185 41.1887C364.185 41.7727 364.553 42.1367 365.289 42.2807V40.0007C364.945 40.0647 364.673 40.2047 364.473 40.4207C364.281 40.6367 364.185 40.8927 364.185 41.1887ZM372.346 46.8887H371.194V41.4047H369.31V40.5767C369.838 40.5687 370.282 40.4327 370.642 40.1687C371.002 39.8967 371.226 39.5447 371.314 39.1127H372.346V46.8887ZM378.835 39.1127V40.2407C378.635 40.4007 378.439 40.5727 378.247 40.7567C378.055 40.9407 377.799 41.2367 377.479 41.6447C377.167 42.0527 376.891 42.4847 376.651 42.9407C376.411 43.3967 376.183 43.9767 375.967 44.6807C375.759 45.3767 375.619 46.1127 375.547 46.8887H374.335C374.383 46.2727 374.479 45.6767 374.623 45.1007C374.767 44.5167 374.935 44.0087 375.127 43.5767C375.319 43.1447 375.523 42.7407 375.739 42.3647C375.963 41.9807 376.179 41.6607 376.387 41.4047C376.603 41.1407 376.795 40.9167 376.963 40.7327C377.139 40.5487 377.279 40.4127 377.383 40.3247L377.539 40.1927H373.159V39.1127H378.835ZM379.78 38.3807H382.552C383.344 38.3807 383.968 38.5927 384.424 39.0167C384.888 39.4407 385.12 39.9967 385.12 40.6847C385.12 41.1247 385.004 41.5047 384.772 41.8247C384.54 42.1447 384.232 42.3767 383.848 42.5207C384.32 42.6407 384.692 42.8927 384.964 43.2767C385.244 43.6527 385.384 44.0847 385.384 44.5727C385.384 45.2447 385.14 45.8007 384.652 46.2407C384.164 46.6727 383.532 46.8887 382.756 46.8887H379.78V38.3807ZM380.956 42.1007H382.42C382.884 42.1007 383.252 41.9767 383.524 41.7287C383.796 41.4727 383.932 41.1447 383.932 40.7447C383.932 40.3367 383.792 40.0127 383.512 39.7727C383.232 39.5327 382.852 39.4127 382.372 39.4127H380.956V42.1007ZM380.956 45.8567H382.588C383.068 45.8567 383.452 45.7327 383.74 45.4847C384.036 45.2367 384.184 44.9087 384.184 44.5007C384.184 44.0767 384.052 43.7407 383.788 43.4927C383.524 43.2367 383.14 43.1087 382.636 43.1087H380.956V45.8567Z" fill="white"/>
<path d="M217.194 257.463L212.462 254.155L211.964 259.907L217.194 257.463ZM168.115 281.315C171.152 277.036 176.924 270.91 184.634 265.948C192.342 260.988 201.957 257.21 212.693 257.574L212.727 256.574C201.732 256.202 191.918 260.071 184.093 265.107C176.271 270.141 170.407 276.358 167.3 280.736L168.115 281.315Z" fill="white" fill-opacity="0.3"/>
<path d="M331.707 95.8962L325.938 95.6569L328.615 100.772L331.707 95.8962ZM264.03 252.201C272.391 206.196 282.027 171.486 292.76 146.399C303.498 121.301 315.308 105.897 327.976 98.4124L327.467 97.5515C314.529 105.195 302.611 120.832 291.841 146.006C281.066 171.19 271.414 205.981 263.047 252.022L264.03 252.201Z" fill="white" fill-opacity="0.3"/>
<rect x="25.0127" y="361.418" width="7.94141" height="7.94141" rx="3.9707" fill="#FF7B6C"/>
<path d="M43.9261 369.889L43.0021 367.513H39.2341L38.3341 369.889H37.0741L40.4581 361.381H41.8141L45.1981 369.889H43.9261ZM41.1061 362.605L39.6541 366.421H42.5821L41.1061 362.605ZM47.4013 369.889H46.2013V361.381H47.4013V369.889ZM55.8486 370.069C54.6886 370.069 53.6926 369.669 52.8606 368.869C52.0366 368.069 51.6246 366.989 51.6246 365.629C51.6246 364.717 51.8326 363.917 52.2486 363.229C52.6646 362.541 53.1886 362.033 53.8206 361.705C54.4526 361.369 55.1286 361.201 55.8486 361.201C56.8086 361.201 57.6166 361.445 58.2726 361.933C58.9366 362.413 59.3766 363.069 59.5926 363.901L58.5006 364.285C58.3406 363.645 58.0326 363.153 57.5766 362.809C57.1206 362.457 56.5446 362.281 55.8486 362.281C55.0166 362.281 54.3046 362.577 53.7126 363.169C53.1206 363.753 52.8246 364.573 52.8246 365.629C52.8246 366.685 53.1206 367.509 53.7126 368.101C54.3046 368.693 55.0166 368.989 55.8486 368.989C56.5446 368.989 57.1246 368.805 57.5886 368.437C58.0526 368.061 58.3766 367.565 58.5606 366.949L59.6046 367.333C59.3726 368.157 58.9246 368.821 58.2606 369.325C57.6046 369.821 56.8006 370.069 55.8486 370.069ZM61.7982 368.521C62.1502 368.881 62.5782 369.061 63.0822 369.061C63.5862 369.061 64.0102 368.881 64.3542 368.521C64.7062 368.153 64.8822 367.645 64.8822 366.997C64.8822 366.357 64.7062 365.857 64.3542 365.497C64.0102 365.129 63.5862 364.945 63.0822 364.945C62.5782 364.945 62.1502 365.129 61.7982 365.497C61.4542 365.857 61.2822 366.357 61.2822 366.997C61.2822 367.645 61.4542 368.153 61.7982 368.521ZM60.9582 364.813C61.5182 364.229 62.2262 363.937 63.0822 363.937C63.9382 363.937 64.6422 364.229 65.1942 364.813C65.7542 365.389 66.0342 366.117 66.0342 366.997C66.0342 367.885 65.7582 368.621 65.2062 369.205C64.6542 369.781 63.9462 370.069 63.0822 370.069C62.2182 370.069 61.5102 369.781 60.9582 369.205C60.4062 368.621 60.1302 367.885 60.1302 366.997C60.1302 366.117 60.4062 365.389 60.9582 364.813ZM68.3934 369.889H67.2774V364.117H68.3574V364.885C68.5334 364.581 68.7814 364.349 69.1014 364.189C69.4214 364.029 69.7574 363.949 70.1094 363.949C70.4854 363.949 70.8294 364.041 71.1414 364.225C71.4534 364.409 71.6854 364.681 71.8374 365.041C72.2374 364.313 72.8814 363.949 73.7694 363.949C74.3214 363.949 74.7894 364.137 75.1734 364.513C75.5654 364.889 75.7614 365.433 75.7614 366.145V369.889H74.6454V366.265C74.6454 365.865 74.5414 365.545 74.3334 365.305C74.1334 365.065 73.8294 364.945 73.4214 364.945C73.0294 364.945 72.7094 365.085 72.4614 365.365C72.2134 365.637 72.0894 365.981 72.0894 366.397V369.889H70.9614V366.265C70.9614 365.865 70.8574 365.545 70.6494 365.305C70.4494 365.065 70.1454 364.945 69.7374 364.945C69.3374 364.945 69.0134 365.081 68.7654 365.353C68.5174 365.625 68.3934 365.977 68.3934 366.409V369.889ZM78.4824 372.169H77.3664V364.117H78.4584V365.017C78.6264 364.713 78.8784 364.465 79.2144 364.273C79.5504 364.081 79.9424 363.985 80.3904 363.985C81.2224 363.985 81.8704 364.269 82.3344 364.837C82.8064 365.405 83.0424 366.125 83.0424 366.997C83.0424 367.877 82.7984 368.605 82.3104 369.181C81.8304 369.757 81.1784 370.045 80.3544 370.045C79.9304 370.045 79.5544 369.957 79.2264 369.781C78.8984 369.605 78.6504 369.381 78.4824 369.109V372.169ZM81.8904 366.997C81.8904 366.413 81.7344 365.933 81.4224 365.557C81.1184 365.173 80.7064 364.981 80.1864 364.981C79.6744 364.981 79.2584 365.173 78.9384 365.557C78.6264 365.933 78.4704 366.413 78.4704 366.997C78.4704 367.597 78.6264 368.089 78.9384 368.473C79.2584 368.849 79.6744 369.037 80.1864 369.037C80.6984 369.037 81.1104 368.849 81.4224 368.473C81.7344 368.089 81.8904 367.597 81.8904 366.997ZM88.0251 369.193C87.8731 369.481 87.6411 369.701 87.3291 369.853C87.0171 369.997 86.6811 370.069 86.3211 370.069C85.6651 370.069 85.1411 369.853 84.7491 369.421C84.3571 368.981 84.1611 368.425 84.1611 367.753V364.117H85.2891V367.585C85.2891 368.017 85.3931 368.373 85.6011 368.653C85.8171 368.933 86.1491 369.073 86.5971 369.073C87.0451 369.073 87.3851 368.941 87.6171 368.677C87.8491 368.405 87.9651 368.045 87.9651 367.597V364.117H89.0931V368.821C89.0931 369.197 89.1131 369.553 89.1531 369.889H88.0731C88.0411 369.713 88.0251 369.481 88.0251 369.193ZM92.33 362.293V364.117H93.578V365.137H92.33V368.137C92.33 368.409 92.39 368.609 92.51 368.737C92.638 368.865 92.846 368.929 93.134 368.929C93.302 368.929 93.45 368.913 93.578 368.881V369.841C93.386 369.913 93.13 369.949 92.81 369.949C92.314 369.949 91.922 369.805 91.634 369.517C91.346 369.229 91.202 368.825 91.202 368.305V365.137H90.098V364.117H90.41C90.706 364.117 90.926 364.037 91.07 363.877C91.222 363.709 91.298 363.493 91.298 363.229V362.293H92.33ZM95.557 366.409H98.713C98.697 365.977 98.553 365.625 98.281 365.353C98.009 365.073 97.625 364.933 97.129 364.933C96.681 364.933 96.313 365.081 96.025 365.377C95.737 365.665 95.581 366.009 95.557 366.409ZM98.881 367.909L99.853 368.245C99.685 368.781 99.373 369.221 98.917 369.565C98.461 369.901 97.909 370.069 97.261 370.069C96.453 370.069 95.765 369.793 95.197 369.241C94.637 368.681 94.357 367.929 94.357 366.985C94.357 366.105 94.629 365.377 95.173 364.801C95.717 364.225 96.365 363.937 97.117 363.937C97.989 363.937 98.669 364.213 99.157 364.765C99.645 365.309 99.889 366.041 99.889 366.961C99.889 367.105 99.881 367.225 99.865 367.321H95.521C95.529 367.833 95.697 368.253 96.025 368.581C96.361 368.909 96.773 369.073 97.261 369.073C98.085 369.073 98.625 368.685 98.881 367.909Z" fill="white"/>
<rect x="111.954" y="361.418" width="7.94141" height="7.94141" rx="3.9707" fill="#FFA666"/>
<path d="M130.4 363.313L129.344 363.685C129.288 363.317 129.108 362.985 128.804 362.689C128.5 362.385 128.08 362.233 127.544 362.233C127.072 362.233 126.68 362.369 126.368 362.641C126.056 362.913 125.9 363.249 125.9 363.649C125.9 363.961 125.992 364.225 126.176 364.441C126.368 364.657 126.64 364.805 126.992 364.885L128.264 365.161C128.968 365.313 129.512 365.601 129.896 366.025C130.28 366.441 130.472 366.949 130.472 367.549C130.472 368.237 130.2 368.829 129.656 369.325C129.112 369.821 128.404 370.069 127.532 370.069C126.58 370.069 125.832 369.821 125.288 369.325C124.752 368.821 124.44 368.225 124.352 367.537L125.48 367.177C125.528 367.689 125.728 368.121 126.08 368.473C126.432 368.825 126.912 369.001 127.52 369.001C128.08 369.001 128.512 368.873 128.816 368.617C129.12 368.361 129.272 368.037 129.272 367.645C129.272 367.325 129.164 367.049 128.948 366.817C128.732 366.577 128.416 366.413 128 366.325L126.788 366.061C126.156 365.925 125.652 365.657 125.276 365.257C124.9 364.857 124.712 364.349 124.712 363.733C124.712 363.061 124.984 362.473 125.528 361.969C126.08 361.457 126.744 361.201 127.52 361.201C128.392 361.201 129.06 361.413 129.524 361.837C129.988 362.261 130.28 362.753 130.4 363.313ZM133.164 362.293V364.117H134.412V365.137H133.164V368.137C133.164 368.409 133.224 368.609 133.344 368.737C133.472 368.865 133.68 368.929 133.968 368.929C134.136 368.929 134.284 368.913 134.412 368.881V369.841C134.22 369.913 133.964 369.949 133.644 369.949C133.148 369.949 132.756 369.805 132.468 369.517C132.18 369.229 132.036 368.825 132.036 368.305V365.137H130.932V364.117H131.244C131.54 364.117 131.76 364.037 131.904 363.877C132.056 363.709 132.132 363.493 132.132 363.229V362.293H133.164ZM136.847 368.521C137.199 368.881 137.627 369.061 138.131 369.061C138.635 369.061 139.059 368.881 139.403 368.521C139.755 368.153 139.931 367.645 139.931 366.997C139.931 366.357 139.755 365.857 139.403 365.497C139.059 365.129 138.635 364.945 138.131 364.945C137.627 364.945 137.199 365.129 136.847 365.497C136.503 365.857 136.331 366.357 136.331 366.997C136.331 367.645 136.503 368.153 136.847 368.521ZM136.007 364.813C136.567 364.229 137.275 363.937 138.131 363.937C138.987 363.937 139.691 364.229 140.243 364.813C140.803 365.389 141.083 366.117 141.083 366.997C141.083 367.885 140.807 368.621 140.255 369.205C139.703 369.781 138.995 370.069 138.131 370.069C137.267 370.069 136.559 369.781 136.007 369.205C135.455 368.621 135.179 367.885 135.179 366.997C135.179 366.117 135.455 365.389 136.007 364.813ZM145.53 364.057V365.257C145.362 365.233 145.198 365.221 145.038 365.221C143.982 365.221 143.454 365.813 143.454 366.997V369.889H142.326V364.117H143.43V365.125C143.782 364.389 144.358 364.021 145.158 364.021C145.286 364.021 145.41 364.033 145.53 364.057ZM146.172 368.341C146.172 367.845 146.332 367.449 146.652 367.153C146.972 366.849 147.396 366.661 147.924 366.589L149.484 366.361C149.78 366.321 149.928 366.177 149.928 365.929C149.928 365.625 149.824 365.377 149.616 365.185C149.408 364.993 149.096 364.897 148.68 364.897C148.296 364.897 147.992 365.005 147.768 365.221C147.544 365.429 147.412 365.709 147.372 366.061L146.292 365.809C146.348 365.257 146.6 364.809 147.048 364.465C147.496 364.113 148.032 363.937 148.656 363.937C149.472 363.937 150.076 364.137 150.468 364.537C150.86 364.929 151.056 365.433 151.056 366.049V368.941C151.056 369.285 151.08 369.601 151.128 369.889H150.024C149.984 369.649 149.964 369.389 149.964 369.109C149.804 369.365 149.568 369.589 149.256 369.781C148.952 369.973 148.568 370.069 148.104 370.069C147.536 370.069 147.072 369.901 146.712 369.565C146.352 369.221 146.172 368.813 146.172 368.341ZM148.26 369.121C148.764 369.121 149.168 368.985 149.472 368.713C149.776 368.441 149.928 368.009 149.928 367.417V367.153L148.164 367.417C147.908 367.457 147.704 367.549 147.552 367.693C147.4 367.837 147.324 368.033 147.324 368.281C147.324 368.505 147.408 368.701 147.576 368.869C147.752 369.037 147.98 369.121 148.26 369.121ZM152.193 370.201L153.285 369.949C153.325 370.357 153.489 370.693 153.777 370.957C154.065 371.229 154.425 371.365 154.857 371.365C156.033 371.365 156.621 370.741 156.621 369.493V368.665C156.477 368.945 156.249 369.173 155.937 369.349C155.633 369.525 155.273 369.613 154.857 369.613C154.089 369.613 153.453 369.353 152.949 368.833C152.453 368.305 152.205 367.633 152.205 366.817C152.205 366.025 152.453 365.361 152.949 364.825C153.445 364.281 154.081 364.009 154.857 364.009C155.737 364.009 156.329 364.313 156.633 364.921V364.117H157.749V369.457C157.749 369.841 157.697 370.197 157.593 370.525C157.497 370.861 157.341 371.169 157.125 371.449C156.909 371.729 156.605 371.949 156.213 372.109C155.829 372.269 155.377 372.349 154.857 372.349C154.145 372.349 153.541 372.145 153.045 371.737C152.549 371.337 152.265 370.825 152.193 370.201ZM155.025 368.665C155.513 368.665 155.909 368.497 156.213 368.161C156.517 367.817 156.669 367.369 156.669 366.817C156.669 366.265 156.517 365.821 156.213 365.485C155.909 365.141 155.513 364.969 155.025 364.969C154.529 364.969 154.125 365.137 153.813 365.473C153.509 365.809 153.357 366.257 153.357 366.817C153.357 367.385 153.505 367.837 153.801 368.173C154.105 368.501 154.513 368.665 155.025 368.665ZM160.083 366.409H163.239C163.223 365.977 163.079 365.625 162.807 365.353C162.535 365.073 162.151 364.933 161.655 364.933C161.207 364.933 160.839 365.081 160.551 365.377C160.263 365.665 160.107 366.009 160.083 366.409ZM163.407 367.909L164.379 368.245C164.211 368.781 163.899 369.221 163.443 369.565C162.987 369.901 162.435 370.069 161.787 370.069C160.979 370.069 160.291 369.793 159.723 369.241C159.163 368.681 158.883 367.929 158.883 366.985C158.883 366.105 159.155 365.377 159.699 364.801C160.243 364.225 160.891 363.937 161.643 363.937C162.515 363.937 163.195 364.213 163.683 364.765C164.171 365.309 164.415 366.041 164.415 366.961C164.415 367.105 164.407 367.225 164.391 367.321H160.047C160.055 367.833 160.223 368.253 160.551 368.581C160.887 368.909 161.299 369.073 161.787 369.073C162.611 369.073 163.151 368.685 163.407 367.909Z" fill="white"/>
<rect x="175.896" y="361.418" width="7.94141" height="7.94141" rx="3.9707" fill="#FFD1B0"/>
<path d="M195.913 369.889H194.689L190.093 362.953V369.889H188.917V361.381H190.489L194.737 367.909V361.381H195.913V369.889ZM198.481 366.409H201.637C201.621 365.977 201.477 365.625 201.205 365.353C200.933 365.073 200.549 364.933 200.053 364.933C199.605 364.933 199.237 365.081 198.949 365.377C198.661 365.665 198.505 366.009 198.481 366.409ZM201.805 367.909L202.777 368.245C202.609 368.781 202.297 369.221 201.841 369.565C201.385 369.901 200.833 370.069 200.185 370.069C199.377 370.069 198.689 369.793 198.121 369.241C197.561 368.681 197.281 367.929 197.281 366.985C197.281 366.105 197.553 365.377 198.097 364.801C198.641 364.225 199.289 363.937 200.041 363.937C200.913 363.937 201.593 364.213 202.081 364.765C202.569 365.309 202.813 366.041 202.813 366.961C202.813 367.105 202.805 367.225 202.789 367.321H198.445C198.453 367.833 198.621 368.253 198.949 368.581C199.285 368.909 199.697 369.073 200.185 369.073C201.009 369.073 201.549 368.685 201.805 367.909ZM205.565 362.293V364.117H206.813V365.137H205.565V368.137C205.565 368.409 205.625 368.609 205.745 368.737C205.873 368.865 206.081 368.929 206.369 368.929C206.537 368.929 206.685 368.913 206.813 368.881V369.841C206.621 369.913 206.365 369.949 206.045 369.949C205.549 369.949 205.157 369.805 204.869 369.517C204.581 369.229 204.437 368.825 204.437 368.305V365.137H203.333V364.117H203.645C203.941 364.117 204.161 364.037 204.305 363.877C204.457 363.709 204.533 363.493 204.533 363.229V362.293H205.565ZM211.488 364.117H212.652L214.152 368.461L215.424 364.117H216.612L214.74 369.889H213.576L212.04 365.497L210.54 369.889H209.352L207.456 364.117H208.692L209.988 368.461L211.488 364.117ZM218.622 368.521C218.974 368.881 219.402 369.061 219.906 369.061C220.41 369.061 220.834 368.881 221.178 368.521C221.53 368.153 221.706 367.645 221.706 366.997C221.706 366.357 221.53 365.857 221.178 365.497C220.834 365.129 220.41 364.945 219.906 364.945C219.402 364.945 218.974 365.129 218.622 365.497C218.278 365.857 218.106 366.357 218.106 366.997C218.106 367.645 218.278 368.153 218.622 368.521ZM217.782 364.813C218.342 364.229 219.05 363.937 219.906 363.937C220.762 363.937 221.466 364.229 222.018 364.813C222.578 365.389 222.858 366.117 222.858 366.997C222.858 367.885 222.582 368.621 222.03 369.205C221.478 369.781 220.77 370.069 219.906 370.069C219.042 370.069 218.334 369.781 217.782 369.205C217.23 368.621 216.954 367.885 216.954 366.997C216.954 366.117 217.23 365.389 217.782 364.813ZM227.306 364.057V365.257C227.138 365.233 226.974 365.221 226.814 365.221C225.758 365.221 225.23 365.813 225.23 366.997V369.889H224.102V364.117H225.206V365.125C225.558 364.389 226.134 364.021 226.934 364.021C227.062 364.021 227.186 364.033 227.306 364.057ZM233.48 364.117L231.02 366.553L233.528 369.889H232.112L230.228 367.345L229.424 368.149V369.889H228.308V361.201H229.424V366.673L231.92 364.117H233.48Z" fill="white"/>
<rect x="244.837" y="361.418" width="7.94141" height="7.94141" rx="3.9707" fill="white"/>
<path d="M259.418 363.169C258.818 363.753 258.518 364.573 258.518 365.629C258.518 366.685 258.818 367.509 259.418 368.101C260.018 368.693 260.742 368.989 261.59 368.989C262.438 368.989 263.162 368.693 263.762 368.101C264.362 367.509 264.662 366.685 264.662 365.629C264.662 364.573 264.362 363.753 263.762 363.169C263.162 362.577 262.438 362.281 261.59 362.281C260.742 362.281 260.018 362.577 259.418 363.169ZM257.318 365.629C257.318 364.941 257.438 364.313 257.678 363.745C257.926 363.177 258.25 362.713 258.65 362.353C259.058 361.985 259.514 361.701 260.018 361.501C260.522 361.301 261.046 361.201 261.59 361.201C262.134 361.201 262.658 361.301 263.162 361.501C263.666 361.701 264.118 361.985 264.518 362.353C264.926 362.713 265.25 363.177 265.49 363.745C265.738 364.313 265.862 364.941 265.862 365.629C265.862 366.541 265.65 367.341 265.226 368.029C264.81 368.717 264.282 369.229 263.642 369.565C263.002 369.901 262.318 370.069 261.59 370.069C260.862 370.069 260.178 369.901 259.538 369.565C258.898 369.229 258.366 368.717 257.942 368.029C257.526 367.341 257.318 366.541 257.318 365.629ZM272.103 364.117L269.799 369.889H268.659L266.319 364.117H267.591L269.235 368.569L270.891 364.117H272.103ZM273.539 366.409H276.695C276.679 365.977 276.535 365.625 276.263 365.353C275.991 365.073 275.607 364.933 275.111 364.933C274.663 364.933 274.295 365.081 274.007 365.377C273.719 365.665 273.563 366.009 273.539 366.409ZM276.863 367.909L277.835 368.245C277.667 368.781 277.355 369.221 276.899 369.565C276.443 369.901 275.891 370.069 275.243 370.069C274.435 370.069 273.747 369.793 273.179 369.241C272.619 368.681 272.339 367.929 272.339 366.985C272.339 366.105 272.611 365.377 273.155 364.801C273.699 364.225 274.347 363.937 275.099 363.937C275.971 363.937 276.651 364.213 277.139 364.765C277.627 365.309 277.871 366.041 277.871 366.961C277.871 367.105 277.863 367.225 277.847 367.321H273.503C273.511 367.833 273.679 368.253 274.007 368.581C274.343 368.909 274.755 369.073 275.243 369.073C276.067 369.073 276.607 368.685 276.863 367.909ZM282.315 364.057V365.257C282.147 365.233 281.983 365.221 281.823 365.221C280.767 365.221 280.239 365.813 280.239 366.997V369.889H279.111V364.117H280.215V365.125C280.567 364.389 281.143 364.021 281.943 364.021C282.071 364.021 282.195 364.033 282.315 364.057ZM284.445 366.493V369.889H283.317V361.201H284.445V364.789C284.829 364.229 285.413 363.949 286.197 363.949C286.861 363.949 287.369 364.161 287.721 364.585C288.081 365.009 288.261 365.557 288.261 366.229V369.889H287.133V366.421C287.133 365.453 286.685 364.969 285.789 364.969C285.373 364.969 285.049 365.113 284.817 365.401C284.585 365.681 284.461 366.045 284.445 366.493ZM290.588 366.409H293.744C293.728 365.977 293.584 365.625 293.312 365.353C293.04 365.073 292.656 364.933 292.16 364.933C291.712 364.933 291.344 365.081 291.056 365.377C290.768 365.665 290.612 366.009 290.588 366.409ZM293.912 367.909L294.884 368.245C294.716 368.781 294.404 369.221 293.948 369.565C293.492 369.901 292.94 370.069 292.292 370.069C291.484 370.069 290.796 369.793 290.228 369.241C289.668 368.681 289.388 367.929 289.388 366.985C289.388 366.105 289.66 365.377 290.204 364.801C290.748 364.225 291.396 363.937 292.148 363.937C293.02 363.937 293.7 364.213 294.188 364.765C294.676 365.309 294.92 366.041 294.92 366.961C294.92 367.105 294.912 367.225 294.896 367.321H290.552C290.56 367.833 290.728 368.253 291.056 368.581C291.392 368.909 291.804 369.073 292.292 369.073C293.116 369.073 293.656 368.685 293.912 367.909ZM295.799 368.341C295.799 367.845 295.959 367.449 296.279 367.153C296.599 366.849 297.023 366.661 297.551 366.589L299.111 366.361C299.407 366.321 299.555 366.177 299.555 365.929C299.555 365.625 299.451 365.377 299.243 365.185C299.035 364.993 298.723 364.897 298.307 364.897C297.923 364.897 297.619 365.005 297.395 365.221C297.171 365.429 297.039 365.709 296.999 366.061L295.919 365.809C295.975 365.257 296.227 364.809 296.675 364.465C297.123 364.113 297.659 363.937 298.283 363.937C299.099 363.937 299.703 364.137 300.095 364.537C300.487 364.929 300.683 365.433 300.683 366.049V368.941C300.683 369.285 300.707 369.601 300.755 369.889H299.651C299.611 369.649 299.591 369.389 299.591 369.109C299.431 369.365 299.195 369.589 298.883 369.781C298.579 369.973 298.195 370.069 297.731 370.069C297.163 370.069 296.699 369.901 296.339 369.565C295.979 369.221 295.799 368.813 295.799 368.341ZM297.887 369.121C298.391 369.121 298.795 368.985 299.099 368.713C299.403 368.441 299.555 368.009 299.555 367.417V367.153L297.791 367.417C297.535 367.457 297.331 367.549 297.179 367.693C297.027 367.837 296.951 368.033 296.951 368.281C296.951 368.505 297.035 368.701 297.203 368.869C297.379 369.037 297.607 369.121 297.887 369.121ZM302.913 366.985C302.913 367.593 303.061 368.089 303.357 368.473C303.661 368.857 304.077 369.049 304.605 369.049C305.109 369.049 305.513 368.853 305.817 368.461C306.121 368.069 306.273 367.569 306.273 366.961C306.273 366.361 306.125 365.877 305.829 365.509C305.533 365.141 305.129 364.957 304.617 364.957C304.105 364.957 303.693 365.145 303.381 365.521C303.069 365.897 302.913 366.385 302.913 366.985ZM306.285 369.109V369.013C306.133 369.309 305.901 369.557 305.589 369.757C305.285 369.949 304.921 370.045 304.497 370.045C303.673 370.045 303.009 369.757 302.505 369.181C302.009 368.597 301.761 367.865 301.761 366.985C301.761 366.145 302.017 365.433 302.529 364.849C303.041 364.257 303.697 363.961 304.497 363.961C304.969 363.961 305.353 364.057 305.649 364.249C305.945 364.433 306.149 364.661 306.261 364.933V361.201H307.377V368.821C307.377 369.213 307.397 369.569 307.437 369.889H306.345C306.305 369.665 306.285 369.405 306.285 369.109Z" fill="white"/>
<defs>
<linearGradient id="paint0_linear_632_1103" x1="230" y1="0.888672" x2="230" y2="399.889" gradientUnits="userSpaceOnUse">
<stop stop-color="white" stop-opacity="0.35"/>
<stop offset="1" stop-color="#FF7C67" stop-opacity="0.57"/>
</linearGradient>
<linearGradient id="paint1_linear_632_1103" x1="208.791" y1="376.609" x2="129.265" y2="157.914" gradientUnits="userSpaceOnUse">
<stop stop-color="#FF7B6C" stop-opacity="0.27"/>
<stop offset="1" stop-color="#FF7B6C" stop-opacity="0"/>
</linearGradient>
<linearGradient id="paint2_linear_632_1103" x1="250" y1="305.029" x2="250" y2="306.029" gradientUnits="userSpaceOnUse">
<stop stop-color="white" stop-opacity="0.18"/>
<stop offset="1" stop-color="white" stop-opacity="0"/>
</linearGradient>
<clipPath id="clip0_632_1103">
<path d="M217.194 271.284C217.194 265.373 221.986 260.581 227.897 260.581H272.667C278.578 260.581 283.369 265.373 283.369 271.284V304.333H217.194V271.284Z" fill="white"/>
</clipPath>
<clipPath id="clip1_632_1103">
<path d="M344.013 76.2736C344.013 70.9036 348.366 66.5503 353.736 66.5503H394.41C399.78 66.5503 404.134 70.9036 404.134 76.2736V304.333H344.013V76.2736Z" fill="white"/>
</clipPath>
</defs>
</svg>
