<svg width="387" height="272" viewBox="0 0 387 272" fill="none" xmlns="http://www.w3.org/2000/svg">
<g filter="url(#filter0_b_632_826)">
<rect y="0.0146484" width="386.667" height="271" rx="18" fill="url(#paint0_linear_632_826)"/>
<rect x="0.5" y="0.514648" width="385.667" height="270" rx="17.5" stroke="white" stroke-opacity="0.04"/>
<path d="M37.016 57.0146H33.944V39.4706H40.688C44.864 39.4946 47.024 41.4626 47.024 44.9426C47.024 47.3906 45.872 49.1666 43.88 49.9106L47.12 57.0146H43.664L40.784 50.4146H37.016V57.0146ZM37.016 42.2066V47.7266H40.688C42.848 47.7266 43.784 46.5506 43.784 44.9426C43.784 43.3586 42.824 42.2066 40.688 42.2066H37.016ZM48.2488 51.0866C48.2488 47.2706 50.5768 44.7986 53.9848 44.7986C57.4408 44.7986 59.5288 47.2706 59.5288 51.0386V51.9266H51.0808C51.1528 53.8226 52.2568 54.8546 54.0328 54.8546C55.4488 54.8546 56.5768 54.1346 56.8648 53.1026H59.5768C59.0728 55.6226 56.8408 57.3266 53.9848 57.3266C50.5528 57.3266 48.2488 54.8546 48.2488 51.0866ZM51.1288 50.0546H56.6248C56.6008 48.2066 55.4728 47.2226 53.8888 47.2226C52.2808 47.2226 51.1528 48.2546 51.1288 50.0546ZM61.8743 62.5106V45.1586H64.5143L64.6823 46.9586C65.4023 45.5906 67.0343 44.7986 68.8343 44.7986C72.1943 44.7986 74.3303 47.2226 74.4023 50.9426C74.4503 54.6386 72.3623 57.3266 68.8583 57.3266C67.0823 57.3266 65.4743 56.6066 64.7303 55.3826V62.5106H61.8743ZM64.8503 51.0866C64.8503 53.2226 66.1463 54.6866 68.1863 54.6866C70.2263 54.6866 71.4503 53.1986 71.4503 51.0866C71.4503 48.9746 70.2263 47.4626 68.1863 47.4626C66.1463 47.4626 64.8503 48.9506 64.8503 51.0866ZM80.9458 57.3266C78.1378 57.3266 76.6018 55.4066 76.6018 52.5746V45.1586H79.5298V51.5426C79.5298 53.9906 80.5618 54.7106 82.0498 54.7106C83.9698 54.7106 84.7858 53.5106 84.7858 51.3746V45.1586H87.7138V57.0146H84.9778L84.7858 55.4786C84.0898 56.5826 82.5538 57.3266 80.9458 57.3266ZM94.6341 57.0146H91.7301V47.5826H89.4501V45.1586H91.7301V41.4626H94.6341V45.1586H96.8901V47.5826H94.6341V57.0146ZM101.946 57.3266C99.4023 57.3266 97.8903 55.8386 97.8903 53.6306C97.8903 51.3266 99.6183 50.0786 102.282 49.8626L105.666 49.5986V49.3346C105.666 47.7026 104.658 47.0786 103.218 47.0786C101.61 47.0786 100.674 47.8226 100.698 49.0466H98.2023C98.1783 46.5026 100.29 44.7986 103.362 44.7986C106.698 44.7986 108.522 46.6706 108.522 49.8146V57.0146H105.954L105.738 55.2626C105.234 56.4866 103.818 57.3266 101.946 57.3266ZM102.906 55.1186C104.154 55.1186 105.69 54.4226 105.69 52.2146V51.5906L103.218 51.8066C101.49 51.9746 100.866 52.5506 100.866 53.5106C100.866 54.5426 101.586 55.1186 102.906 55.1186ZM114.906 57.0146H112.002V47.5826H109.722V45.1586H112.002V41.4626H114.906V45.1586H117.162V47.5826H114.906V57.0146ZM120.367 42.7346C119.383 42.7346 118.639 41.9666 118.639 40.9826C118.639 40.0226 119.383 39.2546 120.367 39.2546C121.327 39.2546 122.119 40.0226 122.119 40.9826C122.119 41.9666 121.327 42.7346 120.367 42.7346ZM118.903 57.0146V45.1586H121.831V57.0146H118.903ZM124.029 51.0626C124.029 47.4146 126.477 44.8226 130.197 44.8226C133.917 44.8226 136.365 47.4146 136.365 51.0626C136.365 54.7106 133.917 57.3026 130.197 57.3026C126.477 57.3026 124.029 54.7106 124.029 51.0626ZM126.981 51.0626C126.981 53.1746 128.253 54.6866 130.197 54.6866C132.141 54.6866 133.413 53.1746 133.413 51.0626C133.413 48.9266 132.141 47.4386 130.197 47.4386C128.253 47.4386 126.981 48.9266 126.981 51.0626ZM141.519 57.0146H138.591V45.1586H141.303L141.543 46.6946C142.311 45.4706 143.727 44.7986 145.335 44.7986C148.431 44.7986 149.823 46.7666 149.823 49.7186V57.0146H146.919V50.4146C146.919 47.8706 145.431 47.4626 144.423 47.4626C143.151 47.4626 141.519 48.1586 141.519 50.6306V57.0146ZM158.353 44.3666C158.353 41.3186 160.753 39.1586 164.377 39.1586C167.833 39.1586 170.041 41.2466 170.185 44.2946H167.161C167.089 42.6626 165.937 41.8706 164.305 41.8706C162.481 41.8706 161.401 42.8306 161.401 44.2466C161.401 45.4466 162.193 46.0706 163.465 46.4066L166.321 47.1506C169.321 47.9426 170.761 49.7666 170.761 52.1186C170.761 55.2386 168.193 57.3266 164.377 57.3266C160.753 57.3266 158.257 55.3346 158.137 52.1906H161.161C161.161 53.6786 162.433 54.5666 164.425 54.5666C166.489 54.5666 167.713 53.6306 167.713 52.2146C167.713 51.0866 166.969 50.4146 165.673 50.0546L162.817 49.2866C159.649 48.4226 158.353 46.5986 158.353 44.3666ZM172.236 51.0626C172.236 47.3426 174.684 44.7986 178.164 44.7986C181.14 44.7986 183.276 46.6706 183.588 49.4546H180.828C180.492 48.0626 179.412 47.3906 178.14 47.3906C176.316 47.3906 175.164 48.7586 175.164 51.0626C175.164 53.3426 176.292 54.7106 178.116 54.7106C179.412 54.7106 180.492 54.0146 180.828 52.6706H183.612C183.252 55.4546 180.996 57.3266 177.924 57.3266C174.588 57.3266 172.236 54.7826 172.236 51.0626ZM184.88 51.0626C184.88 47.4146 187.328 44.8226 191.048 44.8226C194.768 44.8226 197.216 47.4146 197.216 51.0626C197.216 54.7106 194.768 57.3026 191.048 57.3026C187.328 57.3026 184.88 54.7106 184.88 51.0626ZM187.832 51.0626C187.832 53.1746 189.104 54.6866 191.048 54.6866C192.992 54.6866 194.264 53.1746 194.264 51.0626C194.264 48.9266 192.992 47.4386 191.048 47.4386C189.104 47.4386 187.832 48.9266 187.832 51.0626ZM206.953 45.1106V47.6546H205.801C203.689 47.6546 202.465 48.9506 202.465 51.2546V57.0146H199.537V45.1826H202.225L202.393 46.5506C203.113 45.1106 205.153 44.7026 206.953 45.1106ZM207.543 51.0866C207.543 47.2706 209.871 44.7986 213.279 44.7986C216.735 44.7986 218.823 47.2706 218.823 51.0386V51.9266H210.375C210.447 53.8226 211.551 54.8546 213.327 54.8546C214.743 54.8546 215.871 54.1346 216.159 53.1026H218.871C218.367 55.6226 216.135 57.3266 213.279 57.3266C209.847 57.3266 207.543 54.8546 207.543 51.0866ZM210.423 50.0546H215.919C215.895 48.2066 214.767 47.2226 213.183 47.2226C211.575 47.2226 210.447 48.2546 210.423 50.0546Z" fill="white" fill-opacity="0.9"/>
<path d="M311.202 242.401C316.718 243.268 321.932 239.499 322.392 233.934C323.637 218.861 322.389 203.685 318.697 189.018C317.334 183.603 311.574 180.737 306.274 182.494C300.973 184.251 298.146 189.965 299.441 195.397C302.201 206.978 303.182 218.911 302.352 230.787C301.963 236.357 305.686 241.533 311.202 242.401Z" fill="#3EFFB9"/>
<path d="M300.178 167.405C305.211 164.987 307.363 158.924 304.582 154.082C295.286 137.895 282.774 123.737 267.78 112.5C250.084 99.2388 229.451 90.4382 207.631 86.844C185.811 83.2499 163.447 84.9681 142.432 91.8532C124.626 97.6868 108.234 107.084 94.237 119.434C90.05 123.129 90.1442 129.561 94.136 133.466C98.1279 137.37 104.503 137.262 108.736 133.621C120.427 123.566 134.011 115.891 148.727 111.069C166.654 105.196 185.732 103.73 204.345 106.796C222.958 109.862 240.558 117.369 255.654 128.682C268.046 137.969 278.451 149.595 286.299 162.869C289.141 167.675 295.144 169.822 300.178 167.405Z" fill="#FFCB45"/>
<path d="M82.3854 140.438C77.8788 137.141 71.5179 138.103 68.5606 142.84C59.9344 156.656 53.8153 171.917 50.515 187.921C47.2147 203.926 46.7971 220.363 49.254 236.464C50.0963 241.984 55.5575 245.384 61.0008 244.139C66.444 242.894 69.8012 237.474 69.0289 231.943C67.1764 218.679 67.6045 205.171 70.3194 192.005C73.0342 178.84 77.9853 166.264 84.9339 154.815C87.831 150.041 86.8919 143.735 82.3854 140.438Z" fill="#F03D3D"/>
<circle cx="292.58" cy="154.372" r="14.4299" stroke="white" stroke-width="11.7575"/>
<path d="M171.514 164.496H165.798C164.919 161.594 162.808 160.539 160.126 160.539C154.937 160.539 152.431 164.804 152.299 170.168C153.926 167.574 156.916 166.123 160.478 166.123C166.721 166.123 171.602 170.432 171.602 177.291C171.602 184.151 166.765 188.943 159.818 188.943C151.42 188.943 146.935 182.304 146.935 172.542C146.935 161.77 152.387 155.658 160.258 155.658C166.15 155.658 170.503 159.044 171.514 164.496ZM166.106 177.335C166.106 173.202 163.248 170.74 159.818 170.74C156.3 170.74 153.442 173.202 153.442 177.335C153.442 181.556 156.388 183.931 159.774 183.931C163.116 183.931 166.106 181.556 166.106 177.335ZM174.715 179.578C174.715 175.664 177.001 172.411 180.651 171.267C177.881 170.036 176.166 167.398 176.166 164.144C176.166 159 180.387 155.658 186.411 155.658C192.259 155.658 196.568 158.868 196.524 164.188C196.436 167.53 194.721 170.168 191.951 171.267C195.645 172.323 197.975 175.576 197.975 179.578C197.975 185.25 193.182 188.899 186.323 188.899C179.464 188.899 174.715 185.25 174.715 179.578ZM180.959 164.76C180.959 167.31 182.937 169.113 186.323 169.113C189.577 169.113 191.643 167.354 191.643 164.804C191.643 162.121 189.445 160.451 186.323 160.451C183.201 160.451 180.959 162.121 180.959 164.76ZM180.211 178.874C180.211 182.128 182.937 183.931 186.367 183.931C189.797 183.931 192.435 182.128 192.435 178.874C192.435 175.62 189.753 173.862 186.323 173.862C182.981 173.862 180.211 175.576 180.211 178.874ZM216.323 164.188C216.323 169.289 213.597 172.718 209.332 172.806C204.759 173.026 201.813 169.509 201.813 164.188C201.813 159 204.671 155.438 209.068 155.526C213.465 155.438 216.323 158.956 216.323 164.188ZM235.186 156.273L210.739 188.372H205.331L229.778 156.273H235.186ZM205.506 164.188C205.506 167.222 206.869 169.069 209.112 169.113C211.267 169.025 212.586 167.222 212.586 164.188C212.586 161.418 211.486 159.659 209.596 159.395C209.42 159.351 209.244 159.351 209.112 159.351C208.936 159.351 208.716 159.351 208.54 159.395C206.65 159.615 205.506 161.418 205.506 164.188ZM238.748 180.457C238.748 185.734 235.89 189.163 231.405 189.119C227.052 189.163 224.194 185.69 224.194 180.457C224.194 175.313 227.008 171.839 231.317 171.795C235.846 171.663 238.748 175.181 238.748 180.457ZM227.931 180.457C227.931 183.491 229.294 185.338 231.493 185.382C233.647 185.294 234.967 183.491 234.967 180.457C234.967 177.687 233.867 175.928 231.977 175.664C231.801 175.62 231.669 175.62 231.493 175.62H231.405C231.229 175.62 231.097 175.62 230.921 175.664C229.075 175.928 227.931 177.687 227.931 180.457Z" fill="white"/>
<rect x="111" y="204.372" width="71" height="25" rx="12.5" fill="#67D1A1" fill-opacity="0.08"/>
<rect x="111.5" y="204.872" width="70" height="24" rx="12" stroke="#67D1A1" stroke-opacity="0.08"/>
<path d="M120.283 218.336V212.696H121.471V218.3C121.471 219.86 122.575 220.4 123.667 220.4C124.807 220.4 125.851 219.74 125.851 218.3V212.696H127.027V218.336C127.027 220.496 125.419 221.528 123.667 221.528C121.963 221.528 120.283 220.568 120.283 218.336ZM128.826 224V215.504H129.822L129.894 216.56C130.29 215.756 131.118 215.336 132.054 215.336C133.734 215.336 134.766 216.596 134.778 218.396C134.802 220.184 133.794 221.528 132.054 221.528C131.118 221.528 130.314 221.12 129.918 220.376V224H128.826ZM129.99 218.444C129.99 219.644 130.674 220.508 131.826 220.508C132.978 220.508 133.65 219.644 133.65 218.444C133.65 217.232 132.978 216.368 131.826 216.368C130.674 216.368 129.99 217.22 129.99 218.444ZM137.675 221.372H136.559V216.44H135.407V215.504H136.559V213.668H137.675V215.504H138.815V216.44H137.675V221.372ZM140.415 214.064C140.007 214.064 139.707 213.752 139.707 213.344C139.707 212.936 140.007 212.624 140.415 212.624C140.823 212.624 141.135 212.936 141.135 213.344C141.135 213.752 140.823 214.064 140.415 214.064ZM139.863 221.372V215.504H140.991V221.372H139.863ZM143.829 221.384H142.701V215.516H143.709L143.793 216.26C144.117 215.684 144.765 215.348 145.497 215.348C146.457 215.348 147.117 215.792 147.417 216.512C147.705 215.792 148.413 215.348 149.325 215.348C150.669 215.348 151.461 216.176 151.461 217.532V221.384H150.369V217.772C150.369 216.848 149.865 216.332 149.073 216.332C148.221 216.332 147.657 216.932 147.657 217.868V221.384H146.553V217.772C146.553 216.848 146.049 216.332 145.245 216.332C144.405 216.332 143.829 216.932 143.829 217.856V221.384ZM152.698 218.444C152.698 216.548 153.826 215.336 155.47 215.336C157.138 215.336 158.182 216.548 158.182 218.42V218.828H153.79C153.862 219.968 154.522 220.556 155.494 220.556C156.31 220.556 156.97 220.136 157.138 219.536H158.194C157.93 220.736 156.838 221.516 155.482 221.516C153.802 221.516 152.698 220.304 152.698 218.444ZM153.802 218.072H157.066C157.042 216.86 156.358 216.284 155.446 216.284C154.51 216.284 153.838 216.908 153.802 218.072Z" fill="#67D1A1"/>
<path d="M168.552 212.372L173.388 220.736L163.728 220.736L168.552 212.372Z" fill="#67D1A1"/>
<rect x="190" y="204.372" width="85" height="25" rx="12.5" fill="#F03D3D" fill-opacity="0.08"/>
<rect x="190.5" y="204.872" width="84" height="24" rx="12" stroke="#F03D3D" stroke-opacity="0.28"/>
<path d="M201.878 221.372H199.01V212.696H201.878C204.422 212.696 206.174 214.46 206.174 217.04C206.174 219.62 204.446 221.372 201.878 221.372ZM201.794 213.8H200.186V220.28H201.794C203.702 220.28 204.938 218.972 204.938 217.04C204.938 215.108 203.69 213.8 201.794 213.8ZM207.094 218.432C207.094 216.668 208.294 215.348 210.094 215.348C211.894 215.348 213.094 216.668 213.094 218.432C213.094 220.196 211.894 221.516 210.094 221.516C208.294 221.516 207.094 220.196 207.094 218.432ZM208.234 218.432C208.234 219.632 208.966 220.508 210.094 220.508C211.222 220.508 211.954 219.632 211.954 218.432C211.954 217.232 211.222 216.356 210.094 216.356C208.966 216.356 208.234 217.232 208.234 218.432ZM215.489 221.372L213.533 215.504H214.733L215.705 218.552C215.837 218.984 215.957 219.428 216.065 219.884C216.173 219.428 216.317 218.984 216.449 218.552L217.445 215.504H218.585L219.569 218.552C219.653 218.84 219.845 219.524 219.941 219.944C220.025 219.512 220.229 218.852 220.313 218.552L221.297 215.504H222.485L220.469 221.372H219.401L218.345 218.228C218.177 217.652 218.081 217.328 218.009 216.98C217.937 217.328 217.841 217.652 217.649 218.24L216.605 221.372H215.489ZM224.662 221.36H223.534V215.504H224.554L224.674 216.404C225.058 215.72 225.802 215.336 226.618 215.336C228.202 215.336 228.874 216.32 228.874 217.784V221.372H227.746V218.036C227.746 216.668 227.038 216.368 226.33 216.368C225.454 216.368 224.662 216.944 224.662 218.264V221.36ZM232.044 221.372H230.928V216.44H229.776V215.504H230.928V213.668H232.044V215.504H233.184V216.44H232.044V221.372ZM234.785 214.064C234.377 214.064 234.077 213.752 234.077 213.344C234.077 212.936 234.377 212.624 234.785 212.624C235.193 212.624 235.505 212.936 235.505 213.344C235.505 213.752 235.193 214.064 234.785 214.064ZM234.233 221.372V215.504H235.361V221.372H234.233ZM238.198 221.384H237.07V215.516H238.078L238.162 216.26C238.486 215.684 239.134 215.348 239.866 215.348C240.826 215.348 241.486 215.792 241.786 216.512C242.074 215.792 242.782 215.348 243.694 215.348C245.038 215.348 245.83 216.176 245.83 217.532V221.384H244.738V217.772C244.738 216.848 244.234 216.332 243.442 216.332C242.59 216.332 242.026 216.932 242.026 217.868V221.384H240.922V217.772C240.922 216.848 240.418 216.332 239.614 216.332C238.774 216.332 238.198 216.932 238.198 217.856V221.384ZM247.067 218.444C247.067 216.548 248.195 215.336 249.839 215.336C251.507 215.336 252.551 216.548 252.551 218.42V218.828H248.159C248.231 219.968 248.891 220.556 249.863 220.556C250.679 220.556 251.339 220.136 251.507 219.536H252.563C252.299 220.736 251.207 221.516 249.851 221.516C248.171 221.516 247.067 220.304 247.067 218.444ZM248.171 218.072H251.435C251.411 216.86 250.727 216.284 249.815 216.284C248.879 216.284 248.207 216.908 248.171 218.072Z" fill="#FF6969"/>
<path d="M261.54 220.372L257.51 213.402H265.56L261.54 220.372Z" fill="#F03D3D"/>
</g>
<defs>
<filter id="filter0_b_632_826" x="-12" y="-11.9854" width="410.667" height="295" filterUnits="userSpaceOnUse" color-interpolation-filters="sRGB">
<feFlood flood-opacity="0" result="BackgroundImageFix"/>
<feGaussianBlur in="BackgroundImageFix" stdDeviation="6"/>
<feComposite in2="SourceAlpha" operator="in" result="effect1_backgroundBlur_632_826"/>
<feBlend mode="normal" in="SourceGraphic" in2="effect1_backgroundBlur_632_826" result="shape"/>
</filter>
<linearGradient id="paint0_linear_632_826" x1="193.333" y1="0.0146484" x2="308.36" y2="267.982" gradientUnits="userSpaceOnUse">
<stop stop-color="white" stop-opacity="0.12"/>
<stop offset="1" stop-color="white" stop-opacity="0.05"/>
</linearGradient>
</defs>
</svg>
