<svg width="679" height="430" viewBox="0 0 679 430" fill="none" xmlns="http://www.w3.org/2000/svg">
<path d="M65.5945 97.2715H161.31L175.525 136.881H224.607" stroke="url(#paint0_linear_298_1536)" stroke-width="1.64376"/>
<g filter="url(#filter0_f_298_1536)">
<ellipse cx="121.496" cy="97.6925" rx="39.8853" ry="0.420971" fill="white"/>
</g>
<g filter="url(#filter1_f_298_1536)">
<ellipse cx="121.496" cy="97.2715" rx="28.5627" ry="1.28734" fill="white"/>
</g>
<path d="M607.511 194.949H511.795L497.58 234.558H484.726" stroke="url(#paint1_linear_298_1536)" stroke-width="1.64376"/>
<g filter="url(#filter2_f_298_1536)">
<ellipse cx="28.5627" cy="1.28734" rx="28.5627" ry="1.28734" transform="matrix(-1 0 0 1 580.172 193.662)" fill="white"/>
</g>
<path d="M138.571 350.035L234.287 350.035L234.287 321.981L239.295 321.981" stroke="url(#paint2_linear_298_1536)" stroke-width="1.64376"/>
<g filter="url(#filter3_f_298_1536)">
<ellipse cx="39.8853" cy="0.420971" rx="39.8853" ry="0.420971" transform="matrix(1 1.74846e-07 1.74846e-07 -1 154.588 350.035)" fill="white"/>
</g>
<g filter="url(#filter4_f_298_1536)">
<ellipse cx="28.5627" cy="1.28734" rx="28.5627" ry="1.28734" transform="matrix(1 1.74846e-07 1.74846e-07 -1 165.91 351.322)" fill="white"/>
</g>
<path d="M557.174 341.142L485.712 341.142L475.099 301.533L453.85 301.533" stroke="url(#paint3_linear_298_1536)" stroke-width="1.64376"/>
<g filter="url(#filter5_f_298_1536)">
<ellipse cx="536.341" cy="340.721" rx="39.8853" ry="0.420971" transform="rotate(180 536.341 340.721)" fill="white"/>
</g>
<g filter="url(#filter6_f_298_1536)">
<ellipse cx="519.819" cy="341.142" rx="28.5627" ry="1.28734" transform="rotate(180 519.819 341.142)" fill="white"/>
</g>
<path d="M544.022 31.6355L448.306 31.6355L434.091 71.2447L385.009 71.2447" stroke="url(#paint4_linear_298_1536)" stroke-width="1.64376"/>
<g filter="url(#filter7_f_298_1536)">
<ellipse cx="39.8853" cy="0.420971" rx="39.8853" ry="0.420971" transform="matrix(-1 -8.74228e-08 -8.74228e-08 1 528.005 31.6355)" fill="white"/>
</g>
<g filter="url(#filter8_f_298_1536)">
<ellipse cx="28.5627" cy="1.28734" rx="28.5627" ry="1.28734" transform="matrix(-1 -8.74228e-08 -8.74228e-08 1 516.682 30.3484)" fill="white"/>
</g>
<path d="M97.1691 235.844H160.842L170.299 275.454H186.849" stroke="url(#paint5_linear_298_1536)" stroke-width="1.64376"/>
<g filter="url(#filter9_f_298_1536)">
<ellipse cx="134.357" cy="236.265" rx="26.533" ry="0.420971" fill="white"/>
</g>
<g filter="url(#filter10_f_298_1536)">
<ellipse cx="134.357" cy="235.845" rx="19.0008" ry="1.28734" fill="white"/>
</g>
<g filter="url(#filter11_f_298_1536)">
<circle cx="340.944" cy="217.115" r="161.291" stroke="url(#paint6_linear_298_1536)" stroke-width="8.76672"/>
</g>
<circle cx="340.944" cy="217.115" r="164.579" fill="#D9D9D9" fill-opacity="0.01" stroke="url(#paint7_radial_298_1536)" stroke-width="2.19168"/>
<circle cx="340.944" cy="217.115" r="123.186" stroke="url(#paint8_radial_298_1536)" stroke-width="6.57504" stroke-dasharray="92.05 92.05"/>
<circle cx="340.944" cy="217.115" r="144.774" transform="rotate(30 340.944 217.115)" fill="#D9D9D9" fill-opacity="0.01" stroke="url(#paint9_radial_298_1536)" stroke-width="2.19168"/>
<path d="M57.2443 91.6555H47.3119V101.588H57.2443V91.6555Z" stroke="white" stroke-width="1.64161" stroke-linecap="round" stroke-linejoin="round"/>
<path d="M65.0484 82.4321H39.5079C38.7243 82.4321 38.089 83.0674 38.089 83.851V109.392C38.089 110.175 38.7243 110.81 39.5079 110.81H65.0484C65.8321 110.81 66.4674 110.175 66.4674 109.392V83.851C66.4674 83.0674 65.8321 82.4321 65.0484 82.4321Z" stroke="white" stroke-width="1.64161" stroke-linecap="round" stroke-linejoin="round"/>
<path d="M66.4675 92.3647H70.7243" stroke="white" stroke-width="1.64161" stroke-linecap="round" stroke-linejoin="round"/>
<path d="M66.4675 100.878H70.7243" stroke="white" stroke-width="1.64161" stroke-linecap="round" stroke-linejoin="round"/>
<path d="M33.8323 92.3647H38.089" stroke="white" stroke-width="1.64161" stroke-linecap="round" stroke-linejoin="round"/>
<path d="M33.8323 100.878H38.089" stroke="white" stroke-width="1.64161" stroke-linecap="round" stroke-linejoin="round"/>
<path d="M56.5349 110.811V115.067" stroke="white" stroke-width="1.64161" stroke-linecap="round" stroke-linejoin="round"/>
<path d="M48.0215 110.811V115.067" stroke="white" stroke-width="1.64161" stroke-linecap="round" stroke-linejoin="round"/>
<path d="M56.5349 78.1758V82.4325" stroke="white" stroke-width="1.64161" stroke-linecap="round" stroke-linejoin="round"/>
<path d="M48.0215 78.1758V82.4325" stroke="white" stroke-width="1.64161" stroke-linecap="round" stroke-linejoin="round"/>
<path d="M556.696 30.3488C564.112 30.3488 570.123 27.0699 570.123 23.0252C570.123 18.9805 564.112 15.7017 556.696 15.7017C549.281 15.7017 543.27 18.9805 543.27 23.0252C543.27 27.0699 549.281 30.3488 556.696 30.3488Z" stroke="white" stroke-width="1.41216" stroke-linecap="round" stroke-linejoin="round"/>
<path d="M543.27 23.0251V30.3487C543.27 34.3919 549.281 37.6723 556.696 37.6723C564.112 37.6723 570.123 34.3919 570.123 30.3487V23.0251" stroke="white" stroke-width="1.41216" stroke-linecap="round" stroke-linejoin="round"/>
<path d="M543.27 30.3486V37.6722C543.27 41.7154 549.281 44.9957 556.696 44.9957C564.112 44.9957 570.123 41.7154 570.123 37.6722V30.3486" stroke="white" stroke-width="1.41216" stroke-linecap="round" stroke-linejoin="round"/>
<path d="M97.7146 244.462V226.648C97.7133 226.391 97.6441 226.138 97.514 225.916C97.3839 225.694 97.1976 225.511 96.9739 225.383L81.0749 216.44C80.8606 216.317 80.6176 216.251 80.3703 216.251C80.1229 216.251 79.8799 216.317 79.6656 216.44L63.7666 225.383C63.5429 225.511 63.3566 225.694 63.2265 225.916C63.0965 226.138 63.0273 226.391 63.0259 226.648V244.462C63.0273 244.72 63.0965 244.972 63.2265 245.194C63.3566 245.416 63.5429 245.6 63.7666 245.727L79.6656 254.67C79.8799 254.794 80.1229 254.859 80.3703 254.859C80.6176 254.859 80.8606 254.794 81.0749 254.67L96.9739 245.727C97.1976 245.6 97.3839 245.416 97.514 245.194C97.6441 244.972 97.7133 244.72 97.7146 244.462V244.462Z" stroke="white" stroke-width="1.6493" stroke-linecap="round" stroke-linejoin="round"/>
<path d="M97.5155 225.907L80.5325 235.555L63.2242 225.907" stroke="white" stroke-width="1.6493" stroke-linecap="round" stroke-linejoin="round"/>
<path d="M80.5328 235.555L80.3702 254.85" stroke="white" stroke-width="1.6493" stroke-linecap="round" stroke-linejoin="round"/>
<path d="M121.288 357.463H128.964" stroke="white" stroke-width="1.52243" stroke-linecap="round" stroke-linejoin="round"/>
<path d="M136.544 335.97H102.961C102.06 335.97 101.33 336.701 101.33 337.601V365.044C101.33 365.944 102.06 366.675 102.961 366.675H136.544C137.445 366.675 138.175 365.944 138.175 365.044V337.601C138.175 336.701 137.445 335.97 136.544 335.97Z" stroke="white" stroke-width="1.61473" stroke-linecap="round" stroke-linejoin="round"/>
<path d="M112.098 344.015V346.103" stroke="white" stroke-width="1.52243" stroke-linecap="round" stroke-linejoin="round"/>
<path d="M112.098 356.542V358.63" stroke="white" stroke-width="1.52243" stroke-linecap="round" stroke-linejoin="round"/>
<path d="M108.966 356.542H113.663C114.355 356.542 115.019 356.267 115.509 355.778C115.998 355.288 116.273 354.624 116.273 353.932C116.273 353.24 115.998 352.576 115.509 352.087C115.019 351.597 114.355 351.322 113.663 351.322H110.532C109.839 351.322 109.176 351.047 108.686 350.558C108.197 350.069 107.922 349.405 107.922 348.713C107.922 348.02 108.197 347.357 108.686 346.867C109.176 346.378 109.839 346.103 110.532 346.103H115.229" stroke="white" stroke-width="1.52243" stroke-linecap="round" stroke-linejoin="round"/>
<path d="M631.927 208.815H610.28C609.87 208.815 609.476 208.652 609.186 208.362C608.896 208.072 608.734 207.679 608.734 207.269V179.436C608.734 179.026 608.896 178.633 609.186 178.343C609.476 178.053 609.87 177.89 610.28 177.89H625.742L633.474 185.621V207.269C633.474 207.679 633.311 208.072 633.021 208.362C632.731 208.652 632.337 208.815 631.927 208.815Z" stroke="white" stroke-width="1.61003" stroke-linecap="round" stroke-linejoin="round"/>
<path d="M614.919 177.89V173.251C614.919 172.841 615.081 172.448 615.371 172.158C615.661 171.868 616.055 171.705 616.465 171.705H631.927L639.659 179.436V201.084C639.659 201.494 639.496 201.887 639.206 202.177C638.916 202.467 638.522 202.63 638.112 202.63H633.474" stroke="white" stroke-width="1.61003" stroke-linecap="round" stroke-linejoin="round"/>
<path d="M616.465 194.899H625.742" stroke="white" stroke-width="1.61003" stroke-linecap="round" stroke-linejoin="round"/>
<path d="M616.465 201.084H625.742" stroke="white" stroke-width="1.61003" stroke-linecap="round" stroke-linejoin="round"/>
<path d="M616.465 184.118L619.914 186.877L616.465 189.637" stroke="white" stroke-width="1.61003" stroke-linecap="round" stroke-linejoin="round"/>
<path d="M621.293 189.636H624.742" stroke="white" stroke-width="1.61003" stroke-linecap="round" stroke-linejoin="round"/>
<path d="M599.687 319.635H559.885C558.886 319.635 558.076 320.446 558.076 321.445V354.01C558.076 355.009 558.886 355.819 559.885 355.819H599.687C600.687 355.819 601.497 355.009 601.497 354.01V321.445C601.497 320.446 600.687 319.635 599.687 319.635Z" stroke="white" stroke-width="1.46316" stroke-linecap="round" stroke-linejoin="round"/>
<path d="M575.81 349.815H595.373V333.91" stroke="white" stroke-width="1.46316" stroke-linecap="round" stroke-linejoin="round"/>
<path d="M577.44 335.5L585.592 343.453L588.852 340.272L595.373 346.634" stroke="white" stroke-width="1.46316" stroke-linecap="round" stroke-linejoin="round"/>
<path d="M577.44 339.477V335.5H581.516" stroke="white" stroke-width="1.46316" stroke-linecap="round" stroke-linejoin="round"/>
<path d="M566.217 330.491C567.716 330.491 568.931 329.276 568.931 327.777C568.931 326.278 567.716 325.063 566.217 325.063C564.719 325.063 563.504 326.278 563.504 327.777C563.504 329.276 564.719 330.491 566.217 330.491Z" fill="white"/>
<path d="M575.263 330.491C576.762 330.491 577.977 329.276 577.977 327.777C577.977 326.278 576.762 325.063 575.263 325.063C573.765 325.063 572.55 326.278 572.55 327.777C572.55 329.276 573.765 330.491 575.263 330.491Z" fill="white"/>
<path d="M5.31784 136.864C4.04666 136.864 2.9552 136.425 2.04346 135.549C1.14049 134.672 0.689006 133.489 0.689006 131.998C0.689006 130.999 0.916941 130.122 1.37281 129.368C1.82868 128.614 2.4029 128.058 3.09547 127.698C3.78804 127.33 4.52883 127.146 5.31784 127.146C6.36984 127.146 7.25528 127.413 7.97415 127.948C8.70179 128.474 9.18396 129.193 9.42066 130.105L8.22401 130.525C8.04867 129.824 7.71115 129.285 7.21145 128.908C6.71175 128.522 6.08054 128.329 5.31784 128.329C4.4061 128.329 3.62586 128.654 2.97712 129.302C2.32838 129.942 2.00401 130.841 2.00401 131.998C2.00401 133.155 2.32838 134.058 2.97712 134.707C3.62586 135.356 4.4061 135.68 5.31784 135.68C6.08054 135.68 6.71613 135.479 7.2246 135.075C7.73307 134.663 8.08812 134.12 8.28976 133.445L9.43381 133.866C9.17958 134.769 8.68864 135.496 7.961 136.048C7.24213 136.592 6.36108 136.864 5.31784 136.864ZM11.8377 135.167C12.2234 135.562 12.6924 135.759 13.2447 135.759C13.797 135.759 14.2617 135.562 14.6386 135.167C15.0244 134.764 15.2172 134.207 15.2172 133.497C15.2172 132.796 15.0244 132.248 14.6386 131.854C14.2617 131.45 13.797 131.249 13.2447 131.249C12.6924 131.249 12.2234 131.45 11.8377 131.854C11.4607 132.248 11.2722 132.796 11.2722 133.497C11.2722 134.207 11.4607 134.764 11.8377 135.167ZM10.9172 131.104C11.5308 130.464 12.3067 130.144 13.2447 130.144C14.1828 130.144 14.9542 130.464 15.5592 131.104C16.1728 131.735 16.4797 132.533 16.4797 133.497C16.4797 134.47 16.1772 135.277 15.5723 135.917C14.9674 136.548 14.1915 136.864 13.2447 136.864C12.2979 136.864 11.5221 136.548 10.9172 135.917C10.3123 135.277 10.0098 134.47 10.0098 133.497C10.0098 132.533 10.3123 131.735 10.9172 131.104ZM19.065 136.667H17.842V130.341H19.0255V131.183C19.2184 130.85 19.4901 130.596 19.8408 130.42C20.1915 130.245 20.5597 130.157 20.9454 130.157C21.3574 130.157 21.7344 130.258 22.0763 130.46C22.4182 130.661 22.6725 130.959 22.839 131.354C23.2774 130.556 23.9831 130.157 24.9562 130.157C25.5611 130.157 26.0739 130.363 26.4947 130.775C26.9243 131.187 27.1391 131.783 27.1391 132.564V136.667H25.9161V132.695C25.9161 132.257 25.8022 131.906 25.5742 131.643C25.3551 131.38 25.0219 131.249 24.5748 131.249C24.1453 131.249 23.7946 131.402 23.5228 131.709C23.2511 132.007 23.1152 132.384 23.1152 132.84V136.667H21.8791V132.695C21.8791 132.257 21.7651 131.906 21.5372 131.643C21.318 131.38 20.9849 131.249 20.5378 131.249C20.0994 131.249 19.7444 131.398 19.4726 131.696C19.2008 131.994 19.065 132.38 19.065 132.853V136.667ZM30.121 139.165H28.898V130.341H30.0947V131.328C30.2788 130.994 30.5549 130.723 30.9231 130.512C31.2913 130.302 31.7209 130.197 32.2118 130.197C33.1236 130.197 33.8337 130.508 34.3421 131.13C34.8594 131.753 35.118 132.542 35.118 133.497C35.118 134.462 34.8506 135.259 34.3158 135.891C33.7898 136.522 33.0753 136.837 32.1724 136.837C31.7077 136.837 31.2957 136.741 30.9363 136.548C30.5768 136.355 30.3051 136.11 30.121 135.812V139.165ZM33.8556 133.497C33.8556 132.857 33.6846 132.331 33.3427 131.919C33.0096 131.499 32.5581 131.288 31.9883 131.288C31.4272 131.288 30.9713 131.499 30.6207 131.919C30.2788 132.331 30.1078 132.857 30.1078 133.497C30.1078 134.155 30.2788 134.694 30.6207 135.115C30.9713 135.527 31.4272 135.733 31.9883 135.733C32.5493 135.733 33.0008 135.527 33.3427 135.115C33.6846 134.694 33.8556 134.155 33.8556 133.497ZM40.5782 135.904C40.4116 136.219 40.1574 136.46 39.8155 136.627C39.4736 136.785 39.1054 136.864 38.7109 136.864C37.992 136.864 37.4178 136.627 36.9882 136.154C36.5587 135.671 36.3439 135.062 36.3439 134.326V130.341H37.58V134.142C37.58 134.615 37.694 135.005 37.9219 135.312C38.1586 135.619 38.5224 135.772 39.0134 135.772C39.5043 135.772 39.8769 135.628 40.1311 135.338C40.3853 135.04 40.5125 134.646 40.5125 134.155V130.341H41.7486V135.496C41.7486 135.908 41.7705 136.298 41.8143 136.667H40.6308C40.5957 136.474 40.5782 136.219 40.5782 135.904ZM45.2957 128.342V130.341H46.6633V131.459H45.2957V134.747C45.2957 135.045 45.3614 135.264 45.4929 135.404C45.6332 135.544 45.8611 135.614 46.1767 135.614C46.3608 135.614 46.523 135.597 46.6633 135.562V136.614C46.4529 136.693 46.1723 136.732 45.8217 136.732C45.2781 136.732 44.8486 136.574 44.533 136.259C44.2174 135.943 44.0596 135.501 44.0596 134.931V131.459H42.8498V130.341H43.1917C43.516 130.341 43.7571 130.254 43.9149 130.078C44.0815 129.894 44.1648 129.658 44.1648 129.368V128.342H45.2957ZM49.317 136.667H48.094V130.341H49.317V136.667ZM48.0677 128.579C47.9012 128.404 47.8179 128.193 47.8179 127.948C47.8179 127.703 47.9012 127.492 48.0677 127.317C48.2431 127.141 48.4535 127.054 48.6989 127.054C48.9444 127.054 49.1548 127.141 49.3301 127.317C49.5055 127.483 49.5932 127.694 49.5932 127.948C49.5932 128.193 49.5055 128.404 49.3301 128.579C49.1548 128.746 48.9444 128.829 48.6989 128.829C48.4535 128.829 48.2431 128.746 48.0677 128.579ZM52.437 133.011V136.667H51.2009V130.341H52.4107V131.249C52.8315 130.521 53.4803 130.157 54.3569 130.157C55.0846 130.157 55.6413 130.39 56.027 130.854C56.4215 131.319 56.6188 131.919 56.6188 132.656V136.667H55.3826V132.866C55.3826 131.805 54.8917 131.275 53.9098 131.275C53.4452 131.275 53.0814 131.442 52.8184 131.775C52.5641 132.099 52.437 132.511 52.437 133.011ZM57.9056 137.008L59.1022 136.732C59.1461 137.179 59.3258 137.548 59.6414 137.837C59.957 138.135 60.3515 138.284 60.8249 138.284C62.1136 138.284 62.758 137.6 62.758 136.233V135.325C62.6002 135.632 62.3503 135.882 62.0084 136.075C61.6753 136.268 61.2808 136.364 60.8249 136.364C59.9833 136.364 59.2863 136.079 58.734 135.509C58.1905 134.931 57.9187 134.194 57.9187 133.3C57.9187 132.432 58.1905 131.705 58.734 131.117C59.2776 130.521 59.9745 130.223 60.8249 130.223C61.7892 130.223 62.438 130.556 62.7711 131.222V130.341H63.9941V136.193C63.9941 136.614 63.9371 137.004 63.8231 137.363C63.7179 137.732 63.547 138.069 63.3103 138.376C63.0736 138.683 62.7404 138.924 62.3109 139.099C61.8901 139.275 61.3947 139.362 60.8249 139.362C60.0447 139.362 59.3828 139.139 58.8392 138.692C58.2957 138.253 57.9845 137.692 57.9056 137.008ZM61.009 135.325C61.5438 135.325 61.9777 135.141 62.3109 134.773C62.644 134.396 62.8106 133.905 62.8106 133.3C62.8106 132.695 62.644 132.209 62.3109 131.84C61.9777 131.463 61.5438 131.275 61.009 131.275C60.4655 131.275 60.0227 131.459 59.6808 131.827C59.3477 132.195 59.1811 132.686 59.1811 133.3C59.1811 133.923 59.3433 134.418 59.6677 134.786C60.0008 135.145 60.4479 135.325 61.009 135.325ZM70.2376 131.696H72.1049C72.6572 131.696 73.0956 131.556 73.4199 131.275C73.7443 130.986 73.9065 130.6 73.9065 130.118C73.9065 129.627 73.7443 129.237 73.4199 128.947C73.0956 128.649 72.6572 128.5 72.1049 128.5H70.2376V131.696ZM72.3416 132.853H70.2376V136.667H68.9489V127.343H72.3416C73.192 127.343 73.8846 127.606 74.4193 128.132C74.9541 128.658 75.2215 129.316 75.2215 130.105C75.2215 130.902 74.9541 131.56 74.4193 132.077C73.8846 132.594 73.192 132.853 72.3416 132.853ZM77.22 135.167C77.6057 135.562 78.0747 135.759 78.627 135.759C79.1793 135.759 79.644 135.562 80.0209 135.167C80.4067 134.764 80.5995 134.207 80.5995 133.497C80.5995 132.796 80.4067 132.248 80.0209 131.854C79.644 131.45 79.1793 131.249 78.627 131.249C78.0747 131.249 77.6057 131.45 77.22 131.854C76.843 132.248 76.6545 132.796 76.6545 133.497C76.6545 134.207 76.843 134.764 77.22 135.167ZM76.2995 131.104C76.9131 130.464 77.689 130.144 78.627 130.144C79.5651 130.144 80.3365 130.464 80.9415 131.104C81.5551 131.735 81.862 132.533 81.862 133.497C81.862 134.47 81.5595 135.277 80.9546 135.917C80.3497 136.548 79.5738 136.864 78.627 136.864C77.6802 136.864 76.9044 136.548 76.2995 135.917C75.6946 135.277 75.3921 134.47 75.3921 133.497C75.3921 132.533 75.6946 131.735 76.2995 131.104ZM86.6595 130.341H87.9351L89.5789 135.102L90.9728 130.341H92.2746L90.2232 136.667H88.9477L87.2644 131.854L85.6207 136.667H84.3188L82.2411 130.341H83.5956L85.0158 135.102L86.6595 130.341ZM93.978 132.853H97.4365C97.419 132.38 97.2612 131.994 96.9631 131.696C96.665 131.389 96.2442 131.236 95.7007 131.236C95.2098 131.236 94.8065 131.398 94.4909 131.722C94.1753 132.038 94.0043 132.415 93.978 132.853ZM97.6206 134.497L98.6858 134.865C98.5017 135.452 98.1598 135.934 97.6601 136.311C97.1604 136.68 96.5555 136.864 95.8454 136.864C94.9599 136.864 94.206 136.561 93.5835 135.956C92.9699 135.343 92.663 134.519 92.663 133.484C92.663 132.52 92.9611 131.722 93.5572 131.091C94.1534 130.46 94.8635 130.144 95.6876 130.144C96.6431 130.144 97.3883 130.447 97.9231 131.051C98.4578 131.648 98.7252 132.45 98.7252 133.458C98.7252 133.616 98.7165 133.747 98.6989 133.852H93.9386C93.9474 134.413 94.1315 134.874 94.4909 135.233C94.8591 135.593 95.3106 135.772 95.8454 135.772C96.7483 135.772 97.3401 135.347 97.6206 134.497ZM103.595 130.276V131.591C103.411 131.564 103.231 131.551 103.056 131.551C101.899 131.551 101.32 132.2 101.32 133.497V136.667H100.084V130.341H101.294V131.446C101.68 130.639 102.311 130.236 103.187 130.236C103.328 130.236 103.464 130.249 103.595 130.276Z" fill="white"/>
<path d="M46.6494 276.022H45.3738V268.764L42.1915 276.022H41.008L37.852 268.764V276.022H36.5764V266.699H38.3254L41.6129 274.287L44.9267 266.699H46.6494V276.022ZM49.9714 274.523C50.3571 274.918 50.8262 275.115 51.3785 275.115C51.9308 275.115 52.3954 274.918 52.7724 274.523C53.1581 274.12 53.351 273.563 53.351 272.853C53.351 272.152 53.1581 271.604 52.7724 271.21C52.3954 270.806 51.9308 270.605 51.3785 270.605C50.8262 270.605 50.3571 270.806 49.9714 271.21C49.5944 271.604 49.406 272.152 49.406 272.853C49.406 273.563 49.5944 274.12 49.9714 274.523ZM49.0509 270.46C49.6646 269.82 50.4404 269.5 51.3785 269.5C52.3165 269.5 53.088 269.82 53.6929 270.46C54.3066 271.091 54.6134 271.889 54.6134 272.853C54.6134 273.826 54.3109 274.633 53.706 275.273C53.1011 275.904 52.3253 276.22 51.3785 276.22C50.4317 276.22 49.6558 275.904 49.0509 275.273C48.446 274.633 48.1435 273.826 48.1435 272.853C48.1435 271.889 48.446 271.091 49.0509 270.46ZM56.7121 272.84C56.7121 273.506 56.8743 274.05 57.1987 274.471C57.5318 274.892 57.9877 275.102 58.5663 275.102C59.1186 275.102 59.5613 274.887 59.8945 274.458C60.2276 274.028 60.3942 273.48 60.3942 272.814C60.3942 272.156 60.232 271.626 59.9076 271.223C59.5832 270.819 59.1405 270.618 58.5794 270.618C58.0184 270.618 57.5669 270.824 57.225 271.236C56.8831 271.648 56.7121 272.183 56.7121 272.84ZM60.4073 275.168V275.063C60.2407 275.387 59.9865 275.659 59.6446 275.878C59.3115 276.088 58.9126 276.193 58.4479 276.193C57.545 276.193 56.8173 275.878 56.265 275.247C55.7215 274.607 55.4497 273.804 55.4497 272.84C55.4497 271.92 55.7303 271.139 56.2913 270.499C56.8524 269.851 57.5713 269.526 58.4479 269.526C58.9652 269.526 59.386 269.632 59.7103 269.842C60.0347 270.044 60.2583 270.293 60.381 270.591V266.502H61.604V274.852C61.604 275.282 61.6259 275.672 61.6697 276.022H60.4731C60.4292 275.777 60.4073 275.492 60.4073 275.168ZM64.2895 272.209H67.748C67.7305 271.736 67.5727 271.35 67.2746 271.052C66.9765 270.745 66.5557 270.591 66.0122 270.591C65.5212 270.591 65.118 270.754 64.8024 271.078C64.4868 271.394 64.3158 271.771 64.2895 272.209ZM67.9321 273.853L68.9973 274.221C68.8132 274.808 68.4713 275.29 67.9715 275.667C67.4718 276.036 66.8669 276.22 66.1568 276.22C65.2714 276.22 64.5175 275.917 63.895 275.312C63.2814 274.699 62.9745 273.875 62.9745 272.84C62.9745 271.876 63.2726 271.078 63.8687 270.447C64.4649 269.816 65.175 269.5 65.999 269.5C66.9546 269.5 67.6998 269.802 68.2346 270.407C68.7693 271.004 69.0367 271.806 69.0367 272.814C69.0367 272.972 69.0279 273.103 69.0104 273.208H64.2501C64.2588 273.769 64.4429 274.23 64.8024 274.589C65.1706 274.949 65.6221 275.128 66.1568 275.128C67.0598 275.128 67.6516 274.703 67.9321 273.853ZM71.6316 276.022H70.3954V266.502H71.6316V276.022ZM83.1849 267.896H80.0683V276.022H78.7796V267.896H75.663V266.699H83.1849V267.896ZM86.8742 269.632V270.947C86.6901 270.92 86.5104 270.907 86.3351 270.907C85.1779 270.907 84.5993 271.556 84.5993 272.853V276.022H83.3632V269.697H84.573V270.802C84.9587 269.995 85.5899 269.592 86.4666 269.592C86.6069 269.592 86.7427 269.605 86.8742 269.632ZM87.5781 274.326C87.5781 273.783 87.7534 273.349 88.1041 273.024C88.4547 272.691 88.9194 272.485 89.498 272.406L91.2075 272.156C91.5318 272.113 91.694 271.955 91.694 271.683C91.694 271.35 91.5801 271.078 91.3521 270.868C91.1242 270.657 90.7823 270.552 90.3264 270.552C89.9056 270.552 89.5725 270.67 89.327 270.907C89.0815 271.135 88.9369 271.442 88.8931 271.828L87.7096 271.551C87.7709 270.947 88.0471 270.456 88.538 270.079C89.0289 269.693 89.6163 269.5 90.3001 269.5C91.1943 269.5 91.8562 269.719 92.2858 270.158C92.7154 270.587 92.9301 271.139 92.9301 271.814V274.984C92.9301 275.361 92.9564 275.707 93.009 276.022H91.7992C91.7554 275.759 91.7335 275.475 91.7335 275.168C91.5581 275.448 91.2995 275.694 90.9576 275.904C90.6245 276.115 90.2037 276.22 89.6952 276.22C89.0728 276.22 88.5643 276.036 88.1698 275.667C87.7753 275.29 87.5781 274.843 87.5781 274.326ZM89.8662 275.181C90.4185 275.181 90.8612 275.032 91.1943 274.734C91.5275 274.436 91.694 273.962 91.694 273.314V273.024L89.761 273.314C89.4804 273.357 89.2569 273.458 89.0903 273.616C88.9237 273.774 88.8405 273.989 88.8405 274.26C88.8405 274.506 88.9325 274.721 89.1166 274.905C89.3095 275.089 89.5593 275.181 89.8662 275.181ZM95.8596 276.022H94.6366V269.697H95.8596V276.022ZM94.6103 267.935C94.4438 267.76 94.3605 267.549 94.3605 267.304C94.3605 267.058 94.4438 266.848 94.6103 266.673C94.7857 266.497 94.9961 266.41 95.2415 266.41C95.487 266.41 95.6974 266.497 95.8727 266.673C96.0481 266.839 96.1357 267.05 96.1357 267.304C96.1357 267.549 96.0481 267.76 95.8727 267.935C95.6974 268.102 95.487 268.185 95.2415 268.185C94.9961 268.185 94.7857 268.102 94.6103 267.935ZM98.9796 272.367V276.022H97.7435V269.697H98.9533V270.605C99.3741 269.877 100.023 269.513 100.9 269.513C101.627 269.513 102.184 269.745 102.57 270.21C102.964 270.675 103.161 271.275 103.161 272.012V276.022H101.925V272.222C101.925 271.161 101.434 270.631 100.452 270.631C99.9878 270.631 99.624 270.797 99.361 271.131C99.1067 271.455 98.9796 271.867 98.9796 272.367ZM106.131 276.022H104.908V269.697H106.131V276.022ZM104.882 267.935C104.716 267.76 104.632 267.549 104.632 267.304C104.632 267.058 104.716 266.848 104.882 266.673C105.057 266.497 105.268 266.41 105.513 266.41C105.759 266.41 105.969 266.497 106.145 266.673C106.32 266.839 106.408 267.05 106.408 267.304C106.408 267.549 106.32 267.76 106.145 267.935C105.969 268.102 105.759 268.185 105.513 268.185C105.268 268.185 105.057 268.102 104.882 267.935ZM109.251 272.367V276.022H108.015V269.697H109.225V270.605C109.646 269.877 110.295 269.513 111.171 269.513C111.899 269.513 112.456 269.745 112.841 270.21C113.236 270.675 113.433 271.275 113.433 272.012V276.022H112.197V272.222C112.197 271.161 111.706 270.631 110.724 270.631C110.26 270.631 109.896 270.797 109.633 271.131C109.379 271.455 109.251 271.867 109.251 272.367ZM114.72 276.364L115.917 276.088C115.96 276.535 116.14 276.904 116.456 277.193C116.771 277.491 117.166 277.64 117.639 277.64C118.928 277.64 119.572 276.956 119.572 275.589V274.681C119.415 274.988 119.165 275.238 118.823 275.431C118.49 275.624 118.095 275.72 117.639 275.72C116.798 275.72 116.101 275.435 115.548 274.865C115.005 274.287 114.733 273.55 114.733 272.656C114.733 271.788 115.005 271.06 115.548 270.473C116.092 269.877 116.789 269.579 117.639 269.579C118.604 269.579 119.252 269.912 119.585 270.578V269.697H120.808V275.549C120.808 275.97 120.751 276.36 120.638 276.719C120.532 277.088 120.361 277.425 120.125 277.732C119.888 278.039 119.555 278.28 119.125 278.455C118.704 278.631 118.209 278.718 117.639 278.718C116.859 278.718 116.197 278.495 115.654 278.048C115.11 277.609 114.799 277.048 114.72 276.364ZM117.823 274.681C118.358 274.681 118.792 274.497 119.125 274.129C119.458 273.752 119.625 273.261 119.625 272.656C119.625 272.051 119.458 271.565 119.125 271.196C118.792 270.819 118.358 270.631 117.823 270.631C117.28 270.631 116.837 270.815 116.495 271.183C116.162 271.551 115.996 272.042 115.996 272.656C115.996 273.278 116.158 273.774 116.482 274.142C116.815 274.501 117.262 274.681 117.823 274.681Z" fill="white"/>
<path d="M74.5705 388.647H76.4773C77.389 388.647 78.143 388.345 78.7391 387.74C79.344 387.135 79.6465 386.271 79.6465 385.149C79.6465 384.018 79.3484 383.146 78.7523 382.532C78.1649 381.918 77.4153 381.612 76.5036 381.612H74.5705V388.647ZM76.5167 389.791H73.2818V380.468H76.543C77.7967 380.468 78.8487 380.884 79.6991 381.717C80.5494 382.541 80.9746 383.685 80.9746 385.149C80.9746 386.604 80.5451 387.744 79.6859 388.568C78.8268 389.383 77.7704 389.791 76.5167 389.791ZM83.1978 385.977H86.6563C86.6387 385.504 86.4809 385.118 86.1829 384.82C85.8848 384.513 85.464 384.36 84.9204 384.36C84.4295 384.36 84.0262 384.522 83.7106 384.847C83.395 385.162 83.2241 385.539 83.1978 385.977ZM86.8404 387.621L87.9055 387.989C87.7214 388.577 87.3795 389.059 86.8798 389.436C86.3801 389.804 85.7752 389.988 85.0651 389.988C84.1797 389.988 83.4257 389.686 82.8033 389.081C82.1896 388.467 81.8828 387.643 81.8828 386.609C81.8828 385.644 82.1808 384.847 82.777 384.215C83.3731 383.584 84.0832 383.269 84.9073 383.269C85.8629 383.269 86.608 383.571 87.1428 384.176C87.6776 384.772 87.945 385.574 87.945 386.582C87.945 386.74 87.9362 386.872 87.9187 386.977H83.1583C83.1671 387.538 83.3512 387.998 83.7106 388.358C84.0788 388.717 84.5303 388.897 85.0651 388.897C85.9681 388.897 86.5598 388.472 86.8404 387.621ZM90.5267 392.29H89.3037V383.466H90.5004V384.452C90.6845 384.119 90.9606 383.847 91.3288 383.637C91.697 383.426 92.1266 383.321 92.6175 383.321C93.5293 383.321 94.2394 383.632 94.7478 384.255C95.2651 384.877 95.5237 385.666 95.5237 386.622C95.5237 387.586 95.2563 388.384 94.7215 389.015C94.1955 389.646 93.481 389.962 92.5781 389.962C92.1134 389.962 91.7014 389.866 91.342 389.673C90.9825 389.48 90.7108 389.234 90.5267 388.936V392.29ZM94.2613 386.622C94.2613 385.982 94.0903 385.456 93.7484 385.044C93.4153 384.623 92.9638 384.413 92.394 384.413C91.8329 384.413 91.377 384.623 91.0264 385.044C90.6845 385.456 90.5135 385.982 90.5135 386.622C90.5135 387.279 90.6845 387.819 91.0264 388.239C91.377 388.651 91.8329 388.857 92.394 388.857C92.955 388.857 93.4065 388.651 93.7484 388.239C94.0903 387.819 94.2613 387.279 94.2613 386.622ZM98.1157 389.791H96.8796V380.27H98.1157V389.791ZM101.301 388.292C101.687 388.686 102.156 388.884 102.708 388.884C103.26 388.884 103.725 388.686 104.102 388.292C104.488 387.889 104.681 387.332 104.681 386.622C104.681 385.921 104.488 385.373 104.102 384.978C103.725 384.575 103.26 384.373 102.708 384.373C102.156 384.373 101.687 384.575 101.301 384.978C100.924 385.373 100.736 385.921 100.736 386.622C100.736 387.332 100.924 387.889 101.301 388.292ZM100.381 384.229C100.994 383.589 101.77 383.269 102.708 383.269C103.646 383.269 104.418 383.589 105.023 384.229C105.636 384.86 105.943 385.658 105.943 386.622C105.943 387.595 105.641 388.401 105.036 389.041C104.431 389.673 103.655 389.988 102.708 389.988C101.761 389.988 100.986 389.673 100.381 389.041C99.7757 388.401 99.4733 387.595 99.4733 386.622C99.4733 385.658 99.7757 384.86 100.381 384.229ZM108.627 392.434H107.272L108.85 389.094L106.128 383.466H107.548L109.521 387.832L111.414 383.466H112.743L108.627 392.434ZM114.258 385.977H117.716C117.699 385.504 117.541 385.118 117.243 384.82C116.945 384.513 116.524 384.36 115.981 384.36C115.49 384.36 115.086 384.522 114.771 384.847C114.455 385.162 114.284 385.539 114.258 385.977ZM117.901 387.621L118.966 387.989C118.782 388.577 118.44 389.059 117.94 389.436C117.44 389.804 116.835 389.988 116.125 389.988C115.24 389.988 114.486 389.686 113.864 389.081C113.25 388.467 112.943 387.643 112.943 386.609C112.943 385.644 113.241 384.847 113.837 384.215C114.433 383.584 115.143 383.269 115.968 383.269C116.923 383.269 117.668 383.571 118.203 384.176C118.738 384.772 119.005 385.574 119.005 386.582C119.005 386.74 118.996 386.872 118.979 386.977H114.219C114.227 387.538 114.411 387.998 114.771 388.358C115.139 388.717 115.591 388.897 116.125 388.897C117.028 388.897 117.62 388.472 117.901 387.621ZM125.089 381.467V383.466H126.457V384.584H125.089V387.871C125.089 388.169 125.155 388.388 125.286 388.529C125.427 388.669 125.655 388.739 125.97 388.739C126.154 388.739 126.317 388.721 126.457 388.686V389.738C126.246 389.817 125.966 389.857 125.615 389.857C125.072 389.857 124.642 389.699 124.326 389.383C124.011 389.068 123.853 388.625 123.853 388.055V384.584H122.643V383.466H122.985C123.31 383.466 123.551 383.378 123.708 383.203C123.875 383.019 123.958 382.782 123.958 382.493V381.467H125.089ZM129.125 388.292C129.511 388.686 129.98 388.884 130.532 388.884C131.085 388.884 131.549 388.686 131.926 388.292C132.312 387.889 132.505 387.332 132.505 386.622C132.505 385.921 132.312 385.373 131.926 384.978C131.549 384.575 131.085 384.373 130.532 384.373C129.98 384.373 129.511 384.575 129.125 384.978C128.748 385.373 128.56 385.921 128.56 386.622C128.56 387.332 128.748 387.889 129.125 388.292ZM128.205 384.229C128.818 383.589 129.594 383.269 130.532 383.269C131.47 383.269 132.242 383.589 132.847 384.229C133.46 384.86 133.767 385.658 133.767 386.622C133.767 387.595 133.465 388.401 132.86 389.041C132.255 389.673 131.479 389.988 130.532 389.988C129.585 389.988 128.81 389.673 128.205 389.041C127.6 388.401 127.297 387.595 127.297 386.622C127.297 385.658 127.6 384.86 128.205 384.229ZM143.997 389.791H138.329V380.468H143.997V381.664H139.618V384.531H143.589V385.741H139.618V388.594H143.997V389.791ZM145.032 388.095C145.032 387.551 145.208 387.117 145.559 386.793C145.909 386.46 146.374 386.254 146.952 386.175L148.662 385.925C148.986 385.881 149.148 385.723 149.148 385.451C149.148 385.118 149.035 384.847 148.807 384.636C148.579 384.426 148.237 384.321 147.781 384.321C147.36 384.321 147.027 384.439 146.781 384.676C146.536 384.904 146.391 385.21 146.348 385.596L145.164 385.32C145.225 384.715 145.502 384.224 145.992 383.847C146.483 383.461 147.071 383.269 147.755 383.269C148.649 383.269 149.311 383.488 149.74 383.926C150.17 384.356 150.385 384.908 150.385 385.583V388.752C150.385 389.129 150.411 389.475 150.463 389.791H149.254C149.21 389.528 149.188 389.243 149.188 388.936C149.013 389.217 148.754 389.462 148.412 389.673C148.079 389.883 147.658 389.988 147.15 389.988C146.527 389.988 146.019 389.804 145.624 389.436C145.23 389.059 145.032 388.612 145.032 388.095ZM147.321 388.949C147.873 388.949 148.316 388.8 148.649 388.502C148.982 388.204 149.148 387.731 149.148 387.082V386.793L147.215 387.082C146.935 387.126 146.711 387.227 146.545 387.385C146.378 387.542 146.295 387.757 146.295 388.029C146.295 388.274 146.387 388.489 146.571 388.673C146.764 388.857 147.014 388.949 147.321 388.949ZM155.602 383.4V384.715C155.418 384.689 155.238 384.676 155.063 384.676C153.906 384.676 153.327 385.324 153.327 386.622V389.791H152.091V383.466H153.301V384.57C153.687 383.764 154.318 383.361 155.195 383.361C155.335 383.361 155.471 383.374 155.602 383.4ZM157.937 386.135V389.791H156.7V383.466H157.91V384.373C158.331 383.646 158.98 383.282 159.856 383.282C160.584 383.282 161.141 383.514 161.527 383.979C161.921 384.443 162.118 385.044 162.118 385.78V389.791H160.882V385.991C160.882 384.93 160.391 384.399 159.409 384.399C158.945 384.399 158.581 384.566 158.318 384.899C158.064 385.224 157.937 385.636 157.937 386.135Z" fill="white"/>
<path d="M551.141 374.527H553.047C553.959 374.527 554.713 374.225 555.309 373.62C555.914 373.015 556.217 372.152 556.217 371.029C556.217 369.898 555.919 369.026 555.322 368.413C554.735 367.799 553.985 367.492 553.074 367.492H551.141V374.527ZM553.087 375.671H549.852V366.348H553.113C554.367 366.348 555.419 366.764 556.269 367.597C557.12 368.421 557.545 369.565 557.545 371.029C557.545 372.485 557.115 373.624 556.256 374.448C555.397 375.264 554.341 375.671 553.087 375.671ZM558.571 373.975C558.571 373.431 558.747 372.998 559.097 372.673C559.448 372.34 559.913 372.134 560.491 372.055L562.201 371.805C562.525 371.761 562.687 371.604 562.687 371.332C562.687 370.999 562.573 370.727 562.345 370.517C562.117 370.306 561.775 370.201 561.32 370.201C560.899 370.201 560.566 370.319 560.32 370.556C560.075 370.784 559.93 371.091 559.886 371.477L558.703 371.2C558.764 370.595 559.04 370.105 559.531 369.728C560.022 369.342 560.61 369.149 561.293 369.149C562.188 369.149 562.849 369.368 563.279 369.806C563.709 370.236 563.923 370.788 563.923 371.463V374.633C563.923 375.009 563.95 375.356 564.002 375.671H562.792C562.749 375.408 562.727 375.123 562.727 374.817C562.551 375.097 562.293 375.343 561.951 375.553C561.618 375.763 561.197 375.869 560.688 375.869C560.066 375.869 559.558 375.685 559.163 375.316C558.769 374.939 558.571 374.492 558.571 373.975ZM560.859 374.83C561.412 374.83 561.854 374.681 562.188 374.383C562.521 374.085 562.687 373.611 562.687 372.962V372.673L560.754 372.962C560.474 373.006 560.25 373.107 560.084 373.265C559.917 373.423 559.834 373.638 559.834 373.909C559.834 374.155 559.926 374.37 560.11 374.554C560.303 374.738 560.553 374.83 560.859 374.83ZM567.287 367.347V369.346H568.654V370.464H567.287V373.751C567.287 374.05 567.353 374.269 567.484 374.409C567.624 374.549 567.852 374.619 568.168 374.619C568.352 374.619 568.514 374.602 568.654 374.567V375.619C568.444 375.698 568.163 375.737 567.813 375.737C567.269 375.737 566.84 375.579 566.524 375.264C566.208 374.948 566.051 374.505 566.051 373.936V370.464H564.841V369.346H565.183C565.507 369.346 565.748 369.259 565.906 369.083C566.073 368.899 566.156 368.662 566.156 368.373V367.347H567.287ZM569.691 373.975C569.691 373.431 569.866 372.998 570.217 372.673C570.567 372.34 571.032 372.134 571.611 372.055L573.32 371.805C573.644 371.761 573.807 371.604 573.807 371.332C573.807 370.999 573.693 370.727 573.465 370.517C573.237 370.306 572.895 370.201 572.439 370.201C572.018 370.201 571.685 370.319 571.44 370.556C571.194 370.784 571.049 371.091 571.006 371.477L569.822 371.2C569.883 370.595 570.16 370.105 570.651 369.728C571.142 369.342 571.729 369.149 572.413 369.149C573.307 369.149 573.969 369.368 574.398 369.806C574.828 370.236 575.043 370.788 575.043 371.463V374.633C575.043 375.009 575.069 375.356 575.122 375.671H573.912C573.868 375.408 573.846 375.123 573.846 374.817C573.671 375.097 573.412 375.343 573.07 375.553C572.737 375.763 572.316 375.869 571.808 375.869C571.185 375.869 570.677 375.685 570.282 375.316C569.888 374.939 569.691 374.492 569.691 373.975ZM571.979 374.83C572.531 374.83 572.974 374.681 573.307 374.383C573.64 374.085 573.807 373.611 573.807 372.962V372.673L571.874 372.962C571.593 373.006 571.369 373.107 571.203 373.265C571.036 373.423 570.953 373.638 570.953 373.909C570.953 374.155 571.045 374.37 571.229 374.554C571.422 374.738 571.672 374.83 571.979 374.83ZM584.775 375.671L582.645 371.858H581.251V375.671H579.949V366.348H583.46C584.319 366.348 585.007 366.615 585.525 367.15C586.051 367.676 586.314 368.334 586.314 369.123C586.314 369.798 586.112 370.376 585.709 370.858C585.306 371.332 584.753 371.634 584.052 371.766L586.274 375.671H584.775ZM581.251 370.701H583.223C583.749 370.701 584.175 370.56 584.499 370.28C584.823 369.991 584.986 369.605 584.986 369.123C584.986 368.632 584.823 368.242 584.499 367.952C584.175 367.654 583.749 367.505 583.223 367.505H581.251V370.701ZM588.285 371.858H591.744C591.726 371.384 591.569 370.999 591.271 370.701C590.972 370.394 590.552 370.24 590.008 370.24C589.517 370.24 589.114 370.403 588.798 370.727C588.483 371.043 588.312 371.42 588.285 371.858ZM591.928 373.502L592.993 373.87C592.809 374.457 592.467 374.939 591.967 375.316C591.468 375.685 590.863 375.869 590.153 375.869C589.267 375.869 588.513 375.566 587.891 374.961C587.277 374.348 586.97 373.524 586.97 372.489C586.97 371.525 587.269 370.727 587.865 370.096C588.461 369.465 589.171 369.149 589.995 369.149C590.951 369.149 591.696 369.451 592.23 370.056C592.765 370.652 593.033 371.455 593.033 372.463C593.033 372.621 593.024 372.752 593.006 372.857H588.246C588.255 373.418 588.439 373.879 588.798 374.238C589.167 374.597 589.618 374.777 590.153 374.777C591.056 374.777 591.647 374.352 591.928 373.502ZM596.85 366.111C597.227 366.111 597.473 366.155 597.587 366.243V367.347C597.455 367.295 597.276 367.268 597.048 367.268C596.776 367.268 596.539 367.347 596.338 367.505C596.145 367.663 596.048 367.939 596.048 368.334V369.346H600.23V375.671H599.007V370.464H596.048V375.671H594.773V370.464H593.602V369.346H594.773V368.281C594.773 367.606 594.97 367.076 595.364 366.69C595.759 366.304 596.254 366.111 596.85 366.111ZM598.981 367.558C598.814 367.382 598.731 367.172 598.731 366.927C598.731 366.681 598.814 366.471 598.981 366.295C599.156 366.12 599.366 366.032 599.612 366.032C599.866 366.032 600.077 366.12 600.243 366.295C600.418 366.462 600.506 366.672 600.506 366.927C600.506 367.172 600.418 367.382 600.243 367.558C600.068 367.724 599.857 367.808 599.612 367.808C599.366 367.808 599.156 367.724 598.981 367.558ZM603.345 372.016V375.671H602.108V369.346H603.318V370.254C603.739 369.526 604.388 369.162 605.265 369.162C605.992 369.162 606.549 369.394 606.935 369.859C607.329 370.324 607.526 370.924 607.526 371.661V375.671H606.29V371.871C606.29 370.81 605.799 370.28 604.817 370.28C604.353 370.28 603.989 370.446 603.726 370.78C603.472 371.104 603.345 371.516 603.345 372.016ZM610.496 375.671H609.273V369.346H610.496V375.671ZM609.247 367.584C609.081 367.409 608.997 367.198 608.997 366.953C608.997 366.707 609.081 366.497 609.247 366.322C609.422 366.146 609.633 366.059 609.878 366.059C610.124 366.059 610.334 366.146 610.51 366.322C610.685 366.488 610.773 366.699 610.773 366.953C610.773 367.198 610.685 367.409 610.51 367.584C610.334 367.751 610.124 367.834 609.878 367.834C609.633 367.834 609.422 367.751 609.247 367.584ZM613.616 372.016V375.671H612.38V369.346H613.59V370.254C614.011 369.526 614.66 369.162 615.536 369.162C616.264 369.162 616.821 369.394 617.206 369.859C617.601 370.324 617.798 370.924 617.798 371.661V375.671H616.562V371.871C616.562 370.81 616.071 370.28 615.089 370.28C614.625 370.28 614.261 370.446 613.998 370.78C613.744 371.104 613.616 371.516 613.616 372.016ZM619.085 376.013L620.282 375.737C620.325 376.184 620.505 376.552 620.821 376.842C621.136 377.14 621.531 377.289 622.004 377.289C623.293 377.289 623.937 376.605 623.937 375.237V374.33C623.78 374.637 623.53 374.887 623.188 375.08C622.855 375.273 622.46 375.369 622.004 375.369C621.163 375.369 620.466 375.084 619.913 374.514C619.37 373.936 619.098 373.199 619.098 372.305C619.098 371.437 619.37 370.709 619.913 370.122C620.457 369.526 621.154 369.228 622.004 369.228C622.969 369.228 623.617 369.561 623.95 370.227V369.346H625.173V375.198C625.173 375.619 625.116 376.009 625.002 376.368C624.897 376.737 624.726 377.074 624.49 377.381C624.253 377.688 623.92 377.929 623.49 378.104C623.069 378.279 622.574 378.367 622.004 378.367C621.224 378.367 620.562 378.144 620.019 377.697C619.475 377.258 619.164 376.697 619.085 376.013ZM622.188 374.33C622.723 374.33 623.157 374.146 623.49 373.778C623.823 373.401 623.99 372.91 623.99 372.305C623.99 371.7 623.823 371.214 623.49 370.845C623.157 370.468 622.723 370.28 622.188 370.28C621.645 370.28 621.202 370.464 620.86 370.832C620.527 371.2 620.36 371.691 620.36 372.305C620.36 372.927 620.523 373.423 620.847 373.791C621.18 374.15 621.627 374.33 622.188 374.33Z" fill="white"/>
<path d="M588.216 226.285H590.123C591.035 226.285 591.789 225.982 592.385 225.378C592.99 224.773 593.292 223.909 593.292 222.787C593.292 221.656 592.994 220.784 592.398 220.17C591.811 219.556 591.061 219.25 590.149 219.25H588.216V226.285ZM590.162 227.429H586.928V218.106H590.189C591.442 218.106 592.494 218.522 593.345 219.355C594.195 220.179 594.62 221.323 594.62 222.787C594.62 224.242 594.191 225.382 593.332 226.206C592.472 227.021 591.416 227.429 590.162 227.429ZM595.647 225.733C595.647 225.189 595.822 224.755 596.173 224.431C596.524 224.098 596.988 223.892 597.567 223.813L599.276 223.563C599.601 223.519 599.763 223.361 599.763 223.089C599.763 222.756 599.649 222.485 599.421 222.274C599.193 222.064 598.851 221.959 598.395 221.959C597.974 221.959 597.641 222.077 597.396 222.314C597.15 222.542 597.006 222.848 596.962 223.234L595.778 222.958C595.84 222.353 596.116 221.862 596.607 221.485C597.098 221.099 597.685 220.907 598.369 220.907C599.263 220.907 599.925 221.126 600.355 221.564C600.784 221.994 600.999 222.546 600.999 223.221V226.39C600.999 226.767 601.025 227.113 601.078 227.429H599.868C599.824 227.166 599.802 226.881 599.802 226.574C599.627 226.855 599.368 227.1 599.026 227.311C598.693 227.521 598.272 227.626 597.764 227.626C597.142 227.626 596.633 227.442 596.239 227.074C595.844 226.697 595.647 226.25 595.647 225.733ZM597.935 226.587C598.487 226.587 598.93 226.438 599.263 226.14C599.596 225.842 599.763 225.369 599.763 224.72V224.431L597.83 224.72C597.549 224.764 597.326 224.865 597.159 225.022C596.993 225.18 596.909 225.395 596.909 225.667C596.909 225.912 597.001 226.127 597.185 226.311C597.378 226.495 597.628 226.587 597.935 226.587ZM604.362 219.105V221.104H605.73V222.222H604.362V225.509C604.362 225.807 604.428 226.026 604.56 226.167C604.7 226.307 604.928 226.377 605.243 226.377C605.427 226.377 605.59 226.359 605.73 226.324V227.376C605.52 227.455 605.239 227.495 604.888 227.495C604.345 227.495 603.915 227.337 603.6 227.021C603.284 226.706 603.126 226.263 603.126 225.693V222.222H601.916V221.104H602.258C602.583 221.104 602.824 221.016 602.982 220.841C603.148 220.657 603.231 220.42 603.231 220.131V219.105H604.362ZM606.766 225.733C606.766 225.189 606.942 224.755 607.292 224.431C607.643 224.098 608.107 223.892 608.686 223.813L610.396 223.563C610.72 223.519 610.882 223.361 610.882 223.089C610.882 222.756 610.768 222.485 610.54 222.274C610.312 222.064 609.97 221.959 609.515 221.959C609.094 221.959 608.761 222.077 608.515 222.314C608.27 222.542 608.125 222.848 608.081 223.234L606.898 222.958C606.959 222.353 607.235 221.862 607.726 221.485C608.217 221.099 608.804 220.907 609.488 220.907C610.382 220.907 611.044 221.126 611.474 221.564C611.903 221.994 612.118 222.546 612.118 223.221V226.39C612.118 226.767 612.145 227.113 612.197 227.429H610.987C610.944 227.166 610.922 226.881 610.922 226.574C610.746 226.855 610.488 227.1 610.146 227.311C609.813 227.521 609.392 227.626 608.883 227.626C608.261 227.626 607.752 227.442 607.358 227.074C606.963 226.697 606.766 226.25 606.766 225.733ZM609.054 226.587C609.607 226.587 610.049 226.438 610.382 226.14C610.716 225.842 610.882 225.369 610.882 224.72V224.431L608.949 224.72C608.669 224.764 608.445 224.865 608.278 225.022C608.112 225.18 608.029 225.395 608.029 225.667C608.029 225.912 608.121 226.127 608.305 226.311C608.498 226.495 608.747 226.587 609.054 226.587ZM623.481 227.429L622.469 224.825H618.34L617.353 227.429H615.973L619.681 218.106H621.167L624.875 227.429H623.481ZM620.391 219.447L618.8 223.629H622.009L620.391 219.447ZM627.015 223.773V227.429H625.779V221.104H626.989V222.011C627.409 221.283 628.058 220.92 628.935 220.92C629.663 220.92 630.219 221.152 630.605 221.617C630.999 222.081 631.197 222.682 631.197 223.418V227.429H629.961V223.629C629.961 222.568 629.47 222.037 628.488 222.037C628.023 222.037 627.659 222.204 627.396 222.537C627.142 222.861 627.015 223.274 627.015 223.773ZM634.18 223.773V227.429H632.944V221.104H634.154V222.011C634.574 221.283 635.223 220.92 636.1 220.92C636.827 220.92 637.384 221.152 637.77 221.617C638.164 222.081 638.362 222.682 638.362 223.418V227.429H637.125V223.629C637.125 222.568 636.635 222.037 635.653 222.037C635.188 222.037 634.824 222.204 634.561 222.537C634.307 222.861 634.18 223.274 634.18 223.773ZM641.411 225.93C641.796 226.324 642.265 226.522 642.818 226.522C643.37 226.522 643.835 226.324 644.212 225.93C644.597 225.527 644.79 224.97 644.79 224.26C644.79 223.558 644.597 223.011 644.212 222.616C643.835 222.213 643.37 222.011 642.818 222.011C642.265 222.011 641.796 222.213 641.411 222.616C641.034 223.011 640.845 223.558 640.845 224.26C640.845 224.97 641.034 225.527 641.411 225.93ZM640.49 221.866C641.104 221.226 641.88 220.907 642.818 220.907C643.756 220.907 644.527 221.226 645.132 221.866C645.746 222.498 646.053 223.295 646.053 224.26C646.053 225.233 645.75 226.039 645.145 226.679C644.54 227.311 643.764 227.626 642.818 227.626C641.871 227.626 641.095 227.311 640.49 226.679C639.885 226.039 639.583 225.233 639.583 224.26C639.583 223.295 639.885 222.498 640.49 221.866ZM649.008 219.105V221.104H650.375V222.222H649.008V225.509C649.008 225.807 649.073 226.026 649.205 226.167C649.345 226.307 649.573 226.377 649.889 226.377C650.073 226.377 650.235 226.359 650.375 226.324V227.376C650.165 227.455 649.884 227.495 649.534 227.495C648.99 227.495 648.56 227.337 648.245 227.021C647.929 226.706 647.771 226.263 647.771 225.693V222.222H646.562V221.104H646.904C647.228 221.104 647.469 221.016 647.627 220.841C647.793 220.657 647.877 220.42 647.877 220.131V219.105H649.008ZM651.411 225.733C651.411 225.189 651.587 224.755 651.937 224.431C652.288 224.098 652.753 223.892 653.331 223.813L655.041 223.563C655.365 223.519 655.527 223.361 655.527 223.089C655.527 222.756 655.413 222.485 655.185 222.274C654.958 222.064 654.616 221.959 654.16 221.959C653.739 221.959 653.406 222.077 653.16 222.314C652.915 222.542 652.77 222.848 652.726 223.234L651.543 222.958C651.604 222.353 651.88 221.862 652.371 221.485C652.862 221.099 653.45 220.907 654.133 220.907C655.028 220.907 655.69 221.126 656.119 221.564C656.549 221.994 656.763 222.546 656.763 223.221V226.39C656.763 226.767 656.79 227.113 656.842 227.429H655.633C655.589 227.166 655.567 226.881 655.567 226.574C655.392 226.855 655.133 227.1 654.791 227.311C654.458 227.521 654.037 227.626 653.529 227.626C652.906 227.626 652.398 227.442 652.003 227.074C651.609 226.697 651.411 226.25 651.411 225.733ZM653.7 226.587C654.252 226.587 654.695 226.438 655.028 226.14C655.361 225.842 655.527 225.369 655.527 224.72V224.431L653.594 224.72C653.314 224.764 653.09 224.865 652.924 225.022C652.757 225.18 652.674 225.395 652.674 225.667C652.674 225.912 652.766 226.127 652.95 226.311C653.143 226.495 653.393 226.587 653.7 226.587ZM660.127 219.105V221.104H661.495V222.222H660.127V225.509C660.127 225.807 660.193 226.026 660.324 226.167C660.464 226.307 660.692 226.377 661.008 226.377C661.192 226.377 661.354 226.359 661.495 226.324V227.376C661.284 227.455 661.004 227.495 660.653 227.495C660.109 227.495 659.68 227.337 659.364 227.021C659.049 226.706 658.891 226.263 658.891 225.693V222.222H657.681V221.104H658.023C658.347 221.104 658.588 221.016 658.746 220.841C658.913 220.657 658.996 220.42 658.996 220.131V219.105H660.127ZM664.148 227.429H662.925V221.104H664.148V227.429ZM662.899 219.342C662.732 219.166 662.649 218.956 662.649 218.71C662.649 218.465 662.732 218.255 662.899 218.079C663.074 217.904 663.285 217.816 663.53 217.816C663.776 217.816 663.986 217.904 664.161 218.079C664.337 218.246 664.424 218.456 664.424 218.71C664.424 218.956 664.337 219.166 664.161 219.342C663.986 219.508 663.776 219.592 663.53 219.592C663.285 219.592 663.074 219.508 662.899 219.342ZM667.334 225.93C667.72 226.324 668.189 226.522 668.741 226.522C669.293 226.522 669.758 226.324 670.135 225.93C670.521 225.527 670.714 224.97 670.714 224.26C670.714 223.558 670.521 223.011 670.135 222.616C669.758 222.213 669.293 222.011 668.741 222.011C668.189 222.011 667.72 222.213 667.334 222.616C666.957 223.011 666.769 223.558 666.769 224.26C666.769 224.97 666.957 225.527 667.334 225.93ZM666.414 221.866C667.027 221.226 667.803 220.907 668.741 220.907C669.679 220.907 670.451 221.226 671.055 221.866C671.669 222.498 671.976 223.295 671.976 224.26C671.976 225.233 671.674 226.039 671.069 226.679C670.464 227.311 669.688 227.626 668.741 227.626C667.794 227.626 667.018 227.311 666.414 226.679C665.809 226.039 665.506 225.233 665.506 224.26C665.506 223.295 665.809 222.498 666.414 221.866ZM674.574 223.773V227.429H673.338V221.104H674.548V222.011C674.969 221.283 675.618 220.92 676.494 220.92C677.222 220.92 677.779 221.152 678.164 221.617C678.559 222.081 678.756 222.682 678.756 223.418V227.429H677.52V223.629C677.52 222.568 677.029 222.037 676.047 222.037C675.583 222.037 675.219 222.204 674.956 222.537C674.702 222.861 674.574 223.274 674.574 223.773Z" fill="white"/>
<path d="M538.086 64.1809H539.993C540.904 64.1809 541.658 63.8784 542.254 63.2735C542.859 62.6686 543.162 61.8051 543.162 60.683C543.162 59.5521 542.864 58.6798 542.268 58.0661C541.68 57.4524 540.931 57.1456 540.019 57.1456H538.086V64.1809ZM540.032 65.325H536.797V56.0015H540.058C541.312 56.0015 542.364 56.418 543.214 57.2508C544.065 58.0749 544.49 59.2189 544.49 60.683C544.49 62.1382 544.06 63.2779 543.201 64.102C542.342 64.9173 541.286 65.325 540.032 65.325ZM545.516 63.6286C545.516 63.0851 545.692 62.6511 546.042 62.3267C546.393 61.9936 546.858 61.7876 547.436 61.7087L549.146 61.4588C549.47 61.415 549.632 61.2572 549.632 60.9854C549.632 60.6523 549.518 60.3805 549.29 60.1701C549.063 59.9597 548.721 59.8545 548.265 59.8545C547.844 59.8545 547.511 59.9729 547.265 60.2096C547.02 60.4375 546.875 60.7443 546.831 61.1301L545.648 60.8539C545.709 60.249 545.985 59.7581 546.476 59.3811C546.967 58.9954 547.555 58.8025 548.238 58.8025C549.133 58.8025 549.795 59.0217 550.224 59.46C550.654 59.8896 550.869 60.4419 550.869 61.1169V64.2861C550.869 64.6631 550.895 65.0093 550.947 65.325H549.738C549.694 65.0619 549.672 64.777 549.672 64.4702C549.497 64.7507 549.238 64.9962 548.896 65.2066C548.563 65.417 548.142 65.5222 547.634 65.5222C547.011 65.5222 546.503 65.3381 546.108 64.9699C545.714 64.5929 545.516 64.1458 545.516 63.6286ZM547.805 64.4833C548.357 64.4833 548.8 64.3343 549.133 64.0362C549.466 63.7382 549.632 63.2648 549.632 62.616V62.3267L547.699 62.616C547.419 62.6599 547.195 62.7607 547.029 62.9185C546.862 63.0763 546.779 63.2911 546.779 63.5628C546.779 63.8083 546.871 64.0231 547.055 64.2072C547.248 64.3913 547.498 64.4833 547.805 64.4833ZM554.232 57.0009V58.9998H555.6V60.1175H554.232V63.405C554.232 63.7031 554.298 63.9223 554.429 64.0625C554.569 64.2028 554.797 64.2729 555.113 64.2729C555.297 64.2729 555.459 64.2554 555.6 64.2203V65.2724C555.389 65.3513 555.109 65.3907 554.758 65.3907C554.214 65.3907 553.785 65.2329 553.469 64.9173C553.154 64.6017 552.996 64.159 552.996 63.5891V60.1175H551.786V58.9998H552.128C552.452 58.9998 552.693 58.9121 552.851 58.7368C553.018 58.5527 553.101 58.316 553.101 58.0267V57.0009H554.232ZM556.636 63.6286C556.636 63.0851 556.811 62.6511 557.162 62.3267C557.512 61.9936 557.977 61.7876 558.556 61.7087L560.265 61.4588C560.59 61.415 560.752 61.2572 560.752 60.9854C560.752 60.6523 560.638 60.3805 560.41 60.1701C560.182 59.9597 559.84 59.8545 559.384 59.8545C558.963 59.8545 558.63 59.9729 558.385 60.2096C558.139 60.4375 557.995 60.7443 557.951 61.1301L556.767 60.8539C556.829 60.249 557.105 59.7581 557.596 59.3811C558.087 58.9954 558.674 58.8025 559.358 58.8025C560.252 58.8025 560.914 59.0217 561.344 59.46C561.773 59.8896 561.988 60.4419 561.988 61.1169V64.2861C561.988 64.6631 562.014 65.0093 562.067 65.325H560.857C560.813 65.0619 560.791 64.777 560.791 64.4702C560.616 64.7507 560.357 64.9962 560.015 65.2066C559.682 65.417 559.261 65.5222 558.753 65.5222C558.131 65.5222 557.622 65.3381 557.228 64.9699C556.833 64.5929 556.636 64.1458 556.636 63.6286ZM558.924 64.4833C559.476 64.4833 559.919 64.3343 560.252 64.0362C560.585 63.7382 560.752 63.2648 560.752 62.616V62.3267L558.819 62.616C558.538 62.6599 558.315 62.7607 558.148 62.9185C557.981 63.0763 557.898 63.2911 557.898 63.5628C557.898 63.8083 557.99 64.0231 558.174 64.2072C558.367 64.3913 558.617 64.4833 558.924 64.4833ZM564.917 65.325H563.694V55.8043H564.917V59.894C565.084 59.5871 565.347 59.3329 565.706 59.1313C566.075 58.9209 566.508 58.8157 567.008 58.8157C567.929 58.8157 568.643 59.1269 569.152 59.7493C569.66 60.3718 569.914 61.1651 569.914 62.1295C569.914 63.1026 569.651 63.9091 569.125 64.5491C568.599 65.1803 567.88 65.4959 566.969 65.4959C566.022 65.4959 565.338 65.1321 564.917 64.4044V65.325ZM568.139 63.7732C568.481 63.3612 568.652 62.8133 568.652 62.1295C568.652 61.4457 568.481 60.9065 568.139 60.512C567.806 60.1087 567.354 59.9071 566.785 59.9071C566.232 59.9071 565.781 60.1087 565.43 60.512C565.079 60.9153 564.904 61.4544 564.904 62.1295C564.904 62.8045 565.079 63.3524 565.43 63.7732C565.781 64.1853 566.232 64.3913 566.785 64.3913C567.346 64.3913 567.797 64.1853 568.139 63.7732ZM570.876 63.6286C570.876 63.0851 571.051 62.6511 571.402 62.3267C571.752 61.9936 572.217 61.7876 572.796 61.7087L574.505 61.4588C574.83 61.415 574.992 61.2572 574.992 60.9854C574.992 60.6523 574.878 60.3805 574.65 60.1701C574.422 59.9597 574.08 59.8545 573.624 59.8545C573.203 59.8545 572.87 59.9729 572.625 60.2096C572.379 60.4375 572.235 60.7443 572.191 61.1301L571.007 60.8539C571.069 60.249 571.345 59.7581 571.836 59.3811C572.327 58.9954 572.914 58.8025 573.598 58.8025C574.492 58.8025 575.154 59.0217 575.583 59.46C576.013 59.8896 576.228 60.4419 576.228 61.1169V64.2861C576.228 64.6631 576.254 65.0093 576.307 65.325H575.097C575.053 65.0619 575.031 64.777 575.031 64.4702C574.856 64.7507 574.597 64.9962 574.255 65.2066C573.922 65.417 573.501 65.5222 572.993 65.5222C572.37 65.5222 571.862 65.3381 571.467 64.9699C571.073 64.5929 570.876 64.1458 570.876 63.6286ZM573.164 64.4833C573.716 64.4833 574.159 64.3343 574.492 64.0362C574.825 63.7382 574.992 63.2648 574.992 62.616V62.3267L573.059 62.616C572.778 62.6599 572.555 62.7607 572.388 62.9185C572.221 63.0763 572.138 63.2911 572.138 63.5628C572.138 63.8083 572.23 64.0231 572.414 64.2072C572.607 64.3913 572.857 64.4833 573.164 64.4833ZM577.343 63.6812L578.46 63.2867C578.504 63.6286 578.653 63.9135 578.907 64.1414C579.162 64.3606 579.504 64.4702 579.933 64.4702C580.266 64.4702 580.529 64.3913 580.722 64.2335C580.915 64.0669 581.011 63.8653 581.011 63.6286C581.011 63.2078 580.74 62.936 580.196 62.8133L579.118 62.5766C578.627 62.4714 578.241 62.261 577.961 61.9454C577.68 61.6298 577.54 61.2484 577.54 60.8013C577.54 60.2578 577.759 59.7888 578.197 59.3943C578.644 58.9998 579.175 58.8025 579.788 58.8025C580.192 58.8025 580.551 58.8639 580.867 58.9866C581.182 59.1006 581.428 59.254 581.603 59.4469C581.779 59.6397 581.91 59.8194 581.998 59.986C582.085 60.1526 582.151 60.3235 582.195 60.4989L581.103 60.9065C581.086 60.8013 581.055 60.7005 581.011 60.6041C580.968 60.4989 580.897 60.3849 580.801 60.2622C580.713 60.1394 580.582 60.043 580.407 59.9729C580.231 59.894 580.025 59.8545 579.788 59.8545C579.482 59.8545 579.227 59.9378 579.026 60.1044C578.833 60.2709 578.736 60.4682 578.736 60.6961C578.736 61.0994 578.978 61.3536 579.46 61.4588L580.485 61.6824C581.046 61.8051 581.476 62.033 581.774 62.3662C582.081 62.6906 582.234 63.0894 582.234 63.5628C582.234 64.0625 582.028 64.514 581.616 64.9173C581.213 65.3206 580.648 65.5222 579.92 65.5222C579.14 65.5222 578.53 65.3293 578.092 64.9436C577.654 64.5491 577.404 64.1283 577.343 63.6812ZM584.399 61.5114H587.857C587.84 61.038 587.682 60.6523 587.384 60.3542C587.086 60.0474 586.665 59.894 586.122 59.894C585.631 59.894 585.227 60.0561 584.912 60.3805C584.596 60.6961 584.425 61.0731 584.399 61.5114ZM588.041 63.1552L589.107 63.5234C588.922 64.1108 588.581 64.5929 588.081 64.9699C587.581 65.3381 586.976 65.5222 586.266 65.5222C585.381 65.5222 584.627 65.2198 584.004 64.6148C583.391 64.0012 583.084 63.1771 583.084 62.1426C583.084 61.1783 583.382 60.3805 583.978 59.7493C584.574 59.1181 585.284 58.8025 586.108 58.8025C587.064 58.8025 587.809 59.105 588.344 59.7099C588.879 60.306 589.146 61.1082 589.146 62.1163C589.146 62.2741 589.137 62.4056 589.12 62.5108H584.359C584.368 63.0719 584.552 63.5322 584.912 63.8916C585.28 64.251 585.731 64.4307 586.266 64.4307C587.169 64.4307 587.761 64.0056 588.041 63.1552ZM537.689 86.325H536.413V79.0661L533.231 86.325H532.048L528.892 79.0661V86.325H527.616V77.0015H529.365L532.653 84.5891L535.966 77.0015H537.689V86.325ZM539.25 84.6286C539.25 84.0851 539.426 83.6511 539.776 83.3267C540.127 82.9936 540.592 82.7876 541.17 82.7087L542.88 82.4588C543.204 82.415 543.366 82.2572 543.366 81.9854C543.366 81.6523 543.252 81.3805 543.025 81.1701C542.797 80.9597 542.455 80.8545 541.999 80.8545C541.578 80.8545 541.245 80.9729 540.999 81.2096C540.754 81.4375 540.609 81.7443 540.565 82.1301L539.382 81.8539C539.443 81.249 539.719 80.7581 540.21 80.3811C540.701 79.9954 541.289 79.8025 541.973 79.8025C542.867 79.8025 543.529 80.0217 543.958 80.46C544.388 80.8896 544.603 81.4419 544.603 82.1169V85.2861C544.603 85.6631 544.629 86.0093 544.681 86.325H543.472C543.428 86.0619 543.406 85.777 543.406 85.4702C543.231 85.7507 542.972 85.9962 542.63 86.2066C542.297 86.417 541.876 86.5222 541.368 86.5222C540.745 86.5222 540.237 86.3381 539.842 85.9699C539.448 85.5929 539.25 85.1458 539.25 84.6286ZM541.539 85.4833C542.091 85.4833 542.534 85.3343 542.867 85.0362C543.2 84.7382 543.366 84.2648 543.366 83.616V83.3267L541.433 83.616C541.153 83.6599 540.929 83.7607 540.763 83.9185C540.596 84.0763 540.513 84.2911 540.513 84.5628C540.513 84.8083 540.605 85.0231 540.789 85.2072C540.982 85.3913 541.232 85.4833 541.539 85.4833ZM549.82 79.934V81.249C549.636 81.2227 549.456 81.2096 549.281 81.2096C548.124 81.2096 547.545 81.8583 547.545 83.1558V86.325H546.309V79.9998H547.519V81.1044C547.905 80.2978 548.536 79.8946 549.412 79.8946C549.553 79.8946 549.689 79.9077 549.82 79.934ZM556.586 79.9998L553.89 82.6692L556.639 86.325H555.087L553.022 83.5371L552.141 84.4182V86.325H550.918V76.8043H552.141V82.8007L554.877 79.9998H556.586ZM558.076 82.5114H561.535C561.517 82.038 561.36 81.6523 561.061 81.3542C560.763 81.0474 560.343 80.894 559.799 80.894C559.308 80.894 558.905 81.0561 558.589 81.3805C558.274 81.6961 558.103 82.0731 558.076 82.5114ZM561.719 84.1552L562.784 84.5234C562.6 85.1108 562.258 85.5929 561.758 85.9699C561.259 86.3381 560.654 86.5222 559.944 86.5222C559.058 86.5222 558.304 86.2198 557.682 85.6148C557.068 85.0012 556.761 84.1771 556.761 83.1426C556.761 82.1783 557.059 81.3805 557.656 80.7493C558.252 80.1181 558.962 79.8025 559.786 79.8025C560.742 79.8025 561.487 80.105 562.021 80.7099C562.556 81.306 562.824 82.1082 562.824 83.1163C562.824 83.2741 562.815 83.4056 562.797 83.5108H558.037C558.046 84.0719 558.23 84.5322 558.589 84.8916C558.957 85.251 559.409 85.4307 559.944 85.4307C560.847 85.4307 561.438 85.0056 561.719 84.1552ZM565.839 78.0009V79.9998H567.207V81.1175H565.839V84.405C565.839 84.7031 565.905 84.9223 566.037 85.0625C566.177 85.2028 566.405 85.2729 566.72 85.2729C566.904 85.2729 567.067 85.2554 567.207 85.2203V86.2724C566.996 86.3513 566.716 86.3907 566.365 86.3907C565.822 86.3907 565.392 86.2329 565.077 85.9173C564.761 85.6017 564.603 85.159 564.603 84.5891V81.1175H563.393V79.9998H563.735C564.06 79.9998 564.301 79.9121 564.458 79.7368C564.625 79.5527 564.708 79.316 564.708 79.0267V78.0009H565.839ZM569.732 88.8235H568.509V79.9998H569.706V80.986C569.89 80.6529 570.166 80.3811 570.534 80.1707C570.903 79.9603 571.332 79.8551 571.823 79.8551C572.735 79.8551 573.445 80.1663 573.953 80.7888C574.471 81.4112 574.729 82.2002 574.729 83.1558C574.729 84.1201 574.462 84.9179 573.927 85.5491C573.401 86.1803 572.687 86.4959 571.784 86.4959C571.319 86.4959 570.907 86.3995 570.547 86.2066C570.188 86.0137 569.916 85.7683 569.732 85.4702V88.8235ZM573.467 83.1558C573.467 82.5158 573.296 81.9898 572.954 81.5778C572.621 81.157 572.169 80.9466 571.599 80.9466C571.038 80.9466 570.583 81.157 570.232 81.5778C569.89 81.9898 569.719 82.5158 569.719 83.1558C569.719 83.8133 569.89 84.3524 570.232 84.7732C570.583 85.1853 571.038 85.3913 571.599 85.3913C572.161 85.3913 572.612 85.1853 572.954 84.7732C573.296 84.3524 573.467 83.8133 573.467 83.1558ZM577.321 86.325H576.085V76.8043H577.321V86.325ZM578.81 84.6286C578.81 84.0851 578.986 83.6511 579.336 83.3267C579.687 82.9936 580.152 82.7876 580.73 82.7087L582.44 82.4588C582.764 82.415 582.926 82.2572 582.926 81.9854C582.926 81.6523 582.812 81.3805 582.584 81.1701C582.356 80.9597 582.015 80.8545 581.559 80.8545C581.138 80.8545 580.805 80.9729 580.559 81.2096C580.314 81.4375 580.169 81.7443 580.125 82.1301L578.942 81.8539C579.003 81.249 579.279 80.7581 579.77 80.3811C580.261 79.9954 580.849 79.8025 581.532 79.8025C582.427 79.8025 583.088 80.0217 583.518 80.46C583.948 80.8896 584.162 81.4419 584.162 82.1169V85.2861C584.162 85.6631 584.189 86.0093 584.241 86.325H583.031C582.988 86.0619 582.966 85.777 582.966 85.4702C582.79 85.7507 582.532 85.9962 582.19 86.2066C581.857 86.417 581.436 86.5222 580.927 86.5222C580.305 86.5222 579.797 86.3381 579.402 85.9699C579.008 85.5929 578.81 85.1458 578.81 84.6286ZM581.098 85.4833C581.651 85.4833 582.093 85.3343 582.427 85.0362C582.76 84.7382 582.926 84.2648 582.926 83.616V83.3267L580.993 83.616C580.713 83.6599 580.489 83.7607 580.323 83.9185C580.156 84.0763 580.073 84.2911 580.073 84.5628C580.073 84.8083 580.165 85.0231 580.349 85.2072C580.542 85.3913 580.792 85.4833 581.098 85.4833ZM588.525 80.9466C587.99 80.9466 587.535 81.1394 587.158 81.5252C586.789 81.9109 586.605 82.4544 586.605 83.1558C586.605 83.8484 586.789 84.3919 587.158 84.7864C587.535 85.1809 587.995 85.3781 588.538 85.3781C589.064 85.3781 589.463 85.2466 589.735 84.9836C590.016 84.7206 590.204 84.4182 590.3 84.0763L591.392 84.5497C591.217 85.0757 590.883 85.5359 590.392 85.9304C589.91 86.325 589.292 86.5222 588.538 86.5222C587.618 86.5222 586.855 86.2022 586.25 85.5622C585.645 84.9223 585.343 84.1201 585.343 83.1558C585.343 82.1739 585.645 81.3718 586.25 80.7493C586.855 80.1181 587.613 79.8025 588.525 79.8025C589.297 79.8025 589.919 79.9998 590.392 80.3943C590.875 80.7888 591.19 81.2622 591.339 81.8145L590.222 82.2879C590.125 81.9197 589.941 81.6041 589.669 81.3411C589.397 81.0781 589.016 80.9466 588.525 80.9466ZM593.361 82.5114H596.819C596.802 82.038 596.644 81.6523 596.346 81.3542C596.048 81.0474 595.627 80.894 595.083 80.894C594.593 80.894 594.189 81.0561 593.874 81.3805C593.558 81.6961 593.387 82.0731 593.361 82.5114ZM597.003 84.1552L598.069 84.5234C597.884 85.1108 597.543 85.5929 597.043 85.9699C596.543 86.3381 595.938 86.5222 595.228 86.5222C594.343 86.5222 593.589 86.2198 592.966 85.6148C592.353 85.0012 592.046 84.1771 592.046 83.1426C592.046 82.1783 592.344 81.3805 592.94 80.7493C593.536 80.1181 594.246 79.8025 595.07 79.8025C596.026 79.8025 596.771 80.105 597.306 80.7099C597.841 81.306 598.108 82.1082 598.108 83.1163C598.108 83.2741 598.099 83.4056 598.082 83.5108H593.321C593.33 84.0719 593.514 84.5322 593.874 84.8916C594.242 85.251 594.693 85.4307 595.228 85.4307C596.131 85.4307 596.723 85.0056 597.003 84.1552Z" fill="white"/>
<path d="M135.413 97.4922L138.646 105.153H156.464L161.612 119.324L168.641 119.324" stroke="#D9F5FE" stroke-width="1.09584"/>
<path d="M544.209 194.917L538.921 205.8H521.103L517.985 214.753H504.55" stroke="#D9F5FE" stroke-width="1.09584"/>
<path d="M558.24 331.906L550.335 331.906H532.517L529.399 336.382H522.682V340.99" stroke="#D9F5FE" stroke-width="1.09584"/>
<path d="M162.002 243.543H154.805H145.896L140.821 235.555" stroke="#D9F5FE" stroke-width="2.19168"/>
<path d="M159.655 350.623L155.819 356.193H138.001" stroke="#D9F5FE" stroke-width="1.09584"/>
<path d="M86.5131 105.153H93.7095H111.528" stroke="#D9F5FE" stroke-width="1.09584"/>
<defs>
<filter id="filter0_f_298_1536" x="55.3109" y="70.9713" width="132.371" height="53.4424" filterUnits="userSpaceOnUse" color-interpolation-filters="sRGB">
<feFlood flood-opacity="0" result="BackgroundImageFix"/>
<feBlend mode="normal" in="SourceGraphic" in2="BackgroundImageFix" result="shape"/>
<feGaussianBlur stdDeviation="13.1501" result="effect1_foregroundBlur_298_1536"/>
</filter>
<filter id="filter1_f_298_1536" x="90.742" y="93.7924" width="61.5087" height="6.95807" filterUnits="userSpaceOnUse" color-interpolation-filters="sRGB">
<feFlood flood-opacity="0" result="BackgroundImageFix"/>
<feBlend mode="normal" in="SourceGraphic" in2="BackgroundImageFix" result="shape"/>
<feGaussianBlur stdDeviation="1.09584" result="effect1_foregroundBlur_298_1536"/>
</filter>
<filter id="filter2_f_298_1536" x="520.855" y="191.47" width="61.5087" height="6.95807" filterUnits="userSpaceOnUse" color-interpolation-filters="sRGB">
<feFlood flood-opacity="0" result="BackgroundImageFix"/>
<feBlend mode="normal" in="SourceGraphic" in2="BackgroundImageFix" result="shape"/>
<feGaussianBlur stdDeviation="1.09584" result="effect1_foregroundBlur_298_1536"/>
</filter>
<filter id="filter3_f_298_1536" x="128.288" y="322.892" width="132.371" height="53.4424" filterUnits="userSpaceOnUse" color-interpolation-filters="sRGB">
<feFlood flood-opacity="0" result="BackgroundImageFix"/>
<feBlend mode="normal" in="SourceGraphic" in2="BackgroundImageFix" result="shape"/>
<feGaussianBlur stdDeviation="13.1501" result="effect1_foregroundBlur_298_1536"/>
</filter>
<filter id="filter4_f_298_1536" x="163.719" y="346.556" width="61.5087" height="6.95807" filterUnits="userSpaceOnUse" color-interpolation-filters="sRGB">
<feFlood flood-opacity="0" result="BackgroundImageFix"/>
<feBlend mode="normal" in="SourceGraphic" in2="BackgroundImageFix" result="shape"/>
<feGaussianBlur stdDeviation="1.09584" result="effect1_foregroundBlur_298_1536"/>
</filter>
<filter id="filter5_f_298_1536" x="470.155" y="314" width="132.371" height="53.4424" filterUnits="userSpaceOnUse" color-interpolation-filters="sRGB">
<feFlood flood-opacity="0" result="BackgroundImageFix"/>
<feBlend mode="normal" in="SourceGraphic" in2="BackgroundImageFix" result="shape"/>
<feGaussianBlur stdDeviation="13.1501" result="effect1_foregroundBlur_298_1536"/>
</filter>
<filter id="filter6_f_298_1536" x="489.065" y="337.663" width="61.5087" height="6.95807" filterUnits="userSpaceOnUse" color-interpolation-filters="sRGB">
<feFlood flood-opacity="0" result="BackgroundImageFix"/>
<feBlend mode="normal" in="SourceGraphic" in2="BackgroundImageFix" result="shape"/>
<feGaussianBlur stdDeviation="1.09584" result="effect1_foregroundBlur_298_1536"/>
</filter>
<filter id="filter7_f_298_1536" x="421.934" y="5.33533" width="132.371" height="53.4424" filterUnits="userSpaceOnUse" color-interpolation-filters="sRGB">
<feFlood flood-opacity="0" result="BackgroundImageFix"/>
<feBlend mode="normal" in="SourceGraphic" in2="BackgroundImageFix" result="shape"/>
<feGaussianBlur stdDeviation="13.1501" result="effect1_foregroundBlur_298_1536"/>
</filter>
<filter id="filter8_f_298_1536" x="457.365" y="28.1567" width="61.5087" height="6.95807" filterUnits="userSpaceOnUse" color-interpolation-filters="sRGB">
<feFlood flood-opacity="0" result="BackgroundImageFix"/>
<feBlend mode="normal" in="SourceGraphic" in2="BackgroundImageFix" result="shape"/>
<feGaussianBlur stdDeviation="1.09584" result="effect1_foregroundBlur_298_1536"/>
</filter>
<filter id="filter9_f_298_1536" x="81.5236" y="209.544" width="105.666" height="53.4424" filterUnits="userSpaceOnUse" color-interpolation-filters="sRGB">
<feFlood flood-opacity="0" result="BackgroundImageFix"/>
<feBlend mode="normal" in="SourceGraphic" in2="BackgroundImageFix" result="shape"/>
<feGaussianBlur stdDeviation="13.1501" result="effect1_foregroundBlur_298_1536"/>
</filter>
<filter id="filter10_f_298_1536" x="113.164" y="232.366" width="42.3849" height="6.95807" filterUnits="userSpaceOnUse" color-interpolation-filters="sRGB">
<feFlood flood-opacity="0" result="BackgroundImageFix"/>
<feBlend mode="normal" in="SourceGraphic" in2="BackgroundImageFix" result="shape"/>
<feGaussianBlur stdDeviation="1.09584" result="effect1_foregroundBlur_298_1536"/>
</filter>
<filter id="filter11_f_298_1536" x="155.545" y="31.7153" width="370.799" height="370.799" filterUnits="userSpaceOnUse" color-interpolation-filters="sRGB">
<feFlood flood-opacity="0" result="BackgroundImageFix"/>
<feBlend mode="normal" in="SourceGraphic" in2="BackgroundImageFix" result="shape"/>
<feGaussianBlur stdDeviation="9.86256" result="effect1_foregroundBlur_298_1536"/>
</filter>
<linearGradient id="paint0_linear_298_1536" x1="65.5945" y1="97.2715" x2="205.092" y2="136.881" gradientUnits="userSpaceOnUse">
<stop stop-color="#D9F5FE"/>
<stop offset="0.28994" stop-color="#55ABFF"/>
<stop offset="0.890568" stop-color="#AED7FF"/>
<stop offset="1" stop-color="#BFDFFF" stop-opacity="0"/>
</linearGradient>
<linearGradient id="paint1_linear_298_1536" x1="607.511" y1="194.949" x2="468.013" y2="234.558" gradientUnits="userSpaceOnUse">
<stop stop-color="#D9F5FE"/>
<stop offset="0.28994" stop-color="#55ABFF"/>
<stop offset="0.890568" stop-color="#AED7FF"/>
<stop offset="1" stop-color="#BFDFFF" stop-opacity="0"/>
</linearGradient>
<linearGradient id="paint2_linear_298_1536" x1="138.571" y1="350.035" x2="278.069" y2="310.425" gradientUnits="userSpaceOnUse">
<stop stop-color="#D9F5FE"/>
<stop offset="0.28994" stop-color="#55ABFF"/>
<stop offset="0.890568" stop-color="#AED7FF"/>
<stop offset="1" stop-color="#BFDFFF" stop-opacity="0"/>
</linearGradient>
<linearGradient id="paint3_linear_298_1536" x1="557.174" y1="341.142" x2="449.468" y2="318.31" gradientUnits="userSpaceOnUse">
<stop stop-color="#D9F5FE"/>
<stop offset="0.28994" stop-color="#55ABFF"/>
<stop offset="0.890568" stop-color="#AED7FF"/>
<stop offset="1" stop-color="#BFDFFF" stop-opacity="0"/>
</linearGradient>
<linearGradient id="paint4_linear_298_1536" x1="544.022" y1="31.6355" x2="404.524" y2="71.2447" gradientUnits="userSpaceOnUse">
<stop stop-color="#D9F5FE"/>
<stop offset="0.28994" stop-color="#55ABFF"/>
<stop offset="0.890568" stop-color="#AED7FF"/>
<stop offset="1" stop-color="#BFDFFF" stop-opacity="0"/>
</linearGradient>
<linearGradient id="paint5_linear_298_1536" x1="97.1691" y1="235.844" x2="193.995" y2="254.134" gradientUnits="userSpaceOnUse">
<stop stop-color="#D9F5FE"/>
<stop offset="0.28994" stop-color="#55ABFF"/>
<stop offset="0.890568" stop-color="#AED7FF"/>
<stop offset="1" stop-color="#BFDFFF" stop-opacity="0"/>
</linearGradient>
<linearGradient id="paint6_linear_298_1536" x1="340.944" y1="51.4404" x2="340.944" y2="382.789" gradientUnits="userSpaceOnUse">
<stop stop-color="white"/>
<stop offset="1" stop-color="white" stop-opacity="0"/>
</linearGradient>
<radialGradient id="paint7_radial_298_1536" cx="0" cy="0" r="1" gradientUnits="userSpaceOnUse" gradientTransform="translate(325.166 51.4404) rotate(87.2737) scale(331.724)">
<stop stop-color="white"/>
<stop offset="0.256088" stop-color="white" stop-opacity="0.26"/>
<stop offset="0.257765" stop-color="white" stop-opacity="0.75173"/>
<stop offset="0.522932" stop-color="white" stop-opacity="0.483171"/>
<stop offset="0.603264" stop-color="white" stop-opacity="0.401811"/>
<stop offset="0.604102" stop-color="white" stop-opacity="0.185039"/>
<stop offset="0.71545" stop-color="white" stop-opacity="0.132996"/>
<stop offset="0.853063" stop-color="white" stop-opacity="0.82"/>
<stop offset="0.853163" stop-color="white" stop-opacity="0.415434"/>
<stop offset="0.993725" stop-color="white" stop-opacity="0.31"/>
<stop offset="1" stop-color="white"/>
</radialGradient>
<radialGradient id="paint8_radial_298_1536" cx="0" cy="0" r="1" gradientUnits="userSpaceOnUse" gradientTransform="translate(328.899 90.6409) rotate(87.2737) scale(253.234)">
<stop stop-color="white"/>
<stop offset="0.256088" stop-color="white" stop-opacity="0.26"/>
<stop offset="0.257765" stop-color="white" stop-opacity="0.75173"/>
<stop offset="0.522932" stop-color="white" stop-opacity="0.483171"/>
<stop offset="0.603264" stop-color="white" stop-opacity="0.401811"/>
<stop offset="0.604102" stop-color="white" stop-opacity="0.185039"/>
<stop offset="0.71545" stop-color="white" stop-opacity="0.132996"/>
<stop offset="0.853063" stop-color="white" stop-opacity="0.82"/>
<stop offset="0.853163" stop-color="white" stop-opacity="0.415434"/>
<stop offset="0.993725" stop-color="white" stop-opacity="0.31"/>
<stop offset="1" stop-color="white"/>
</radialGradient>
<radialGradient id="paint9_radial_298_1536" cx="0" cy="0" r="1" gradientUnits="userSpaceOnUse" gradientTransform="translate(327.052 71.2446) rotate(87.2737) scale(292.07)">
<stop stop-color="white"/>
<stop offset="0.256088" stop-color="white" stop-opacity="0.26"/>
<stop offset="0.257765" stop-color="white" stop-opacity="0.75173"/>
<stop offset="0.522932" stop-color="white" stop-opacity="0.483171"/>
<stop offset="0.603264" stop-color="white" stop-opacity="0.401811"/>
<stop offset="0.604102" stop-color="white" stop-opacity="0.185039"/>
<stop offset="0.71545" stop-color="white" stop-opacity="0.132996"/>
<stop offset="0.853063" stop-color="white" stop-opacity="0.82"/>
<stop offset="0.853163" stop-color="white" stop-opacity="0.415434"/>
<stop offset="0.993725" stop-color="white" stop-opacity="0.31"/>
<stop offset="1" stop-color="white"/>
</radialGradient>
</defs>
</svg>
