<svg width="681" height="391" viewBox="0 0 681 391" fill="none" xmlns="http://www.w3.org/2000/svg">
<path d="M66.0065 92.2715H161.722L175.937 131.881H225.019" stroke="url(#paint0_linear_632_381)" stroke-width="1.64376"/>
<g filter="url(#filter0_f_632_381)">
<ellipse cx="121.908" cy="92.6925" rx="39.8853" ry="0.420971" fill="white"/>
</g>
<g filter="url(#filter1_f_632_381)">
<ellipse cx="121.908" cy="92.2715" rx="28.5627" ry="1.28734" fill="white"/>
</g>
<path d="M607.923 189.949H512.207L497.992 229.558H485.138" stroke="url(#paint1_linear_632_381)" stroke-width="1.64376"/>
<g filter="url(#filter2_f_632_381)">
<ellipse cx="28.5627" cy="1.28734" rx="28.5627" ry="1.28734" transform="matrix(-1 0 0 1 580.584 188.662)" fill="white"/>
</g>
<path d="M138.983 345.035L234.699 345.035L234.699 316.981L239.707 316.981" stroke="url(#paint2_linear_632_381)" stroke-width="1.64376"/>
<g filter="url(#filter3_f_632_381)">
<ellipse cx="39.8853" cy="0.420971" rx="39.8853" ry="0.420971" transform="matrix(1 1.74846e-07 1.74846e-07 -1 155 345.035)" fill="white"/>
</g>
<g filter="url(#filter4_f_632_381)">
<ellipse cx="28.5627" cy="1.28734" rx="28.5627" ry="1.28734" transform="matrix(1 1.74846e-07 1.74846e-07 -1 166.322 346.322)" fill="white"/>
</g>
<path d="M557.586 336.142L486.124 336.142L475.511 296.533L454.262 296.533" stroke="url(#paint3_linear_632_381)" stroke-width="1.64376"/>
<g filter="url(#filter5_f_632_381)">
<ellipse cx="536.753" cy="335.721" rx="39.8853" ry="0.420971" transform="rotate(180 536.753 335.721)" fill="white"/>
</g>
<g filter="url(#filter6_f_632_381)">
<ellipse cx="520.231" cy="336.142" rx="28.5627" ry="1.28734" transform="rotate(180 520.231 336.142)" fill="white"/>
</g>
<path d="M544.434 26.6355L448.718 26.6355L434.503 66.2447L385.421 66.2447" stroke="url(#paint4_linear_632_381)" stroke-width="1.64376"/>
<g filter="url(#filter7_f_632_381)">
<ellipse cx="39.8853" cy="0.420971" rx="39.8853" ry="0.420971" transform="matrix(-1 -8.74228e-08 -8.74228e-08 1 528.417 26.6355)" fill="white"/>
</g>
<g filter="url(#filter8_f_632_381)">
<ellipse cx="28.5627" cy="1.28734" rx="28.5627" ry="1.28734" transform="matrix(-1 -8.74228e-08 -8.74228e-08 1 517.094 25.3484)" fill="white"/>
</g>
<path d="M97.581 230.844H161.254L170.711 270.454H187.261" stroke="url(#paint5_linear_632_381)" stroke-width="1.64376"/>
<g filter="url(#filter9_f_632_381)">
<ellipse cx="134.769" cy="231.265" rx="26.533" ry="0.420971" fill="white"/>
</g>
<g filter="url(#filter10_f_632_381)">
<ellipse cx="134.769" cy="230.845" rx="19.0008" ry="1.28734" fill="white"/>
</g>
<path d="M57.6564 86.6555H47.7239V96.5879H57.6564V86.6555Z" stroke="white" stroke-width="1.64161" stroke-linecap="round" stroke-linejoin="round"/>
<path d="M65.4605 77.4321H39.92C39.1363 77.4321 38.5011 78.0674 38.5011 78.851V104.392C38.5011 105.175 39.1363 105.81 39.92 105.81H65.4605C66.2442 105.81 66.8794 105.175 66.8794 104.392V78.851C66.8794 78.0674 66.2442 77.4321 65.4605 77.4321Z" stroke="white" stroke-width="1.64161" stroke-linecap="round" stroke-linejoin="round"/>
<path d="M66.8795 87.3647H71.1363" stroke="white" stroke-width="1.64161" stroke-linecap="round" stroke-linejoin="round"/>
<path d="M66.8795 95.8784H71.1363" stroke="white" stroke-width="1.64161" stroke-linecap="round" stroke-linejoin="round"/>
<path d="M34.2443 87.3647H38.5011" stroke="white" stroke-width="1.64161" stroke-linecap="round" stroke-linejoin="round"/>
<path d="M34.2443 95.8784H38.5011" stroke="white" stroke-width="1.64161" stroke-linecap="round" stroke-linejoin="round"/>
<path d="M56.947 105.811V110.067" stroke="white" stroke-width="1.64161" stroke-linecap="round" stroke-linejoin="round"/>
<path d="M48.4335 105.811V110.067" stroke="white" stroke-width="1.64161" stroke-linecap="round" stroke-linejoin="round"/>
<path d="M56.947 73.1758V77.4325" stroke="white" stroke-width="1.64161" stroke-linecap="round" stroke-linejoin="round"/>
<path d="M48.4335 73.1758V77.4325" stroke="white" stroke-width="1.64161" stroke-linecap="round" stroke-linejoin="round"/>
<path d="M557.109 25.3488C564.524 25.3488 570.535 22.0699 570.535 18.0252C570.535 13.9805 564.524 10.7017 557.109 10.7017C549.693 10.7017 543.682 13.9805 543.682 18.0252C543.682 22.0699 549.693 25.3488 557.109 25.3488Z" stroke="white" stroke-width="1.41216" stroke-linecap="round" stroke-linejoin="round"/>
<path d="M543.682 18.0251V25.3487C543.682 29.3919 549.693 32.6723 557.109 32.6723C564.524 32.6723 570.535 29.3919 570.535 25.3487V18.0251" stroke="white" stroke-width="1.41216" stroke-linecap="round" stroke-linejoin="round"/>
<path d="M543.682 25.3486V32.6722C543.682 36.7154 549.693 39.9957 557.109 39.9957C564.524 39.9957 570.535 36.7154 570.535 32.6722V25.3486" stroke="white" stroke-width="1.41216" stroke-linecap="round" stroke-linejoin="round"/>
<path d="M98.1266 239.462V221.648C98.1252 221.391 98.056 221.138 97.926 220.916C97.7959 220.694 97.6096 220.511 97.3859 220.383L81.4869 211.44C81.2726 211.317 81.0296 211.251 80.7822 211.251C80.5349 211.251 80.2919 211.317 80.0776 211.44L64.1786 220.383C63.9549 220.511 63.7686 220.694 63.6385 220.916C63.5085 221.138 63.4392 221.391 63.4379 221.648V239.462C63.4392 239.72 63.5085 239.972 63.6385 240.194C63.7686 240.416 63.9549 240.6 64.1786 240.727L80.0776 249.67C80.2919 249.794 80.5349 249.859 80.7822 249.859C81.0296 249.859 81.2726 249.794 81.4869 249.67L97.3859 240.727C97.6096 240.6 97.7959 240.416 97.926 240.194C98.056 239.972 98.1252 239.72 98.1266 239.462V239.462Z" stroke="white" stroke-width="1.6493" stroke-linecap="round" stroke-linejoin="round"/>
<path d="M97.9275 220.907L80.9445 230.555L63.6362 220.907" stroke="white" stroke-width="1.6493" stroke-linecap="round" stroke-linejoin="round"/>
<path d="M80.9448 230.555L80.7822 249.85" stroke="white" stroke-width="1.6493" stroke-linecap="round" stroke-linejoin="round"/>
<path d="M121.7 352.463H129.376" stroke="white" stroke-width="1.52243" stroke-linecap="round" stroke-linejoin="round"/>
<path d="M136.956 330.97H103.373C102.472 330.97 101.742 331.701 101.742 332.601V360.044C101.742 360.944 102.472 361.675 103.373 361.675H136.956C137.857 361.675 138.587 360.944 138.587 360.044V332.601C138.587 331.701 137.857 330.97 136.956 330.97Z" stroke="white" stroke-width="1.61473" stroke-linecap="round" stroke-linejoin="round"/>
<path d="M112.509 339.015V341.103" stroke="white" stroke-width="1.52243" stroke-linecap="round" stroke-linejoin="round"/>
<path d="M112.509 351.542V353.63" stroke="white" stroke-width="1.52243" stroke-linecap="round" stroke-linejoin="round"/>
<path d="M109.378 351.542H114.075C114.767 351.542 115.431 351.267 115.921 350.778C116.41 350.288 116.685 349.624 116.685 348.932C116.685 348.24 116.41 347.576 115.921 347.087C115.431 346.597 114.767 346.322 114.075 346.322H110.944C110.251 346.322 109.588 346.047 109.098 345.558C108.609 345.069 108.334 344.405 108.334 343.713C108.334 343.02 108.609 342.357 109.098 341.867C109.588 341.378 110.251 341.103 110.944 341.103H115.641" stroke="white" stroke-width="1.52243" stroke-linecap="round" stroke-linejoin="round"/>
<path d="M632.339 203.815H610.692C610.282 203.815 609.888 203.652 609.598 203.362C609.308 203.072 609.146 202.679 609.146 202.269V174.436C609.146 174.026 609.308 173.633 609.598 173.343C609.888 173.053 610.282 172.89 610.692 172.89H626.154L633.886 180.621V202.269C633.886 202.679 633.723 203.072 633.433 203.362C633.143 203.652 632.749 203.815 632.339 203.815Z" stroke="white" stroke-width="1.61003" stroke-linecap="round" stroke-linejoin="round"/>
<path d="M615.331 172.89V168.251C615.331 167.841 615.493 167.448 615.783 167.158C616.073 166.868 616.467 166.705 616.877 166.705H632.339L640.071 174.436V196.084C640.071 196.494 639.908 196.887 639.618 197.177C639.328 197.467 638.934 197.63 638.524 197.63H633.886" stroke="white" stroke-width="1.61003" stroke-linecap="round" stroke-linejoin="round"/>
<path d="M616.877 189.899H626.154" stroke="white" stroke-width="1.61003" stroke-linecap="round" stroke-linejoin="round"/>
<path d="M616.877 196.084H626.154" stroke="white" stroke-width="1.61003" stroke-linecap="round" stroke-linejoin="round"/>
<path d="M616.877 179.118L620.326 181.877L616.877 184.637" stroke="white" stroke-width="1.61003" stroke-linecap="round" stroke-linejoin="round"/>
<path d="M621.705 184.636H625.154" stroke="white" stroke-width="1.61003" stroke-linecap="round" stroke-linejoin="round"/>
<path d="M600.099 314.635H560.297C559.298 314.635 558.488 315.446 558.488 316.445V349.01C558.488 350.009 559.298 350.819 560.297 350.819H600.099C601.099 350.819 601.909 350.009 601.909 349.01V316.445C601.909 315.446 601.099 314.635 600.099 314.635Z" stroke="white" stroke-width="1.46316" stroke-linecap="round" stroke-linejoin="round"/>
<path d="M576.222 344.815H595.785V328.91" stroke="white" stroke-width="1.46316" stroke-linecap="round" stroke-linejoin="round"/>
<path d="M577.853 330.5L586.004 338.453L589.264 335.272L595.785 341.634" stroke="white" stroke-width="1.46316" stroke-linecap="round" stroke-linejoin="round"/>
<path d="M577.852 334.477V330.5H581.928" stroke="white" stroke-width="1.46316" stroke-linecap="round" stroke-linejoin="round"/>
<path d="M566.629 325.491C568.128 325.491 569.343 324.276 569.343 322.777C569.343 321.278 568.128 320.063 566.629 320.063C565.131 320.063 563.916 321.278 563.916 322.777C563.916 324.276 565.131 325.491 566.629 325.491Z" fill="white"/>
<path d="M575.675 325.491C577.174 325.491 578.389 324.276 578.389 322.777C578.389 321.278 577.174 320.063 575.675 320.063C574.177 320.063 572.962 321.278 572.962 322.777C572.962 324.276 574.177 325.491 575.675 325.491Z" fill="white"/>
<path d="M5.72985 131.864C4.45868 131.864 3.36722 131.425 2.45548 130.549C1.55251 129.672 1.10102 128.489 1.10102 126.998C1.10102 125.999 1.32896 125.122 1.78483 124.368C2.2407 123.614 2.81492 123.058 3.50749 122.698C4.20006 122.33 4.94085 122.146 5.72985 122.146C6.78186 122.146 7.6673 122.413 8.38617 122.948C9.11381 123.474 9.59598 124.193 9.83268 125.105L8.63602 125.525C8.46069 124.824 8.12317 124.285 7.62347 123.908C7.12376 123.522 6.49256 123.329 5.72985 123.329C4.81811 123.329 4.03788 123.654 3.38914 124.302C2.7404 124.942 2.41603 125.841 2.41603 126.998C2.41603 128.155 2.7404 129.058 3.38914 129.707C4.03788 130.356 4.81811 130.68 5.72985 130.68C6.49256 130.68 7.12815 130.479 7.63662 130.075C8.14509 129.663 8.50014 129.12 8.70177 128.445L9.84583 128.866C9.5916 129.769 9.10066 130.496 8.37302 131.048C7.65415 131.592 6.77309 131.864 5.72985 131.864ZM12.2497 130.167C12.6354 130.562 13.1045 130.759 13.6568 130.759C14.2091 130.759 14.6737 130.562 15.0507 130.167C15.4364 129.764 15.6293 129.207 15.6293 128.497C15.6293 127.796 15.4364 127.248 15.0507 126.854C14.6737 126.45 14.2091 126.249 13.6568 126.249C13.1045 126.249 12.6354 126.45 12.2497 126.854C11.8727 127.248 11.6842 127.796 11.6842 128.497C11.6842 129.207 11.8727 129.764 12.2497 130.167ZM11.3292 126.104C11.9429 125.464 12.7187 125.144 13.6568 125.144C14.5948 125.144 15.3663 125.464 15.9712 126.104C16.5848 126.735 16.8917 127.533 16.8917 128.497C16.8917 129.47 16.5892 130.277 15.9843 130.917C15.3794 131.548 14.6036 131.864 13.6568 131.864C12.7099 131.864 11.9341 131.548 11.3292 130.917C10.7243 130.277 10.4218 129.47 10.4218 128.497C10.4218 127.533 10.7243 126.735 11.3292 126.104ZM19.477 131.667H18.254V125.341H19.4375V126.183C19.6304 125.85 19.9022 125.596 20.2528 125.42C20.6035 125.245 20.9717 125.157 21.3574 125.157C21.7695 125.157 22.1464 125.258 22.4883 125.46C22.8302 125.661 23.0845 125.959 23.251 126.354C23.6894 125.556 24.3951 125.157 25.3682 125.157C25.9731 125.157 26.486 125.363 26.9068 125.775C27.3363 126.187 27.5511 126.783 27.5511 127.564V131.667H26.3282V127.695C26.3282 127.257 26.2142 126.906 25.9863 126.643C25.7671 126.38 25.434 126.249 24.9869 126.249C24.5573 126.249 24.2066 126.402 23.9348 126.709C23.6631 127.007 23.5272 127.384 23.5272 127.84V131.667H22.2911V127.695C22.2911 127.257 22.1771 126.906 21.9492 126.643C21.73 126.38 21.3969 126.249 20.9498 126.249C20.5114 126.249 20.1564 126.398 19.8846 126.696C19.6129 126.994 19.477 127.38 19.477 127.853V131.667ZM30.533 134.165H29.31V125.341H30.5067V126.328C30.6908 125.994 30.9669 125.723 31.3351 125.512C31.7033 125.302 32.1329 125.197 32.6238 125.197C33.5356 125.197 34.2457 125.508 34.7541 126.13C35.2714 126.753 35.53 127.542 35.53 128.497C35.53 129.462 35.2626 130.259 34.7278 130.891C34.2018 131.522 33.4874 131.837 32.5844 131.837C32.1197 131.837 31.7077 131.741 31.3483 131.548C30.9888 131.355 30.7171 131.11 30.533 130.812V134.165ZM34.2676 128.497C34.2676 127.857 34.0966 127.331 33.7547 126.919C33.4216 126.499 32.9701 126.288 32.4003 126.288C31.8392 126.288 31.3833 126.499 31.0327 126.919C30.6908 127.331 30.5198 127.857 30.5198 128.497C30.5198 129.155 30.6908 129.694 31.0327 130.115C31.3833 130.527 31.8392 130.733 32.4003 130.733C32.9614 130.733 33.4128 130.527 33.7547 130.115C34.0966 129.694 34.2676 129.155 34.2676 128.497ZM40.9902 130.904C40.8237 131.219 40.5694 131.46 40.2275 131.627C39.8856 131.785 39.5174 131.864 39.1229 131.864C38.4041 131.864 37.8298 131.627 37.4003 131.154C36.9707 130.671 36.7559 130.062 36.7559 129.326V125.341H37.992V129.142C37.992 129.615 38.106 130.005 38.3339 130.312C38.5706 130.619 38.9344 130.772 39.4254 130.772C39.9163 130.772 40.2889 130.628 40.5431 130.338C40.7974 130.04 40.9245 129.646 40.9245 129.155V125.341H42.1606V130.496C42.1606 130.908 42.1825 131.298 42.2263 131.667H41.0428C41.0078 131.474 40.9902 131.219 40.9902 130.904ZM45.7077 123.342V125.341H47.0753V126.459H45.7077V129.747C45.7077 130.045 45.7734 130.264 45.9049 130.404C46.0452 130.544 46.2731 130.614 46.5887 130.614C46.7729 130.614 46.935 130.597 47.0753 130.562V131.614C46.8649 131.693 46.5844 131.732 46.2337 131.732C45.6902 131.732 45.2606 131.574 44.945 131.259C44.6294 130.943 44.4716 130.501 44.4716 129.931V126.459H43.2618V125.341H43.6037C43.928 125.341 44.1691 125.254 44.3269 125.078C44.4935 124.894 44.5768 124.658 44.5768 124.368V123.342H45.7077ZM49.729 131.667H48.5061V125.341H49.729V131.667ZM48.4798 123.579C48.3132 123.404 48.2299 123.193 48.2299 122.948C48.2299 122.703 48.3132 122.492 48.4798 122.317C48.6551 122.141 48.8655 122.054 49.111 122.054C49.3564 122.054 49.5668 122.141 49.7422 122.317C49.9175 122.483 50.0052 122.694 50.0052 122.948C50.0052 123.193 49.9175 123.404 49.7422 123.579C49.5668 123.746 49.3564 123.829 49.111 123.829C48.8655 123.829 48.6551 123.746 48.4798 123.579ZM52.849 128.011V131.667H51.6129V125.341H52.8227V126.249C53.2435 125.521 53.8923 125.157 54.769 125.157C55.4966 125.157 56.0533 125.39 56.439 125.854C56.8335 126.319 57.0308 126.919 57.0308 127.656V131.667H55.7947V127.866C55.7947 126.805 55.3037 126.275 54.3219 126.275C53.8572 126.275 53.4934 126.442 53.2304 126.775C52.9762 127.099 52.849 127.511 52.849 128.011ZM58.3176 132.008L59.5143 131.732C59.5581 132.179 59.7378 132.548 60.0534 132.837C60.369 133.135 60.7635 133.284 61.2369 133.284C62.5256 133.284 63.17 132.6 63.17 131.233V130.325C63.0122 130.632 62.7623 130.882 62.4204 131.075C62.0873 131.268 61.6928 131.364 61.2369 131.364C60.3953 131.364 59.6984 131.079 59.1461 130.509C58.6025 129.931 58.3307 129.194 58.3307 128.3C58.3307 127.432 58.6025 126.705 59.1461 126.117C59.6896 125.521 60.3865 125.223 61.2369 125.223C62.2013 125.223 62.85 125.556 63.1831 126.222V125.341H64.4061V131.193C64.4061 131.614 64.3491 132.004 64.2351 132.363C64.1299 132.732 63.959 133.069 63.7223 133.376C63.4856 133.683 63.1524 133.924 62.7229 134.099C62.3021 134.275 61.8068 134.362 61.2369 134.362C60.4567 134.362 59.7948 134.139 59.2513 133.692C58.7077 133.253 58.3965 132.692 58.3176 132.008ZM61.421 130.325C61.9558 130.325 62.3897 130.141 62.7229 129.773C63.056 129.396 63.2226 128.905 63.2226 128.3C63.2226 127.695 63.056 127.209 62.7229 126.84C62.3897 126.463 61.9558 126.275 61.421 126.275C60.8775 126.275 60.4348 126.459 60.0929 126.827C59.7597 127.195 59.5932 127.686 59.5932 128.3C59.5932 128.923 59.7553 129.418 60.0797 129.786C60.4128 130.145 60.8599 130.325 61.421 130.325ZM70.6496 126.696H72.517C73.0693 126.696 73.5076 126.556 73.832 126.275C74.1563 125.986 74.3185 125.6 74.3185 125.118C74.3185 124.627 74.1563 124.237 73.832 123.947C73.5076 123.649 73.0693 123.5 72.517 123.5H70.6496V126.696ZM72.7537 127.853H70.6496V131.667H69.3609V122.343H72.7537C73.604 122.343 74.2966 122.606 74.8314 123.132C75.3661 123.658 75.6335 124.316 75.6335 125.105C75.6335 125.902 75.3661 126.56 74.8314 127.077C74.2966 127.594 73.604 127.853 72.7537 127.853ZM77.632 130.167C78.0177 130.562 78.4868 130.759 79.0391 130.759C79.5914 130.759 80.056 130.562 80.433 130.167C80.8187 129.764 81.0116 129.207 81.0116 128.497C81.0116 127.796 80.8187 127.248 80.433 126.854C80.056 126.45 79.5914 126.249 79.0391 126.249C78.4868 126.249 78.0177 126.45 77.632 126.854C77.255 127.248 77.0665 127.796 77.0665 128.497C77.0665 129.207 77.255 129.764 77.632 130.167ZM76.7115 126.104C77.3252 125.464 78.101 125.144 79.0391 125.144C79.9771 125.144 80.7486 125.464 81.3535 126.104C81.9671 126.735 82.274 127.533 82.274 128.497C82.274 129.47 81.9715 130.277 81.3666 130.917C80.7617 131.548 79.9859 131.864 79.0391 131.864C78.0922 131.864 77.3164 131.548 76.7115 130.917C76.1066 130.277 75.8041 129.47 75.8041 128.497C75.8041 127.533 76.1066 126.735 76.7115 126.104ZM87.0716 125.341H88.3471L89.9909 130.102L91.3848 125.341H92.6866L90.6352 131.667H89.3597L87.6765 126.854L86.0327 131.667H84.7308L82.6531 125.341H84.0076L85.4278 130.102L87.0716 125.341ZM94.3901 127.853H97.8485C97.831 127.38 97.6732 126.994 97.3751 126.696C97.0771 126.389 96.6563 126.236 96.1127 126.236C95.6218 126.236 95.2185 126.398 94.9029 126.722C94.5873 127.038 94.4164 127.415 94.3901 127.853ZM98.0326 129.497L99.0978 129.865C98.9137 130.452 98.5718 130.934 98.0721 131.311C97.5724 131.68 96.9675 131.864 96.2574 131.864C95.3719 131.864 94.618 131.561 93.9956 130.956C93.3819 130.343 93.0751 129.519 93.0751 128.484C93.0751 127.52 93.3731 126.722 93.9693 126.091C94.5654 125.46 95.2755 125.144 96.0996 125.144C97.0552 125.144 97.8003 125.447 98.3351 126.051C98.8699 126.648 99.1372 127.45 99.1372 128.458C99.1372 128.616 99.1285 128.747 99.1109 128.852H94.3506C94.3594 129.413 94.5435 129.874 94.9029 130.233C95.2711 130.593 95.7226 130.772 96.2574 130.772C97.1604 130.772 97.7521 130.347 98.0326 129.497ZM104.007 125.276V126.591C103.823 126.564 103.643 126.551 103.468 126.551C102.311 126.551 101.732 127.2 101.732 128.497V131.667H100.496V125.341H101.706V126.446C102.092 125.639 102.723 125.236 103.599 125.236C103.74 125.236 103.876 125.249 104.007 125.276Z" fill="white"/>
<path d="M47.0614 271.022H45.7858V263.764L42.6035 271.022H41.42L38.264 263.764V271.022H36.9884V261.699H38.7374L42.0249 269.287L45.3387 261.699H47.0614V271.022ZM50.3834 269.523C50.7691 269.918 51.2381 270.115 51.7904 270.115C52.3427 270.115 52.8074 269.918 53.1843 269.523C53.5701 269.12 53.7629 268.563 53.7629 267.853C53.7629 267.152 53.5701 266.604 53.1843 266.21C52.8074 265.806 52.3427 265.605 51.7904 265.605C51.2381 265.605 50.7691 265.806 50.3834 266.21C50.0064 266.604 49.8179 267.152 49.8179 267.853C49.8179 268.563 50.0064 269.12 50.3834 269.523ZM49.4629 265.46C50.0765 264.82 50.8524 264.5 51.7904 264.5C52.7285 264.5 53.4999 264.82 54.1048 265.46C54.7185 266.091 55.0253 266.889 55.0253 267.853C55.0253 268.826 54.7229 269.633 54.118 270.273C53.5131 270.904 52.7372 271.22 51.7904 271.22C50.8436 271.22 50.0678 270.904 49.4629 270.273C48.858 269.633 48.5555 268.826 48.5555 267.853C48.5555 266.889 48.858 266.091 49.4629 265.46ZM57.1241 267.84C57.1241 268.506 57.2863 269.05 57.6106 269.471C57.9438 269.892 58.3996 270.102 58.9782 270.102C59.5306 270.102 59.9733 269.887 60.3064 269.458C60.6395 269.028 60.8061 268.48 60.8061 267.814C60.8061 267.156 60.6439 266.626 60.3196 266.223C59.9952 265.819 59.5525 265.618 58.9914 265.618C58.4303 265.618 57.9788 265.824 57.6369 266.236C57.295 266.648 57.1241 267.183 57.1241 267.84ZM60.8193 270.168V270.063C60.6527 270.387 60.3985 270.659 60.0566 270.878C59.7234 271.088 59.3245 271.193 58.8599 271.193C57.9569 271.193 57.2293 270.878 56.677 270.247C56.1334 269.607 55.8617 268.804 55.8617 267.84C55.8617 266.92 56.1422 266.139 56.7033 265.499C57.2644 264.851 57.9832 264.526 58.8599 264.526C59.3771 264.526 59.7979 264.632 60.1223 264.842C60.4467 265.044 60.6702 265.293 60.793 265.591V261.502H62.0159V269.852C62.0159 270.282 62.0378 270.672 62.0817 271.022H60.885C60.8412 270.777 60.8193 270.492 60.8193 270.168ZM64.7015 267.209H68.16C68.1424 266.736 67.9846 266.35 67.6866 266.052C67.3885 265.745 66.9677 265.591 66.4241 265.591C65.9332 265.591 65.5299 265.754 65.2143 266.078C64.8987 266.394 64.7278 266.771 64.7015 267.209ZM68.3441 268.853L69.4092 269.221C69.2251 269.808 68.8832 270.29 68.3835 270.667C67.8838 271.036 67.2789 271.22 66.5688 271.22C65.6834 271.22 64.9294 270.917 64.307 270.312C63.6933 269.699 63.3865 268.875 63.3865 267.84C63.3865 266.876 63.6845 266.078 64.2807 265.447C64.8768 264.816 65.5869 264.5 66.411 264.5C67.3666 264.5 68.1117 264.802 68.6465 265.407C69.1813 266.004 69.4487 266.806 69.4487 267.814C69.4487 267.972 69.4399 268.103 69.4224 268.208H64.662C64.6708 268.769 64.8549 269.23 65.2143 269.589C65.5825 269.949 66.034 270.128 66.5688 270.128C67.4718 270.128 68.0635 269.703 68.3441 268.853ZM72.0435 271.022H70.8074V261.502H72.0435V271.022ZM83.5968 262.896H80.4803V271.022H79.1915V262.896H76.075V261.699H83.5968V262.896ZM87.2862 264.632V265.947C87.1021 265.92 86.9224 265.907 86.7471 265.907C85.5898 265.907 85.0112 266.556 85.0112 267.853V271.022H83.7751V264.697H84.9849V265.802C85.3707 264.995 86.0019 264.592 86.8786 264.592C87.0188 264.592 87.1547 264.605 87.2862 264.632ZM87.99 269.326C87.99 268.783 88.1653 268.349 88.516 268.024C88.8667 267.691 89.3313 267.485 89.9099 267.406L91.6194 267.156C91.9438 267.113 92.106 266.955 92.106 266.683C92.106 266.35 91.992 266.078 91.7641 265.868C91.5361 265.657 91.1942 265.552 90.7384 265.552C90.3176 265.552 89.9844 265.67 89.739 265.907C89.4935 266.135 89.3489 266.442 89.305 266.828L88.1215 266.551C88.1829 265.947 88.459 265.456 88.95 265.079C89.4409 264.693 90.0283 264.5 90.7121 264.5C91.6063 264.5 92.2682 264.719 92.6977 265.158C93.1273 265.587 93.3421 266.139 93.3421 266.814V269.984C93.3421 270.361 93.3684 270.707 93.421 271.022H92.2112C92.1674 270.759 92.1454 270.475 92.1454 270.168C91.9701 270.448 91.7115 270.694 91.3696 270.904C91.0364 271.115 90.6156 271.22 90.1072 271.22C89.4847 271.22 88.9763 271.036 88.5818 270.667C88.1873 270.29 87.99 269.843 87.99 269.326ZM90.2781 270.181C90.8304 270.181 91.2731 270.032 91.6063 269.734C91.9394 269.436 92.106 268.962 92.106 268.314V268.024L90.1729 268.314C89.8924 268.357 89.6688 268.458 89.5023 268.616C89.3357 268.774 89.2524 268.989 89.2524 269.26C89.2524 269.506 89.3445 269.721 89.5286 269.905C89.7214 270.089 89.9713 270.181 90.2781 270.181ZM96.2716 271.022H95.0486V264.697H96.2716V271.022ZM95.0223 262.935C94.8557 262.76 94.7724 262.549 94.7724 262.304C94.7724 262.058 94.8557 261.848 95.0223 261.673C95.1976 261.497 95.408 261.41 95.6535 261.41C95.899 261.41 96.1094 261.497 96.2847 261.673C96.46 261.839 96.5477 262.05 96.5477 262.304C96.5477 262.549 96.46 262.76 96.2847 262.935C96.1094 263.102 95.899 263.185 95.6535 263.185C95.408 263.185 95.1976 263.102 95.0223 262.935ZM99.3916 267.367V271.022H98.1555V264.697H99.3653V265.605C99.7861 264.877 100.435 264.513 101.311 264.513C102.039 264.513 102.596 264.745 102.982 265.21C103.376 265.675 103.573 266.275 103.573 267.012V271.022H102.337V267.222C102.337 266.161 101.846 265.631 100.864 265.631C100.4 265.631 100.036 265.797 99.7729 266.131C99.5187 266.455 99.3916 266.867 99.3916 267.367ZM106.543 271.022H105.32V264.697H106.543V271.022ZM105.294 262.935C105.128 262.76 105.044 262.549 105.044 262.304C105.044 262.058 105.128 261.848 105.294 261.673C105.469 261.497 105.68 261.41 105.925 261.41C106.171 261.41 106.381 261.497 106.556 261.673C106.732 261.839 106.819 262.05 106.819 262.304C106.819 262.549 106.732 262.76 106.556 262.935C106.381 263.102 106.171 263.185 105.925 263.185C105.68 263.185 105.469 263.102 105.294 262.935ZM109.663 267.367V271.022H108.427V264.697H109.637V265.605C110.058 264.877 110.707 264.513 111.583 264.513C112.311 264.513 112.868 264.745 113.253 265.21C113.648 265.675 113.845 266.275 113.845 267.012V271.022H112.609V267.222C112.609 266.161 112.118 265.631 111.136 265.631C110.672 265.631 110.308 265.797 110.045 266.131C109.79 266.455 109.663 266.867 109.663 267.367ZM115.132 271.364L116.329 271.088C116.372 271.535 116.552 271.904 116.868 272.193C117.183 272.491 117.578 272.64 118.051 272.64C119.34 272.64 119.984 271.956 119.984 270.589V269.681C119.827 269.988 119.577 270.238 119.235 270.431C118.902 270.624 118.507 270.72 118.051 270.72C117.21 270.72 116.513 270.435 115.96 269.865C115.417 269.287 115.145 268.55 115.145 267.656C115.145 266.788 115.417 266.06 115.96 265.473C116.504 264.877 117.201 264.579 118.051 264.579C119.016 264.579 119.664 264.912 119.997 265.578V264.697H121.22V270.549C121.22 270.97 121.163 271.36 121.049 271.719C120.944 272.088 120.773 272.425 120.537 272.732C120.3 273.039 119.967 273.28 119.537 273.455C119.116 273.631 118.621 273.718 118.051 273.718C117.271 273.718 116.609 273.495 116.066 273.048C115.522 272.609 115.211 272.048 115.132 271.364ZM118.235 269.681C118.77 269.681 119.204 269.497 119.537 269.129C119.87 268.752 120.037 268.261 120.037 267.656C120.037 267.051 119.87 266.565 119.537 266.196C119.204 265.819 118.77 265.631 118.235 265.631C117.692 265.631 117.249 265.815 116.907 266.183C116.574 266.551 116.407 267.042 116.407 267.656C116.407 268.278 116.57 268.774 116.894 269.142C117.227 269.501 117.674 269.681 118.235 269.681Z" fill="white"/>
<path d="M74.9826 383.647H76.8893C77.8011 383.647 78.555 383.345 79.1512 382.74C79.7561 382.135 80.0585 381.271 80.0585 380.149C80.0585 379.018 79.7604 378.146 79.1643 377.532C78.5769 376.918 77.8274 376.612 76.9156 376.612H74.9826V383.647ZM76.9288 384.791H73.6939V375.468H76.9551C78.2087 375.468 79.2607 375.884 80.1111 376.717C80.9615 377.541 81.3867 378.685 81.3867 380.149C81.3867 381.604 80.9571 382.744 80.098 383.568C79.2388 384.383 78.1824 384.791 76.9288 384.791ZM83.6098 380.977H87.0683C87.0508 380.504 86.893 380.118 86.5949 379.82C86.2968 379.513 85.876 379.36 85.3325 379.36C84.8416 379.36 84.4383 379.522 84.1227 379.847C83.8071 380.162 83.6361 380.539 83.6098 380.977ZM87.2524 382.621L88.3176 382.989C88.1335 383.577 87.7916 384.059 87.2919 384.436C86.7922 384.804 86.1872 384.988 85.4771 384.988C84.5917 384.988 83.8378 384.686 83.2153 384.081C82.6017 383.467 82.2948 382.643 82.2948 381.609C82.2948 380.644 82.5929 379.847 83.189 379.215C83.7852 378.584 84.4953 378.269 85.3193 378.269C86.2749 378.269 87.0201 378.571 87.5549 379.176C88.0896 379.772 88.357 380.574 88.357 381.582C88.357 381.74 88.3482 381.872 88.3307 381.977H83.5704C83.5791 382.538 83.7632 382.998 84.1227 383.358C84.4909 383.717 84.9424 383.897 85.4771 383.897C86.3801 383.897 86.9719 383.472 87.2524 382.621ZM90.9387 387.29H89.7157V378.466H90.9124V379.452C91.0965 379.119 91.3727 378.847 91.7409 378.637C92.1091 378.426 92.5386 378.321 93.0296 378.321C93.9413 378.321 94.6514 378.632 95.1599 379.255C95.6771 379.877 95.9357 380.666 95.9357 381.622C95.9357 382.586 95.6684 383.384 95.1336 384.015C94.6076 384.646 93.8931 384.962 92.9901 384.962C92.5255 384.962 92.1134 384.866 91.754 384.673C91.3946 384.48 91.1228 384.234 90.9387 383.936V387.29ZM94.6733 381.622C94.6733 380.982 94.5024 380.456 94.1605 380.044C93.8273 379.623 93.3759 379.413 92.806 379.413C92.2449 379.413 91.7891 379.623 91.4384 380.044C91.0965 380.456 90.9256 380.982 90.9256 381.622C90.9256 382.279 91.0965 382.819 91.4384 383.239C91.7891 383.651 92.2449 383.857 92.806 383.857C93.3671 383.857 93.8186 383.651 94.1605 383.239C94.5024 382.819 94.6733 382.279 94.6733 381.622ZM98.5277 384.791H97.2916V375.27H98.5277V384.791ZM101.713 383.292C102.099 383.686 102.568 383.884 103.12 383.884C103.673 383.884 104.137 383.686 104.514 383.292C104.9 382.889 105.093 382.332 105.093 381.622C105.093 380.921 104.9 380.373 104.514 379.978C104.137 379.575 103.673 379.373 103.12 379.373C102.568 379.373 102.099 379.575 101.713 379.978C101.336 380.373 101.148 380.921 101.148 381.622C101.148 382.332 101.336 382.889 101.713 383.292ZM100.793 379.229C101.406 378.589 102.182 378.269 103.12 378.269C104.058 378.269 104.83 378.589 105.435 379.229C106.048 379.86 106.355 380.658 106.355 381.622C106.355 382.595 106.053 383.401 105.448 384.041C104.843 384.673 104.067 384.988 103.12 384.988C102.173 384.988 101.398 384.673 100.793 384.041C100.188 383.401 99.8853 382.595 99.8853 381.622C99.8853 380.658 100.188 379.86 100.793 379.229ZM109.039 387.434H107.684L109.262 384.094L106.54 378.466H107.96L109.933 382.832L111.826 378.466H113.155L109.039 387.434ZM114.67 380.977H118.129C118.111 380.504 117.953 380.118 117.655 379.82C117.357 379.513 116.936 379.36 116.393 379.36C115.902 379.36 115.499 379.522 115.183 379.847C114.867 380.162 114.696 380.539 114.67 380.977ZM118.313 382.621L119.378 382.989C119.194 383.577 118.852 384.059 118.352 384.436C117.852 384.804 117.247 384.988 116.537 384.988C115.652 384.988 114.898 384.686 114.276 384.081C113.662 383.467 113.355 382.643 113.355 381.609C113.355 380.644 113.653 379.847 114.249 379.215C114.845 378.584 115.555 378.269 116.38 378.269C117.335 378.269 118.08 378.571 118.615 379.176C119.15 379.772 119.417 380.574 119.417 381.582C119.417 381.74 119.408 381.872 119.391 381.977H114.631C114.639 382.538 114.823 382.998 115.183 383.358C115.551 383.717 116.003 383.897 116.537 383.897C117.44 383.897 118.032 383.472 118.313 382.621ZM125.501 376.467V378.466H126.869V379.584H125.501V382.871C125.501 383.169 125.567 383.388 125.698 383.529C125.839 383.669 126.067 383.739 126.382 383.739C126.566 383.739 126.729 383.721 126.869 383.686V384.738C126.658 384.817 126.378 384.857 126.027 384.857C125.484 384.857 125.054 384.699 124.739 384.383C124.423 384.068 124.265 383.625 124.265 383.055V379.584H123.055V378.466H123.397C123.722 378.466 123.963 378.378 124.12 378.203C124.287 378.019 124.37 377.782 124.37 377.493V376.467H125.501ZM129.537 383.292C129.923 383.686 130.392 383.884 130.944 383.884C131.497 383.884 131.961 383.686 132.338 383.292C132.724 382.889 132.917 382.332 132.917 381.622C132.917 380.921 132.724 380.373 132.338 379.978C131.961 379.575 131.497 379.373 130.944 379.373C130.392 379.373 129.923 379.575 129.537 379.978C129.16 380.373 128.972 380.921 128.972 381.622C128.972 382.332 129.16 382.889 129.537 383.292ZM128.617 379.229C129.23 378.589 130.006 378.269 130.944 378.269C131.882 378.269 132.654 378.589 133.259 379.229C133.872 379.86 134.179 380.658 134.179 381.622C134.179 382.595 133.877 383.401 133.272 384.041C132.667 384.673 131.891 384.988 130.944 384.988C129.998 384.988 129.222 384.673 128.617 384.041C128.012 383.401 127.709 382.595 127.709 381.622C127.709 380.658 128.012 379.86 128.617 379.229ZM144.409 384.791H138.741V375.468H144.409V376.664H140.03V379.531H144.001V380.741H140.03V383.594H144.409V384.791ZM145.445 383.095C145.445 382.551 145.62 382.117 145.971 381.793C146.321 381.46 146.786 381.254 147.364 381.175L149.074 380.925C149.398 380.881 149.561 380.723 149.561 380.451C149.561 380.118 149.447 379.847 149.219 379.636C148.991 379.426 148.649 379.321 148.193 379.321C147.772 379.321 147.439 379.439 147.194 379.676C146.948 379.904 146.803 380.21 146.76 380.596L145.576 380.32C145.637 379.715 145.914 379.224 146.405 378.847C146.895 378.461 147.483 378.269 148.167 378.269C149.061 378.269 149.723 378.488 150.152 378.926C150.582 379.356 150.797 379.908 150.797 380.583V383.752C150.797 384.129 150.823 384.475 150.876 384.791H149.666C149.622 384.528 149.6 384.243 149.6 383.936C149.425 384.217 149.166 384.462 148.824 384.673C148.491 384.883 148.07 384.988 147.562 384.988C146.939 384.988 146.431 384.804 146.036 384.436C145.642 384.059 145.445 383.612 145.445 383.095ZM147.733 383.949C148.285 383.949 148.728 383.8 149.061 383.502C149.394 383.204 149.561 382.731 149.561 382.082V381.793L147.627 382.082C147.347 382.126 147.123 382.227 146.957 382.385C146.79 382.542 146.707 382.757 146.707 383.029C146.707 383.274 146.799 383.489 146.983 383.673C147.176 383.857 147.426 383.949 147.733 383.949ZM156.014 378.4V379.715C155.83 379.689 155.65 379.676 155.475 379.676C154.318 379.676 153.739 380.324 153.739 381.622V384.791H152.503V378.466H153.713V379.57C154.099 378.764 154.73 378.361 155.607 378.361C155.747 378.361 155.883 378.374 156.014 378.4ZM158.349 381.135V384.791H157.113V378.466H158.322V379.373C158.743 378.646 159.392 378.282 160.269 378.282C160.996 378.282 161.553 378.514 161.939 378.979C162.333 379.443 162.53 380.044 162.53 380.78V384.791H161.294V380.991C161.294 379.93 160.803 379.399 159.821 379.399C159.357 379.399 158.993 379.566 158.73 379.899C158.476 380.224 158.349 380.636 158.349 381.135Z" fill="white"/>
<path d="M551.553 369.527H553.459C554.371 369.527 555.125 369.225 555.721 368.62C556.326 368.015 556.629 367.152 556.629 366.029C556.629 364.898 556.331 364.026 555.734 363.413C555.147 362.799 554.397 362.492 553.486 362.492H551.553V369.527ZM553.499 370.671H550.264V361.348H553.525C554.779 361.348 555.831 361.764 556.681 362.597C557.532 363.421 557.957 364.565 557.957 366.029C557.957 367.485 557.527 368.624 556.668 369.448C555.809 370.264 554.753 370.671 553.499 370.671ZM558.983 368.975C558.983 368.431 559.159 367.998 559.509 367.673C559.86 367.34 560.325 367.134 560.903 367.055L562.613 366.805C562.937 366.761 563.099 366.604 563.099 366.332C563.099 365.999 562.985 365.727 562.757 365.517C562.529 365.306 562.188 365.201 561.732 365.201C561.311 365.201 560.978 365.319 560.732 365.556C560.487 365.784 560.342 366.091 560.298 366.477L559.115 366.2C559.176 365.595 559.452 365.105 559.943 364.728C560.434 364.342 561.022 364.149 561.705 364.149C562.6 364.149 563.261 364.368 563.691 364.806C564.121 365.236 564.335 365.788 564.335 366.463V369.633C564.335 370.009 564.362 370.356 564.414 370.671H563.204C563.161 370.408 563.139 370.123 563.139 369.817C562.963 370.097 562.705 370.343 562.363 370.553C562.03 370.763 561.609 370.869 561.1 370.869C560.478 370.869 559.97 370.685 559.575 370.316C559.181 369.939 558.983 369.492 558.983 368.975ZM561.271 369.83C561.824 369.83 562.266 369.681 562.6 369.383C562.933 369.085 563.099 368.611 563.099 367.962V367.673L561.166 367.962C560.886 368.006 560.662 368.107 560.496 368.265C560.329 368.423 560.246 368.638 560.246 368.909C560.246 369.155 560.338 369.37 560.522 369.554C560.715 369.738 560.965 369.83 561.271 369.83ZM567.699 362.347V364.346H569.066V365.464H567.699V368.751C567.699 369.05 567.765 369.269 567.896 369.409C568.036 369.549 568.264 369.619 568.58 369.619C568.764 369.619 568.926 369.602 569.066 369.567V370.619C568.856 370.698 568.575 370.737 568.225 370.737C567.681 370.737 567.252 370.579 566.936 370.264C566.62 369.948 566.463 369.505 566.463 368.936V365.464H565.253V364.346H565.595C565.919 364.346 566.16 364.259 566.318 364.083C566.485 363.899 566.568 363.662 566.568 363.373V362.347H567.699ZM570.103 368.975C570.103 368.431 570.278 367.998 570.629 367.673C570.979 367.34 571.444 367.134 572.023 367.055L573.732 366.805C574.056 366.761 574.219 366.604 574.219 366.332C574.219 365.999 574.105 365.727 573.877 365.517C573.649 365.306 573.307 365.201 572.851 365.201C572.43 365.201 572.097 365.319 571.852 365.556C571.606 365.784 571.461 366.091 571.418 366.477L570.234 366.2C570.296 365.595 570.572 365.105 571.063 364.728C571.554 364.342 572.141 364.149 572.825 364.149C573.719 364.149 574.381 364.368 574.81 364.806C575.24 365.236 575.455 365.788 575.455 366.463V369.633C575.455 370.009 575.481 370.356 575.534 370.671H574.324C574.28 370.408 574.258 370.123 574.258 369.817C574.083 370.097 573.824 370.343 573.482 370.553C573.149 370.763 572.728 370.869 572.22 370.869C571.597 370.869 571.089 370.685 570.694 370.316C570.3 369.939 570.103 369.492 570.103 368.975ZM572.391 369.83C572.943 369.83 573.386 369.681 573.719 369.383C574.052 369.085 574.219 368.611 574.219 367.962V367.673L572.286 367.962C572.005 368.006 571.781 368.107 571.615 368.265C571.448 368.423 571.365 368.638 571.365 368.909C571.365 369.155 571.457 369.37 571.641 369.554C571.834 369.738 572.084 369.83 572.391 369.83ZM585.187 370.671L583.057 366.858H581.663V370.671H580.361V361.348H583.872C584.731 361.348 585.419 361.615 585.937 362.15C586.463 362.676 586.726 363.334 586.726 364.123C586.726 364.798 586.524 365.376 586.121 365.858C585.718 366.332 585.165 366.634 584.464 366.766L586.686 370.671H585.187ZM581.663 365.701H583.635C584.161 365.701 584.587 365.56 584.911 365.28C585.235 364.991 585.398 364.605 585.398 364.123C585.398 363.632 585.235 363.242 584.911 362.952C584.587 362.654 584.161 362.505 583.635 362.505H581.663V365.701ZM588.697 366.858H592.156C592.138 366.384 591.981 365.999 591.683 365.701C591.384 365.394 590.964 365.24 590.42 365.24C589.929 365.24 589.526 365.403 589.21 365.727C588.895 366.043 588.724 366.42 588.697 366.858ZM592.34 368.502L593.405 368.87C593.221 369.457 592.879 369.939 592.379 370.316C591.88 370.685 591.275 370.869 590.565 370.869C589.679 370.869 588.925 370.566 588.303 369.961C587.689 369.348 587.382 368.524 587.382 367.489C587.382 366.525 587.681 365.727 588.277 365.096C588.873 364.465 589.583 364.149 590.407 364.149C591.363 364.149 592.108 364.451 592.642 365.056C593.177 365.652 593.445 366.455 593.445 367.463C593.445 367.621 593.436 367.752 593.418 367.857H588.658C588.667 368.418 588.851 368.879 589.21 369.238C589.579 369.597 590.03 369.777 590.565 369.777C591.468 369.777 592.06 369.352 592.34 368.502ZM597.262 361.111C597.639 361.111 597.885 361.155 597.999 361.243V362.347C597.867 362.295 597.688 362.268 597.46 362.268C597.188 362.268 596.951 362.347 596.75 362.505C596.557 362.663 596.46 362.939 596.46 363.334V364.346H600.642V370.671H599.419V365.464H596.46V370.671H595.185V365.464H594.014V364.346H595.185V363.281C595.185 362.606 595.382 362.076 595.776 361.69C596.171 361.304 596.666 361.111 597.262 361.111ZM599.393 362.558C599.226 362.382 599.143 362.172 599.143 361.927C599.143 361.681 599.226 361.471 599.393 361.295C599.568 361.12 599.779 361.032 600.024 361.032C600.278 361.032 600.489 361.12 600.655 361.295C600.831 361.462 600.918 361.672 600.918 361.927C600.918 362.172 600.831 362.382 600.655 362.558C600.48 362.724 600.269 362.808 600.024 362.808C599.779 362.808 599.568 362.724 599.393 362.558ZM603.757 367.016V370.671H602.521V364.346H603.73V365.254C604.151 364.526 604.8 364.162 605.677 364.162C606.404 364.162 606.961 364.394 607.347 364.859C607.741 365.324 607.938 365.924 607.938 366.661V370.671H606.702V366.871C606.702 365.81 606.211 365.28 605.229 365.28C604.765 365.28 604.401 365.446 604.138 365.78C603.884 366.104 603.757 366.516 603.757 367.016ZM610.908 370.671H609.685V364.346H610.908V370.671ZM609.659 362.584C609.493 362.409 609.409 362.198 609.409 361.953C609.409 361.707 609.493 361.497 609.659 361.322C609.834 361.146 610.045 361.059 610.29 361.059C610.536 361.059 610.746 361.146 610.922 361.322C611.097 361.488 611.185 361.699 611.185 361.953C611.185 362.198 611.097 362.409 610.922 362.584C610.746 362.751 610.536 362.834 610.29 362.834C610.045 362.834 609.834 362.751 609.659 362.584ZM614.028 367.016V370.671H612.792V364.346H614.002V365.254C614.423 364.526 615.072 364.162 615.948 364.162C616.676 364.162 617.233 364.394 617.618 364.859C618.013 365.324 618.21 365.924 618.21 366.661V370.671H616.974V366.871C616.974 365.81 616.483 365.28 615.501 365.28C615.037 365.28 614.673 365.446 614.41 365.78C614.156 366.104 614.028 366.516 614.028 367.016ZM619.497 371.013L620.694 370.737C620.737 371.184 620.917 371.552 621.233 371.842C621.548 372.14 621.943 372.289 622.416 372.289C623.705 372.289 624.349 371.605 624.349 370.237V369.33C624.192 369.637 623.942 369.887 623.6 370.08C623.267 370.273 622.872 370.369 622.416 370.369C621.575 370.369 620.878 370.084 620.325 369.514C619.782 368.936 619.51 368.199 619.51 367.305C619.51 366.437 619.782 365.709 620.325 365.122C620.869 364.526 621.566 364.228 622.416 364.228C623.381 364.228 624.029 364.561 624.362 365.227V364.346H625.585V370.198C625.585 370.619 625.528 371.009 625.414 371.368C625.309 371.737 625.138 372.074 624.902 372.381C624.665 372.688 624.332 372.929 623.902 373.104C623.481 373.279 622.986 373.367 622.416 373.367C621.636 373.367 620.974 373.144 620.431 372.697C619.887 372.258 619.576 371.697 619.497 371.013ZM622.6 369.33C623.135 369.33 623.569 369.146 623.902 368.778C624.235 368.401 624.402 367.91 624.402 367.305C624.402 366.7 624.235 366.214 623.902 365.845C623.569 365.468 623.135 365.28 622.6 365.28C622.057 365.28 621.614 365.464 621.272 365.832C620.939 366.2 620.773 366.691 620.773 367.305C620.773 367.927 620.935 368.423 621.259 368.791C621.592 369.15 622.039 369.33 622.6 369.33Z" fill="white"/>
<path d="M588.628 221.285H590.535C591.447 221.285 592.201 220.982 592.797 220.378C593.402 219.773 593.704 218.909 593.704 217.787C593.704 216.656 593.406 215.784 592.81 215.17C592.223 214.556 591.473 214.25 590.561 214.25H588.628V221.285ZM590.574 222.429H587.34V213.106H590.601C591.854 213.106 592.906 213.522 593.757 214.355C594.607 215.179 595.032 216.323 595.032 217.787C595.032 219.242 594.603 220.382 593.744 221.206C592.885 222.021 591.828 222.429 590.574 222.429ZM596.059 220.733C596.059 220.189 596.234 219.755 596.585 219.431C596.936 219.098 597.4 218.892 597.979 218.813L599.688 218.563C600.013 218.519 600.175 218.361 600.175 218.089C600.175 217.756 600.061 217.485 599.833 217.274C599.605 217.064 599.263 216.959 598.807 216.959C598.386 216.959 598.053 217.077 597.808 217.314C597.562 217.542 597.418 217.848 597.374 218.234L596.19 217.958C596.252 217.353 596.528 216.862 597.019 216.485C597.51 216.099 598.097 215.907 598.781 215.907C599.675 215.907 600.337 216.126 600.767 216.564C601.196 216.994 601.411 217.546 601.411 218.221V221.39C601.411 221.767 601.437 222.113 601.49 222.429H600.28C600.236 222.166 600.214 221.881 600.214 221.574C600.039 221.855 599.78 222.1 599.438 222.311C599.105 222.521 598.684 222.626 598.176 222.626C597.554 222.626 597.045 222.442 596.651 222.074C596.256 221.697 596.059 221.25 596.059 220.733ZM598.347 221.587C598.899 221.587 599.342 221.438 599.675 221.14C600.008 220.842 600.175 220.369 600.175 219.72V219.431L598.242 219.72C597.961 219.764 597.738 219.865 597.571 220.022C597.405 220.18 597.321 220.395 597.321 220.667C597.321 220.912 597.413 221.127 597.597 221.311C597.79 221.495 598.04 221.587 598.347 221.587ZM604.774 214.105V216.104H606.142V217.222H604.774V220.509C604.774 220.807 604.84 221.026 604.972 221.167C605.112 221.307 605.34 221.377 605.655 221.377C605.839 221.377 606.002 221.359 606.142 221.324V222.376C605.932 222.455 605.651 222.495 605.3 222.495C604.757 222.495 604.327 222.337 604.012 222.021C603.696 221.706 603.538 221.263 603.538 220.693V217.222H602.328V216.104H602.67C602.995 216.104 603.236 216.016 603.394 215.841C603.56 215.657 603.643 215.42 603.643 215.131V214.105H604.774ZM607.178 220.733C607.178 220.189 607.354 219.755 607.704 219.431C608.055 219.098 608.52 218.892 609.098 218.813L610.808 218.563C611.132 218.519 611.294 218.361 611.294 218.089C611.294 217.756 611.18 217.485 610.952 217.274C610.724 217.064 610.382 216.959 609.927 216.959C609.506 216.959 609.173 217.077 608.927 217.314C608.682 217.542 608.537 217.848 608.493 218.234L607.31 217.958C607.371 217.353 607.647 216.862 608.138 216.485C608.629 216.099 609.216 215.907 609.9 215.907C610.794 215.907 611.456 216.126 611.886 216.564C612.316 216.994 612.53 217.546 612.53 218.221V221.39C612.53 221.767 612.557 222.113 612.609 222.429H611.399C611.356 222.166 611.334 221.881 611.334 221.574C611.158 221.855 610.9 222.1 610.558 222.311C610.225 222.521 609.804 222.626 609.295 222.626C608.673 222.626 608.164 222.442 607.77 222.074C607.375 221.697 607.178 221.25 607.178 220.733ZM609.466 221.587C610.019 221.587 610.461 221.438 610.794 221.14C611.128 220.842 611.294 220.369 611.294 219.72V219.431L609.361 219.72C609.081 219.764 608.857 219.865 608.69 220.022C608.524 220.18 608.441 220.395 608.441 220.667C608.441 220.912 608.533 221.127 608.717 221.311C608.91 221.495 609.159 221.587 609.466 221.587ZM623.893 222.429L622.881 219.825H618.752L617.765 222.429H616.385L620.093 213.106H621.579L625.287 222.429H623.893ZM620.803 214.447L619.212 218.629H622.421L620.803 214.447ZM627.427 218.773V222.429H626.191V216.104H627.401V217.011C627.821 216.283 628.47 215.92 629.347 215.92C630.075 215.92 630.631 216.152 631.017 216.617C631.411 217.081 631.609 217.682 631.609 218.418V222.429H630.373V218.629C630.373 217.568 629.882 217.037 628.9 217.037C628.435 217.037 628.071 217.204 627.808 217.537C627.554 217.861 627.427 218.274 627.427 218.773ZM634.592 218.773V222.429H633.356V216.104H634.566V217.011C634.986 216.283 635.635 215.92 636.512 215.92C637.239 215.92 637.796 216.152 638.182 216.617C638.576 217.081 638.774 217.682 638.774 218.418V222.429H637.538V218.629C637.538 217.568 637.047 217.037 636.065 217.037C635.6 217.037 635.236 217.204 634.973 217.537C634.719 217.861 634.592 218.274 634.592 218.773ZM641.823 220.93C642.208 221.324 642.677 221.522 643.23 221.522C643.782 221.522 644.247 221.324 644.624 220.93C645.009 220.527 645.202 219.97 645.202 219.26C645.202 218.558 645.009 218.011 644.624 217.616C644.247 217.213 643.782 217.011 643.23 217.011C642.677 217.011 642.208 217.213 641.823 217.616C641.446 218.011 641.257 218.558 641.257 219.26C641.257 219.97 641.446 220.527 641.823 220.93ZM640.902 216.866C641.516 216.226 642.292 215.907 643.23 215.907C644.168 215.907 644.939 216.226 645.544 216.866C646.158 217.498 646.465 218.295 646.465 219.26C646.465 220.233 646.162 221.039 645.557 221.679C644.952 222.311 644.176 222.626 643.23 222.626C642.283 222.626 641.507 222.311 640.902 221.679C640.297 221.039 639.995 220.233 639.995 219.26C639.995 218.295 640.297 217.498 640.902 216.866ZM649.42 214.105V216.104H650.787V217.222H649.42V220.509C649.42 220.807 649.485 221.026 649.617 221.167C649.757 221.307 649.985 221.377 650.301 221.377C650.485 221.377 650.647 221.359 650.787 221.324V222.376C650.577 222.455 650.296 222.495 649.946 222.495C649.402 222.495 648.972 222.337 648.657 222.021C648.341 221.706 648.183 221.263 648.183 220.693V217.222H646.974V216.104H647.316C647.64 216.104 647.881 216.016 648.039 215.841C648.205 215.657 648.289 215.42 648.289 215.131V214.105H649.42ZM651.823 220.733C651.823 220.189 651.999 219.755 652.349 219.431C652.7 219.098 653.165 218.892 653.743 218.813L655.453 218.563C655.777 218.519 655.939 218.361 655.939 218.089C655.939 217.756 655.825 217.485 655.598 217.274C655.37 217.064 655.028 216.959 654.572 216.959C654.151 216.959 653.818 217.077 653.572 217.314C653.327 217.542 653.182 217.848 653.138 218.234L651.955 217.958C652.016 217.353 652.292 216.862 652.783 216.485C653.274 216.099 653.862 215.907 654.545 215.907C655.44 215.907 656.102 216.126 656.531 216.564C656.961 216.994 657.176 217.546 657.176 218.221V221.39C657.176 221.767 657.202 222.113 657.254 222.429H656.045C656.001 222.166 655.979 221.881 655.979 221.574C655.804 221.855 655.545 222.1 655.203 222.311C654.87 222.521 654.449 222.626 653.941 222.626C653.318 222.626 652.81 222.442 652.415 222.074C652.021 221.697 651.823 221.25 651.823 220.733ZM654.112 221.587C654.664 221.587 655.107 221.438 655.44 221.14C655.773 220.842 655.939 220.369 655.939 219.72V219.431L654.006 219.72C653.726 219.764 653.502 219.865 653.336 220.022C653.169 220.18 653.086 220.395 653.086 220.667C653.086 220.912 653.178 221.127 653.362 221.311C653.555 221.495 653.805 221.587 654.112 221.587ZM660.539 214.105V216.104H661.907V217.222H660.539V220.509C660.539 220.807 660.605 221.026 660.736 221.167C660.876 221.307 661.104 221.377 661.42 221.377C661.604 221.377 661.766 221.359 661.907 221.324V222.376C661.696 222.455 661.416 222.495 661.065 222.495C660.521 222.495 660.092 222.337 659.776 222.021C659.461 221.706 659.303 221.263 659.303 220.693V217.222H658.093V216.104H658.435C658.759 216.104 659 216.016 659.158 215.841C659.325 215.657 659.408 215.42 659.408 215.131V214.105H660.539ZM664.56 222.429H663.337V216.104H664.56V222.429ZM663.311 214.342C663.144 214.166 663.061 213.956 663.061 213.71C663.061 213.465 663.144 213.255 663.311 213.079C663.486 212.904 663.697 212.816 663.942 212.816C664.188 212.816 664.398 212.904 664.573 213.079C664.749 213.246 664.836 213.456 664.836 213.71C664.836 213.956 664.749 214.166 664.573 214.342C664.398 214.508 664.188 214.592 663.942 214.592C663.697 214.592 663.486 214.508 663.311 214.342ZM667.746 220.93C668.132 221.324 668.601 221.522 669.153 221.522C669.705 221.522 670.17 221.324 670.547 220.93C670.933 220.527 671.126 219.97 671.126 219.26C671.126 218.558 670.933 218.011 670.547 217.616C670.17 217.213 669.705 217.011 669.153 217.011C668.601 217.011 668.132 217.213 667.746 217.616C667.369 218.011 667.181 218.558 667.181 219.26C667.181 219.97 667.369 220.527 667.746 220.93ZM666.826 216.866C667.439 216.226 668.215 215.907 669.153 215.907C670.091 215.907 670.863 216.226 671.468 216.866C672.081 217.498 672.388 218.295 672.388 219.26C672.388 220.233 672.086 221.039 671.481 221.679C670.876 222.311 670.1 222.626 669.153 222.626C668.206 222.626 667.43 222.311 666.826 221.679C666.221 221.039 665.918 220.233 665.918 219.26C665.918 218.295 666.221 217.498 666.826 216.866ZM674.986 218.773V222.429H673.75V216.104H674.96V217.011C675.381 216.283 676.03 215.92 676.906 215.92C677.634 215.92 678.191 216.152 678.576 216.617C678.971 217.081 679.168 217.682 679.168 218.418V222.429H677.932V218.629C677.932 217.568 677.441 217.037 676.459 217.037C675.995 217.037 675.631 217.204 675.368 217.537C675.114 217.861 674.986 218.274 674.986 218.773Z" fill="white"/>
<path d="M538.498 59.1809H540.405C541.316 59.1809 542.07 58.8784 542.666 58.2735C543.271 57.6686 543.574 56.8051 543.574 55.683C543.574 54.5521 543.276 53.6798 542.68 53.0661C542.092 52.4524 541.343 52.1456 540.431 52.1456H538.498V59.1809ZM540.444 60.325H537.209V51.0015H540.47C541.724 51.0015 542.776 51.418 543.626 52.2508C544.477 53.0749 544.902 54.2189 544.902 55.683C544.902 57.1382 544.472 58.2779 543.613 59.102C542.754 59.9173 541.698 60.325 540.444 60.325ZM545.928 58.6286C545.928 58.0851 546.104 57.6511 546.454 57.3267C546.805 56.9936 547.27 56.7876 547.848 56.7087L549.558 56.4588C549.882 56.415 550.044 56.2572 550.044 55.9854C550.044 55.6523 549.93 55.3805 549.703 55.1701C549.475 54.9597 549.133 54.8545 548.677 54.8545C548.256 54.8545 547.923 54.9729 547.677 55.2096C547.432 55.4375 547.287 55.7443 547.243 56.1301L546.06 55.8539C546.121 55.249 546.397 54.7581 546.888 54.3811C547.379 53.9954 547.967 53.8025 548.651 53.8025C549.545 53.8025 550.207 54.0217 550.636 54.46C551.066 54.8896 551.281 55.4419 551.281 56.1169V59.2861C551.281 59.6631 551.307 60.0093 551.359 60.325H550.15C550.106 60.0619 550.084 59.777 550.084 59.4702C549.909 59.7507 549.65 59.9962 549.308 60.2066C548.975 60.417 548.554 60.5222 548.046 60.5222C547.423 60.5222 546.915 60.3381 546.52 59.9699C546.126 59.5929 545.928 59.1458 545.928 58.6286ZM548.217 59.4833C548.769 59.4833 549.212 59.3343 549.545 59.0362C549.878 58.7382 550.044 58.2648 550.044 57.616V57.3267L548.111 57.616C547.831 57.6599 547.607 57.7607 547.441 57.9185C547.274 58.0763 547.191 58.2911 547.191 58.5628C547.191 58.8083 547.283 59.0231 547.467 59.2072C547.66 59.3913 547.91 59.4833 548.217 59.4833ZM554.644 52.0009V53.9998H556.012V55.1175H554.644V58.405C554.644 58.7031 554.71 58.9223 554.841 59.0625C554.981 59.2028 555.209 59.2729 555.525 59.2729C555.709 59.2729 555.871 59.2554 556.012 59.2203V60.2724C555.801 60.3513 555.521 60.3907 555.17 60.3907C554.626 60.3907 554.197 60.2329 553.881 59.9173C553.566 59.6017 553.408 59.159 553.408 58.5891V55.1175H552.198V53.9998H552.54C552.864 53.9998 553.105 53.9121 553.263 53.7368C553.43 53.5527 553.513 53.316 553.513 53.0267V52.0009H554.644ZM557.048 58.6286C557.048 58.0851 557.223 57.6511 557.574 57.3267C557.924 56.9936 558.389 56.7876 558.968 56.7087L560.677 56.4588C561.002 56.415 561.164 56.2572 561.164 55.9854C561.164 55.6523 561.05 55.3805 560.822 55.1701C560.594 54.9597 560.252 54.8545 559.796 54.8545C559.375 54.8545 559.042 54.9729 558.797 55.2096C558.551 55.4375 558.407 55.7443 558.363 56.1301L557.179 55.8539C557.241 55.249 557.517 54.7581 558.008 54.3811C558.499 53.9954 559.086 53.8025 559.77 53.8025C560.664 53.8025 561.326 54.0217 561.756 54.46C562.185 54.8896 562.4 55.4419 562.4 56.1169V59.2861C562.4 59.6631 562.426 60.0093 562.479 60.325H561.269C561.225 60.0619 561.203 59.777 561.203 59.4702C561.028 59.7507 560.769 59.9962 560.427 60.2066C560.094 60.417 559.673 60.5222 559.165 60.5222C558.543 60.5222 558.034 60.3381 557.64 59.9699C557.245 59.5929 557.048 59.1458 557.048 58.6286ZM559.336 59.4833C559.888 59.4833 560.331 59.3343 560.664 59.0362C560.997 58.7382 561.164 58.2648 561.164 57.616V57.3267L559.231 57.616C558.95 57.6599 558.727 57.7607 558.56 57.9185C558.393 58.0763 558.31 58.2911 558.31 58.5628C558.31 58.8083 558.402 59.0231 558.586 59.2072C558.779 59.3913 559.029 59.4833 559.336 59.4833ZM565.329 60.325H564.106V50.8043H565.329V54.894C565.496 54.5871 565.759 54.3329 566.118 54.1313C566.487 53.9209 566.92 53.8157 567.42 53.8157C568.341 53.8157 569.055 54.1269 569.564 54.7493C570.072 55.3718 570.326 56.1651 570.326 57.1295C570.326 58.1026 570.063 58.9091 569.537 59.5491C569.011 60.1803 568.292 60.4959 567.381 60.4959C566.434 60.4959 565.75 60.1321 565.329 59.4044V60.325ZM568.551 58.7732C568.893 58.3612 569.064 57.8133 569.064 57.1295C569.064 56.4457 568.893 55.9065 568.551 55.512C568.218 55.1087 567.766 54.9071 567.197 54.9071C566.644 54.9071 566.193 55.1087 565.842 55.512C565.492 55.9153 565.316 56.4544 565.316 57.1295C565.316 57.8045 565.492 58.3524 565.842 58.7732C566.193 59.1853 566.644 59.3913 567.197 59.3913C567.758 59.3913 568.209 59.1853 568.551 58.7732ZM571.288 58.6286C571.288 58.0851 571.463 57.6511 571.814 57.3267C572.164 56.9936 572.629 56.7876 573.208 56.7087L574.917 56.4588C575.242 56.415 575.404 56.2572 575.404 55.9854C575.404 55.6523 575.29 55.3805 575.062 55.1701C574.834 54.9597 574.492 54.8545 574.036 54.8545C573.615 54.8545 573.282 54.9729 573.037 55.2096C572.791 55.4375 572.647 55.7443 572.603 56.1301L571.419 55.8539C571.481 55.249 571.757 54.7581 572.248 54.3811C572.739 53.9954 573.326 53.8025 574.01 53.8025C574.904 53.8025 575.566 54.0217 575.995 54.46C576.425 54.8896 576.64 55.4419 576.64 56.1169V59.2861C576.64 59.6631 576.666 60.0093 576.719 60.325H575.509C575.465 60.0619 575.443 59.777 575.443 59.4702C575.268 59.7507 575.009 59.9962 574.667 60.2066C574.334 60.417 573.913 60.5222 573.405 60.5222C572.782 60.5222 572.274 60.3381 571.879 59.9699C571.485 59.5929 571.288 59.1458 571.288 58.6286ZM573.576 59.4833C574.128 59.4833 574.571 59.3343 574.904 59.0362C575.237 58.7382 575.404 58.2648 575.404 57.616V57.3267L573.471 57.616C573.19 57.6599 572.967 57.7607 572.8 57.9185C572.633 58.0763 572.55 58.2911 572.55 58.5628C572.55 58.8083 572.642 59.0231 572.826 59.2072C573.019 59.3913 573.269 59.4833 573.576 59.4833ZM577.755 58.6812L578.872 58.2867C578.916 58.6286 579.065 58.9135 579.319 59.1414C579.574 59.3606 579.916 59.4702 580.345 59.4702C580.678 59.4702 580.941 59.3913 581.134 59.2335C581.327 59.0669 581.423 58.8653 581.423 58.6286C581.423 58.2078 581.152 57.936 580.608 57.8133L579.53 57.5766C579.039 57.4714 578.653 57.261 578.373 56.9454C578.092 56.6298 577.952 56.2484 577.952 55.8013C577.952 55.2578 578.171 54.7888 578.609 54.3943C579.056 53.9998 579.587 53.8025 580.2 53.8025C580.604 53.8025 580.963 53.8639 581.279 53.9866C581.594 54.1006 581.84 54.254 582.015 54.4469C582.191 54.6397 582.322 54.8194 582.41 54.986C582.497 55.1526 582.563 55.3235 582.607 55.4989L581.515 55.9065C581.498 55.8013 581.467 55.7005 581.423 55.6041C581.38 55.4989 581.309 55.3849 581.213 55.2622C581.125 55.1394 580.994 55.043 580.819 54.9729C580.643 54.894 580.437 54.8545 580.2 54.8545C579.894 54.8545 579.639 54.9378 579.438 55.1044C579.245 55.2709 579.148 55.4682 579.148 55.6961C579.148 56.0994 579.39 56.3536 579.872 56.4588L580.897 56.6824C581.458 56.8051 581.888 57.033 582.186 57.3662C582.493 57.6906 582.646 58.0894 582.646 58.5628C582.646 59.0625 582.44 59.514 582.028 59.9173C581.625 60.3206 581.06 60.5222 580.332 60.5222C579.552 60.5222 578.942 60.3293 578.504 59.9436C578.066 59.5491 577.816 59.1283 577.755 58.6812ZM584.811 56.5114H588.269C588.252 56.038 588.094 55.6523 587.796 55.3542C587.498 55.0474 587.077 54.894 586.534 54.894C586.043 54.894 585.639 55.0561 585.324 55.3805C585.008 55.6961 584.837 56.0731 584.811 56.5114ZM588.453 58.1552L589.519 58.5234C589.335 59.1108 588.993 59.5929 588.493 59.9699C587.993 60.3381 587.388 60.5222 586.678 60.5222C585.793 60.5222 585.039 60.2198 584.416 59.6148C583.803 59.0012 583.496 58.1771 583.496 57.1426C583.496 56.1783 583.794 55.3805 584.39 54.7493C584.986 54.1181 585.696 53.8025 586.52 53.8025C587.476 53.8025 588.221 54.105 588.756 54.7099C589.291 55.306 589.558 56.1082 589.558 57.1163C589.558 57.2741 589.549 57.4056 589.532 57.5108H584.771C584.78 58.0719 584.964 58.5322 585.324 58.8916C585.692 59.251 586.143 59.4307 586.678 59.4307C587.581 59.4307 588.173 59.0056 588.453 58.1552ZM538.101 81.325H536.825V74.0661L533.643 81.325H532.46L529.304 74.0661V81.325H528.028V72.0015H529.777L533.065 79.5891L536.378 72.0015H538.101V81.325ZM539.662 79.6286C539.662 79.0851 539.838 78.6511 540.188 78.3267C540.539 77.9936 541.004 77.7876 541.582 77.7087L543.292 77.4588C543.616 77.415 543.778 77.2572 543.778 76.9854C543.778 76.6523 543.664 76.3805 543.437 76.1701C543.209 75.9597 542.867 75.8545 542.411 75.8545C541.99 75.8545 541.657 75.9729 541.411 76.2096C541.166 76.4375 541.021 76.7443 540.977 77.1301L539.794 76.8539C539.855 76.249 540.131 75.7581 540.622 75.3811C541.113 74.9954 541.701 74.8025 542.385 74.8025C543.279 74.8025 543.941 75.0217 544.37 75.46C544.8 75.8896 545.015 76.4419 545.015 77.1169V80.2861C545.015 80.6631 545.041 81.0093 545.093 81.325H543.884C543.84 81.0619 543.818 80.777 543.818 80.4702C543.643 80.7507 543.384 80.9962 543.042 81.2066C542.709 81.417 542.288 81.5222 541.78 81.5222C541.157 81.5222 540.649 81.3381 540.254 80.9699C539.86 80.5929 539.662 80.1458 539.662 79.6286ZM541.951 80.4833C542.503 80.4833 542.946 80.3343 543.279 80.0362C543.612 79.7382 543.778 79.2648 543.778 78.616V78.3267L541.845 78.616C541.565 78.6599 541.341 78.7607 541.175 78.9185C541.008 79.0763 540.925 79.2911 540.925 79.5628C540.925 79.8083 541.017 80.0231 541.201 80.2072C541.394 80.3913 541.644 80.4833 541.951 80.4833ZM550.232 74.934V76.249C550.048 76.2227 549.868 76.2096 549.693 76.2096C548.536 76.2096 547.957 76.8583 547.957 78.1558V81.325H546.721V74.9998H547.931V76.1044C548.317 75.2978 548.948 74.8946 549.824 74.8946C549.965 74.8946 550.101 74.9077 550.232 74.934ZM556.998 74.9998L554.302 77.6692L557.051 81.325H555.499L553.434 78.5371L552.553 79.4182V81.325H551.33V71.8043H552.553V77.8007L555.289 74.9998H556.998ZM558.488 77.5114H561.947C561.929 77.038 561.772 76.6523 561.474 76.3542C561.175 76.0474 560.755 75.894 560.211 75.894C559.72 75.894 559.317 76.0561 559.001 76.3805C558.686 76.6961 558.515 77.0731 558.488 77.5114ZM562.131 79.1552L563.196 79.5234C563.012 80.1108 562.67 80.5929 562.17 80.9699C561.671 81.3381 561.066 81.5222 560.356 81.5222C559.47 81.5222 558.716 81.2198 558.094 80.6148C557.48 80.0012 557.173 79.1771 557.173 78.1426C557.173 77.1783 557.472 76.3805 558.068 75.7493C558.664 75.1181 559.374 74.8025 560.198 74.8025C561.154 74.8025 561.899 75.105 562.433 75.7099C562.968 76.306 563.236 77.1082 563.236 78.1163C563.236 78.2741 563.227 78.4056 563.209 78.5108H558.449C558.458 79.0719 558.642 79.5322 559.001 79.8916C559.37 80.251 559.821 80.4307 560.356 80.4307C561.259 80.4307 561.85 80.0056 562.131 79.1552ZM566.251 73.0009V74.9998H567.619V76.1175H566.251V79.405C566.251 79.7031 566.317 79.9223 566.449 80.0625C566.589 80.2028 566.817 80.2729 567.132 80.2729C567.316 80.2729 567.479 80.2554 567.619 80.2203V81.2724C567.408 81.3513 567.128 81.3907 566.777 81.3907C566.234 81.3907 565.804 81.2329 565.489 80.9173C565.173 80.6017 565.015 80.159 565.015 79.5891V76.1175H563.805V74.9998H564.147C564.472 74.9998 564.713 74.9121 564.871 74.7368C565.037 74.5527 565.12 74.316 565.12 74.0267V73.0009H566.251ZM570.144 83.8235H568.921V74.9998H570.118V75.986C570.302 75.6529 570.578 75.3811 570.946 75.1707C571.315 74.9603 571.744 74.8551 572.235 74.8551C573.147 74.8551 573.857 75.1663 574.365 75.7888C574.883 76.4112 575.141 77.2002 575.141 78.1558C575.141 79.1201 574.874 79.9179 574.339 80.5491C573.813 81.1803 573.099 81.4959 572.196 81.4959C571.731 81.4959 571.319 81.3995 570.959 81.2066C570.6 81.0137 570.328 80.7683 570.144 80.4702V83.8235ZM573.879 78.1558C573.879 77.5158 573.708 76.9898 573.366 76.5778C573.033 76.157 572.581 75.9466 572.011 75.9466C571.45 75.9466 570.995 76.157 570.644 76.5778C570.302 76.9898 570.131 77.5158 570.131 78.1558C570.131 78.8133 570.302 79.3524 570.644 79.7732C570.995 80.1853 571.45 80.3913 572.011 80.3913C572.573 80.3913 573.024 80.1853 573.366 79.7732C573.708 79.3524 573.879 78.8133 573.879 78.1558ZM577.733 81.325H576.497V71.8043H577.733V81.325ZM579.222 79.6286C579.222 79.0851 579.398 78.6511 579.748 78.3267C580.099 77.9936 580.564 77.7876 581.142 77.7087L582.852 77.4588C583.176 77.415 583.338 77.2572 583.338 76.9854C583.338 76.6523 583.224 76.3805 582.996 76.1701C582.768 75.9597 582.427 75.8545 581.971 75.8545C581.55 75.8545 581.217 75.9729 580.971 76.2096C580.726 76.4375 580.581 76.7443 580.537 77.1301L579.354 76.8539C579.415 76.249 579.691 75.7581 580.182 75.3811C580.673 74.9954 581.261 74.8025 581.944 74.8025C582.839 74.8025 583.5 75.0217 583.93 75.46C584.36 75.8896 584.574 76.4419 584.574 77.1169V80.2861C584.574 80.6631 584.601 81.0093 584.653 81.325H583.443C583.4 81.0619 583.378 80.777 583.378 80.4702C583.202 80.7507 582.944 80.9962 582.602 81.2066C582.269 81.417 581.848 81.5222 581.339 81.5222C580.717 81.5222 580.209 81.3381 579.814 80.9699C579.42 80.5929 579.222 80.1458 579.222 79.6286ZM581.51 80.4833C582.063 80.4833 582.505 80.3343 582.839 80.0362C583.172 79.7382 583.338 79.2648 583.338 78.616V78.3267L581.405 78.616C581.125 78.6599 580.901 78.7607 580.735 78.9185C580.568 79.0763 580.485 79.2911 580.485 79.5628C580.485 79.8083 580.577 80.0231 580.761 80.2072C580.954 80.3913 581.204 80.4833 581.51 80.4833ZM588.937 75.9466C588.402 75.9466 587.947 76.1394 587.57 76.5252C587.201 76.9109 587.017 77.4544 587.017 78.1558C587.017 78.8484 587.201 79.3919 587.57 79.7864C587.947 80.1809 588.407 80.3781 588.95 80.3781C589.476 80.3781 589.875 80.2466 590.147 79.9836C590.428 79.7206 590.616 79.4182 590.712 79.0763L591.804 79.5497C591.629 80.0757 591.295 80.5359 590.805 80.9304C590.322 81.325 589.704 81.5222 588.95 81.5222C588.03 81.5222 587.267 81.2022 586.662 80.5622C586.057 79.9223 585.755 79.1201 585.755 78.1558C585.755 77.1739 586.057 76.3718 586.662 75.7493C587.267 75.1181 588.025 74.8025 588.937 74.8025C589.709 74.8025 590.331 74.9998 590.805 75.3943C591.287 75.7888 591.602 76.2622 591.751 76.8145L590.634 77.2879C590.537 76.9197 590.353 76.6041 590.081 76.3411C589.809 76.0781 589.428 75.9466 588.937 75.9466ZM593.773 77.5114H597.231C597.214 77.038 597.056 76.6523 596.758 76.3542C596.46 76.0474 596.039 75.894 595.495 75.894C595.005 75.894 594.601 76.0561 594.286 76.3805C593.97 76.6961 593.799 77.0731 593.773 77.5114ZM597.415 79.1552L598.481 79.5234C598.296 80.1108 597.955 80.5929 597.455 80.9699C596.955 81.3381 596.35 81.5222 595.64 81.5222C594.755 81.5222 594.001 81.2198 593.378 80.6148C592.765 80.0012 592.458 79.1771 592.458 78.1426C592.458 77.1783 592.756 76.3805 593.352 75.7493C593.948 75.1181 594.658 74.8025 595.482 74.8025C596.438 74.8025 597.183 75.105 597.718 75.7099C598.253 76.306 598.52 77.1082 598.52 78.1163C598.52 78.2741 598.511 78.4056 598.494 78.5108H593.733C593.742 79.0719 593.926 79.5322 594.286 79.8916C594.654 80.251 595.105 80.4307 595.64 80.4307C596.543 80.4307 597.135 80.0056 597.415 79.1552Z" fill="white"/>
<path d="M135.825 92.4922L139.058 100.153H156.876L162.024 114.324L169.053 114.324" stroke="#D9F5FE" stroke-width="1.09584"/>
<path d="M544.621 189.917L539.333 200.8H521.515L518.397 209.753H504.962" stroke="#D9F5FE" stroke-width="1.09584"/>
<path d="M558.652 326.906L550.747 326.906H532.929L529.811 331.382H523.094V335.99" stroke="#D9F5FE" stroke-width="1.09584"/>
<path d="M162.414 238.543H155.217H146.308L141.233 230.555" stroke="#D9F5FE" stroke-width="2.19168"/>
<path d="M160.067 345.623L156.231 351.193H138.413" stroke="#D9F5FE" stroke-width="1.09584"/>
<path d="M86.925 100.153H94.1215H111.94" stroke="#D9F5FE" stroke-width="1.09584"/>
<defs>
<filter id="filter0_f_632_381" x="55.7229" y="65.9713" width="132.371" height="53.4424" filterUnits="userSpaceOnUse" color-interpolation-filters="sRGB">
<feFlood flood-opacity="0" result="BackgroundImageFix"/>
<feBlend mode="normal" in="SourceGraphic" in2="BackgroundImageFix" result="shape"/>
<feGaussianBlur stdDeviation="13.1501" result="effect1_foregroundBlur_632_381"/>
</filter>
<filter id="filter1_f_632_381" x="91.1541" y="88.7924" width="61.5087" height="6.95807" filterUnits="userSpaceOnUse" color-interpolation-filters="sRGB">
<feFlood flood-opacity="0" result="BackgroundImageFix"/>
<feBlend mode="normal" in="SourceGraphic" in2="BackgroundImageFix" result="shape"/>
<feGaussianBlur stdDeviation="1.09584" result="effect1_foregroundBlur_632_381"/>
</filter>
<filter id="filter2_f_632_381" x="521.266" y="186.47" width="61.5087" height="6.95807" filterUnits="userSpaceOnUse" color-interpolation-filters="sRGB">
<feFlood flood-opacity="0" result="BackgroundImageFix"/>
<feBlend mode="normal" in="SourceGraphic" in2="BackgroundImageFix" result="shape"/>
<feGaussianBlur stdDeviation="1.09584" result="effect1_foregroundBlur_632_381"/>
</filter>
<filter id="filter3_f_632_381" x="128.7" y="317.892" width="132.371" height="53.4424" filterUnits="userSpaceOnUse" color-interpolation-filters="sRGB">
<feFlood flood-opacity="0" result="BackgroundImageFix"/>
<feBlend mode="normal" in="SourceGraphic" in2="BackgroundImageFix" result="shape"/>
<feGaussianBlur stdDeviation="13.1501" result="effect1_foregroundBlur_632_381"/>
</filter>
<filter id="filter4_f_632_381" x="164.131" y="341.556" width="61.5087" height="6.95807" filterUnits="userSpaceOnUse" color-interpolation-filters="sRGB">
<feFlood flood-opacity="0" result="BackgroundImageFix"/>
<feBlend mode="normal" in="SourceGraphic" in2="BackgroundImageFix" result="shape"/>
<feGaussianBlur stdDeviation="1.09584" result="effect1_foregroundBlur_632_381"/>
</filter>
<filter id="filter5_f_632_381" x="470.567" y="309" width="132.371" height="53.4424" filterUnits="userSpaceOnUse" color-interpolation-filters="sRGB">
<feFlood flood-opacity="0" result="BackgroundImageFix"/>
<feBlend mode="normal" in="SourceGraphic" in2="BackgroundImageFix" result="shape"/>
<feGaussianBlur stdDeviation="13.1501" result="effect1_foregroundBlur_632_381"/>
</filter>
<filter id="filter6_f_632_381" x="489.477" y="332.663" width="61.5087" height="6.95807" filterUnits="userSpaceOnUse" color-interpolation-filters="sRGB">
<feFlood flood-opacity="0" result="BackgroundImageFix"/>
<feBlend mode="normal" in="SourceGraphic" in2="BackgroundImageFix" result="shape"/>
<feGaussianBlur stdDeviation="1.09584" result="effect1_foregroundBlur_632_381"/>
</filter>
<filter id="filter7_f_632_381" x="422.346" y="0.335325" width="132.371" height="53.4424" filterUnits="userSpaceOnUse" color-interpolation-filters="sRGB">
<feFlood flood-opacity="0" result="BackgroundImageFix"/>
<feBlend mode="normal" in="SourceGraphic" in2="BackgroundImageFix" result="shape"/>
<feGaussianBlur stdDeviation="13.1501" result="effect1_foregroundBlur_632_381"/>
</filter>
<filter id="filter8_f_632_381" x="457.777" y="23.1567" width="61.5087" height="6.95807" filterUnits="userSpaceOnUse" color-interpolation-filters="sRGB">
<feFlood flood-opacity="0" result="BackgroundImageFix"/>
<feBlend mode="normal" in="SourceGraphic" in2="BackgroundImageFix" result="shape"/>
<feGaussianBlur stdDeviation="1.09584" result="effect1_foregroundBlur_632_381"/>
</filter>
<filter id="filter9_f_632_381" x="81.9355" y="204.544" width="105.666" height="53.4424" filterUnits="userSpaceOnUse" color-interpolation-filters="sRGB">
<feFlood flood-opacity="0" result="BackgroundImageFix"/>
<feBlend mode="normal" in="SourceGraphic" in2="BackgroundImageFix" result="shape"/>
<feGaussianBlur stdDeviation="13.1501" result="effect1_foregroundBlur_632_381"/>
</filter>
<filter id="filter10_f_632_381" x="113.576" y="227.366" width="42.385" height="6.95807" filterUnits="userSpaceOnUse" color-interpolation-filters="sRGB">
<feFlood flood-opacity="0" result="BackgroundImageFix"/>
<feBlend mode="normal" in="SourceGraphic" in2="BackgroundImageFix" result="shape"/>
<feGaussianBlur stdDeviation="1.09584" result="effect1_foregroundBlur_632_381"/>
</filter>
<linearGradient id="paint0_linear_632_381" x1="66.0065" y1="92.2715" x2="205.504" y2="131.881" gradientUnits="userSpaceOnUse">
<stop stop-color="#D9F5FE"/>
<stop offset="0.28994" stop-color="#55ABFF"/>
<stop offset="0.890568" stop-color="#AED7FF"/>
<stop offset="1" stop-color="#BFDFFF" stop-opacity="0"/>
</linearGradient>
<linearGradient id="paint1_linear_632_381" x1="607.923" y1="189.949" x2="468.425" y2="229.558" gradientUnits="userSpaceOnUse">
<stop stop-color="#D9F5FE"/>
<stop offset="0.28994" stop-color="#55ABFF"/>
<stop offset="0.890568" stop-color="#AED7FF"/>
<stop offset="1" stop-color="#BFDFFF" stop-opacity="0"/>
</linearGradient>
<linearGradient id="paint2_linear_632_381" x1="138.983" y1="345.035" x2="278.481" y2="305.425" gradientUnits="userSpaceOnUse">
<stop stop-color="#D9F5FE"/>
<stop offset="0.28994" stop-color="#55ABFF"/>
<stop offset="0.890568" stop-color="#AED7FF"/>
<stop offset="1" stop-color="#BFDFFF" stop-opacity="0"/>
</linearGradient>
<linearGradient id="paint3_linear_632_381" x1="557.586" y1="336.142" x2="449.88" y2="313.31" gradientUnits="userSpaceOnUse">
<stop stop-color="#D9F5FE"/>
<stop offset="0.28994" stop-color="#55ABFF"/>
<stop offset="0.890568" stop-color="#AED7FF"/>
<stop offset="1" stop-color="#BFDFFF" stop-opacity="0"/>
</linearGradient>
<linearGradient id="paint4_linear_632_381" x1="544.434" y1="26.6355" x2="404.936" y2="66.2447" gradientUnits="userSpaceOnUse">
<stop stop-color="#D9F5FE"/>
<stop offset="0.28994" stop-color="#55ABFF"/>
<stop offset="0.890568" stop-color="#AED7FF"/>
<stop offset="1" stop-color="#BFDFFF" stop-opacity="0"/>
</linearGradient>
<linearGradient id="paint5_linear_632_381" x1="97.581" y1="230.844" x2="194.407" y2="249.134" gradientUnits="userSpaceOnUse">
<stop stop-color="#D9F5FE"/>
<stop offset="0.28994" stop-color="#55ABFF"/>
<stop offset="0.890568" stop-color="#AED7FF"/>
<stop offset="1" stop-color="#BFDFFF" stop-opacity="0"/>
</linearGradient>
</defs>
</svg>
