<svg width="235" height="63" viewBox="0 0 235 63" fill="none" xmlns="http://www.w3.org/2000/svg">
<rect y="0.340088" width="62" height="62" rx="31" fill="url(#paint0_linear_1_3610)"/>
<g clip-path="url(#clip0_1_3610)">
<path d="M50.375 46.8401L31.9688 15.8401L23.8098 29.5821L21.2173 28.4373C20.9758 28.7999 20.7259 29.1584 20.4802 29.521L22.8313 31.224L13.5625 46.8401H19.544L27.0166 34.251L44.3893 46.8401H50.3708H50.375ZM28.5459 31.6762L31.9645 25.9154L37.8232 35.7788L28.5459 31.6762Z" fill="white"/>
<path d="M18.0907 27.2103C18.4004 26.7214 19.0298 26.546 19.5477 26.8043C20.161 27.1101 20.3624 27.8875 19.9746 28.4527L19.9552 28.481C19.5658 29.0485 18.7632 29.138 18.2584 28.67C17.8596 28.3003 17.7814 27.6987 18.0724 27.2393L18.0907 27.2103Z" fill="white"/>
</g>
<path d="M99.1579 45.3401L96.879 39.0827H85.7548L83.4759 45.3401H77.8365L88.3427 17.9545H94.5228L104.952 45.3401H99.1579ZM91.3169 23.8642L87.5316 34.2159H95.1022L91.3169 23.8642ZM111.66 45.3401H106.523V26.3362H111.66V45.3401ZM105.905 20.1175C105.905 19.242 106.214 18.4952 106.832 17.8772C107.45 17.2334 108.197 16.9116 109.072 16.9116C109.948 16.9116 110.695 17.2206 111.313 17.8386C111.931 18.4566 112.24 19.2162 112.24 20.1175C112.24 20.9673 111.931 21.7012 111.313 22.3192C110.695 22.9372 109.948 23.2462 109.072 23.2462C108.197 23.2462 107.45 22.9372 106.832 22.3192C106.214 21.7012 105.905 20.9673 105.905 20.1175ZM121.332 40.396H125.581C127.975 40.396 129.945 39.6492 131.49 38.1557C133.035 36.6622 133.808 34.4991 133.808 31.6666C133.808 28.834 133.035 26.671 131.49 25.1775C129.945 23.6582 127.988 22.8985 125.619 22.8985H121.332V40.396ZM125.774 45.3401H116.001V17.9545H125.812C129.804 17.9545 133.048 19.1776 135.546 21.6239C138.07 24.0702 139.331 27.4178 139.331 31.6666C139.331 35.8897 138.07 39.2244 135.546 41.6706C133.022 44.1169 129.765 45.3401 125.774 45.3401ZM147.233 39.8166C148.185 40.7694 149.331 41.2458 150.67 41.2458C152.009 41.2458 153.142 40.7694 154.069 39.8166C155.022 38.8638 155.499 37.5377 155.499 35.8382C155.499 34.1386 155.022 32.8125 154.069 31.8597C153.142 30.9069 152.009 30.4306 150.67 30.4306C149.331 30.4306 148.185 30.9069 147.233 31.8597C146.306 32.8125 145.842 34.1386 145.842 35.8382C145.842 37.5377 146.306 38.8638 147.233 39.8166ZM143.525 28.6152C145.43 26.7096 147.812 25.7569 150.67 25.7569C153.529 25.7569 155.898 26.7096 157.778 28.6152C159.683 30.5207 160.636 32.9284 160.636 35.8382C160.636 38.748 159.683 41.1556 157.778 43.0612C155.898 44.9667 153.529 45.9195 150.67 45.9195C147.812 45.9195 145.43 44.9667 143.525 43.0612C141.645 41.1556 140.705 38.748 140.705 35.8382C140.705 32.9284 141.645 30.5207 143.525 28.6152ZM171.682 30.5078C170.317 30.5078 169.172 30.9842 168.245 31.937C167.317 32.8897 166.854 34.1901 166.854 35.8382C166.854 37.4862 167.317 38.7995 168.245 39.778C169.197 40.7308 170.356 41.2071 171.721 41.2071C172.931 41.2071 173.897 40.8981 174.618 40.2801C175.339 39.6364 175.828 38.8767 176.086 38.0012L180.605 39.5076C180.141 41.2586 179.137 42.765 177.592 44.0268C176.047 45.2886 174.09 45.9195 171.721 45.9195C168.888 45.9195 166.506 44.9667 164.575 43.0612C162.67 41.1299 161.717 38.7222 161.717 35.8382C161.717 32.9284 162.657 30.5207 164.536 28.6152C166.442 26.7096 168.785 25.7569 171.566 25.7569C173.987 25.7569 175.97 26.3877 177.515 27.6495C179.06 28.8855 180.051 30.3919 180.489 32.1687L175.892 33.7137C175.274 31.5765 173.871 30.5078 171.682 30.5078ZM201.262 26.3362L193.653 34.3318L201.416 45.3401H195.12L190.099 38.0785L187.975 40.3187V45.3401H182.837V17.3751H187.975V33.4047L194.541 26.3362H201.262ZM205.748 33.6751H214.245C214.194 32.6194 213.808 31.731 213.087 31.0099C212.391 30.2889 211.361 29.9284 209.996 29.9284C208.76 29.9284 207.756 30.3147 206.984 31.0872C206.211 31.8597 205.799 32.7224 205.748 33.6751ZM214.747 38.6192L219.035 39.8939C218.52 41.6449 217.503 43.0869 215.983 44.2199C214.49 45.353 212.623 45.9195 210.383 45.9195C207.653 45.9195 205.336 45.0053 203.43 43.177C201.525 41.323 200.572 38.851 200.572 35.7609C200.572 32.8254 201.499 30.4306 203.353 28.5765C205.207 26.6967 207.396 25.7569 209.919 25.7569C212.855 25.7569 215.147 26.6324 216.795 28.3834C218.468 30.1344 219.305 32.5421 219.305 35.6064C219.305 35.8124 219.292 36.0442 219.267 36.3017C219.267 36.5592 219.267 36.7652 219.267 36.9197L219.228 37.1901H205.632C205.683 38.4261 206.173 39.4561 207.1 40.2801C208.027 41.1041 209.134 41.5161 210.421 41.5161C212.61 41.5161 214.052 40.5505 214.747 38.6192ZM233.393 26.259V31.4348C232.878 31.3318 232.363 31.2803 231.848 31.2803C230.381 31.2803 229.196 31.7052 228.295 32.555C227.394 33.379 226.943 34.7438 226.943 36.6493V45.3401H221.806V26.3362H226.788V29.1559C227.715 27.1731 229.518 26.1817 232.196 26.1817C232.479 26.1817 232.878 26.2075 233.393 26.259Z" fill="white"/>
<defs>
<linearGradient id="paint0_linear_1_3610" x1="31" y1="0.340089" x2="57.7309" y2="62.3401" gradientUnits="userSpaceOnUse">
<stop stop-color="#FF852D"/>
<stop offset="1" stop-color="#FF7878"/>
</linearGradient>
<clipPath id="clip0_1_3610">
<rect width="36.8125" height="31" fill="white" transform="translate(13.5625 15.8401)"/>
</clipPath>
</defs>
</svg>
